<?xml version="1.0" encoding="UTF-8" standalone="no"?>
<!-- Created with Inkscape (http://www.inkscape.org/) -->

<svg
   version="1.1"
   id="svg1"
   width="71"
   height="64"
   viewBox="0 0 71 64.000001"
   sodipodi:docname="f.svg"
   inkscape:version="1.3.2 (091e20ef0f, 2023-11-25, custom)"
   xmlns:inkscape="http://www.inkscape.org/namespaces/inkscape"
   xmlns:sodipodi="http://sodipodi.sourceforge.net/DTD/sodipodi-0.dtd"
   xmlns="http://www.w3.org/2000/svg"
   xmlns:svg="http://www.w3.org/2000/svg">
  <defs
     id="defs1" />
  <sodipodi:namedview
     id="namedview1"
     pagecolor="#505050"
     bordercolor="#eeeeee"
     borderopacity="1"
     inkscape:showpageshadow="0"
     inkscape:pageopacity="0"
     inkscape:pagecheckerboard="0"
     inkscape:deskcolor="#505050"
     inkscape:zoom="2.4147029"
     inkscape:cx="55.07924"
     inkscape:cy="98.769915"
     inkscape:window-width="1900"
     inkscape:window-height="1009"
     inkscape:window-x="0"
     inkscape:window-y="0"
     inkscape:window-maximized="0"
     inkscape:current-layer="g1" />
  <g
     inkscape:groupmode="layer"
     inkscape:label="Image"
     id="g1">
    <path
       style="fill:#030303"
       d="m 18.882184,58.610733 c -0.0301,-2.90694 -0.14523,-6.06328 -0.25587,-7.0141 -0.56169,-4.82727 -1.84079,-8.50317 -3.92271,-11.27321 l -0.80598,-1.07238 -1.04235,-0.90159 C 9.9984936,35.878383 6.0608736,34.520263 1.2791646,34.356723 l -1.26014095,-0.0431 -0.01764,-4.56845 c -0.0097,-2.51265 0.03265,-4.61919 0.09413,-4.6812 0.06146,-0.062 15.94496035,-0.18085 35.29662035,-0.26409 l 35.18483,-0.15135 0.0202,4.69482 0.0202,4.69481 -24.38957,0.10549 -24.38958,0.10549 0.90753,1.30929 c 0.49915,0.72011 1.33522,2.14163 1.85792,3.15893 l 0.95039,1.84964 6.36823,-0.026 6.36822,-0.026 0.0179,4.63696 0.0179,4.63695 -5.25863,0.0247 -5.25863,0.0247 0.14969,1.26704 c 0.0823,0.69688 0.17489,3.87752 0.2057,7.06808 l 0.056,5.80104 -4.58766,0.0218 c -2.5232,0.012 -4.61203,-0.006 -4.64182,-0.0393 -0.0297,-0.0337 -0.0788,-2.43947 -0.10887,-5.34639 z"
       id="path6"
       sodipodi:nodetypes="csscsscssscccccsscccccccsscscsc" />
  </g>
</svg>
