<?xml version="1.0" encoding="UTF-8" standalone="no"?>
<!-- Created with Inkscape (http://www.inkscape.org/) -->

<svg
   version="1.1"
   id="svg1"
   width="332.16"
   height="407.04001"
   viewBox="0 0 332.16 407.04001"
   sodipodi:docname="logo-officieux.svg"
   inkscape:version="1.3.2 (091e20ef0f, 2023-11-25, custom)"
   xmlns:inkscape="http://www.inkscape.org/namespaces/inkscape"
   xmlns:sodipodi="http://sodipodi.sourceforge.net/DTD/sodipodi-0.dtd"
   xmlns="http://www.w3.org/2000/svg"
   xmlns:svg="http://www.w3.org/2000/svg">
  <defs
     id="defs1" />
  <sodipodi:namedview
     id="namedview1"
     pagecolor="#505050"
     bordercolor="#eeeeee"
     borderopacity="1"
     inkscape:showpageshadow="0"
     inkscape:pageopacity="0"
     inkscape:pagecheckerboard="0"
     inkscape:deskcolor="#505050"
     inkscape:zoom="1.5183061"
     inkscape:cx="207.46805"
     inkscape:cy="116.9066"
     inkscape:window-width="1900"
     inkscape:window-height="1009"
     inkscape:window-x="0"
     inkscape:window-y="0"
     inkscape:window-maximized="0"
     inkscape:current-layer="g1" />
  <g
     inkscape:groupmode="layer"
     inkscape:label="Image"
     id="g1">
    <path
       style="fill:#000000"
       d="m 190.08,389.95104 c -5.93696,-1.81739 -14.86909,-6.47923 -31.2,-16.28386 -6.55551,-3.93575 -16.84725,-10.36034 -23.68,-14.78217 -2.112,-1.36679 -4.9919,-3.22305 -6.39979,-4.12503 -10.74225,-6.88219 -47.544769,-31.72208 -63.520209,-42.87301 -1.32,-0.92136 -3.497497,-2.43005 -4.838881,-3.35263 l -2.438881,-1.67742 -2.512867,0.84354 c -4.548206,1.52679 -8.954678,1.00709 -13.362288,-1.57594 -4.387989,-2.57154 -6.568455,-7.14114 -5.687893,-11.92012 1.360326,-7.38276 7.809338,-12.94874 14.967,-12.91764 3.466986,0.0151 7.977632,2.41421 10.180202,5.41471 1.964972,2.67683 2.574107,5.44969 1.985911,9.04012 -0.224993,1.37339 -0.179341,1.54526 0.5347,2.01312 0.866894,0.56801 -0.782626,1.0815 25.172997,-7.83624 5.72,-1.96525 12.906199,-4.42308 15.969339,-5.46183 3.06314,-1.03876 5.62973,-1.94904 5.70354,-2.02285 0.0738,-0.0738 -6.82439,-3.60039 -15.329341,-7.83685 C 58.236391,255.97375 35.727571,243.98346 24.8,236.86974 18.555955,232.80494 13.204292,226.39659 11.552312,221.0063 c -2.1174753,-6.90918 0.706636,-12.76149 9.179974,-19.02336 3.923601,-2.89958 7.174335,-4.70501 21.827714,-12.12297 22.470379,-11.37513 34.671413,-18.33849 42.277711,-24.12867 2.856767,-2.17467 3.071102,-2.4745 3.193657,-4.46743 0.08422,-1.36948 0.0028,-1.52622 -1.543033,-2.97221 -1.861314,-1.74104 -2.484048,-2.89559 -2.78946,-5.17166 -0.118082,-0.88 -0.458635,-2.104 -0.756784,-2.72 -0.632136,-1.30604 -0.728392,-7.04441 -0.151234,-9.0159 0.258994,-0.88469 0.228297,-1.96672 -0.12395,-4.36913 -0.653633,-4.45795 -0.438875,-5.09565 2.899587,-8.61007 l 2.664461,-2.8049 -0.153502,-1.8207 c -0.200449,-2.37754 0.220044,-3.04313 4.62941,-7.32784 4.048394,-3.93394 4.506742,-4.13146 9.587267,-4.13146 l 3.49988,0 1.40019,-2 c 2.48666,-3.55188 6.14117,-7.93928 9.67472,-11.614912 1.89809,-1.974423 3.45108,-3.695491 3.45108,-3.824597 0,-0.288166 -11.70717,-13.897215 -16.82078,-19.553391 -5.932511,-6.561955 -14.219219,-17.069271 -14.219219,-18.02957 0,-1.048355 3.275491,-5.435408 6.609662,-8.8527 2.291435,-2.34856 6.537447,-5.710537 11.950337,-9.462244 1.144,-0.792912 5.08829,-3.546586 8.76508,-6.119275 7.36961,-5.156584 7.31669,-5.134758 12.03161,-4.962541 2.53848,0.09272 2.74149,0.151708 3.09474,0.899231 0.25916,0.548386 0.41116,4.068829 0.48332,11.193186 l 0.10525,10.393187 -2.69369,1.547224 c -3.88,2.228632 -9.00156,5.653803 -9.19061,6.146453 -0.12748,0.332216 0.55828,2.133619 1.01318,2.661465 0.0481,0.05583 0.84661,-0.283166 1.77444,-0.753331 1.71407,-0.868586 7.47086,-2.220796 8.01718,-1.883152 0.49581,0.306427 3.7995,7.113616 3.7995,7.828794 0,0.365467 -0.69083,1.411865 -1.53517,2.32533 -2.2529,2.437323 -4.22483,4.902195 -4.22483,5.280947 0,0.26049 5.41708,8.718875 5.97388,9.327784 0.0744,0.08134 0.45268,-0.05587 0.84067,-0.304901 3.2272,-2.07136 6.59879,-3.949014 11.02545,-6.140118 2.86,-1.415639 5.2,-2.708546 5.2,-2.873127 0,-0.164581 -0.43569,-3.117838 -0.9682,-6.562794 -0.53251,-3.444956 -1.11642,-8.154319 -1.29757,-10.465252 -0.18116,-2.310932 -0.68854,-6.577695 -1.12752,-9.481695 -0.43899,-2.904 -0.88315,-6.035221 -0.98702,-6.958269 l -0.18887,-1.67827 1.50772,-0.666937 c 3.15887,-1.397315 17.53318,-4.098958 23.98561,-4.50808 4.86781,-0.308647 5.11108,-0.295441 5.71686,0.310339 0.48705,0.48705 0.84499,1.911341 1.55487,6.18696 0.98481,5.931486 1.15921,9.558803 0.5194,10.802847 -0.76824,1.493786 -1.13408,1.518013 -6.53926,0.43305 -5.63706,-1.13151 -10.87394,-1.890383 -11.14876,-1.615562 -0.0992,0.09917 -0.0649,1.219788 0.0762,2.490253 l 0.25653,2.309936 1.44,0.105636 c 2.69023,0.19735 5.27783,0.546462 5.95814,0.803854 0.87318,0.330364 1.08279,1.447134 0.8522,4.540292 l -0.18459,2.476049 -1.79287,1.000541 c -2.6525,1.480265 -3.87288,2.483461 -3.87288,3.183647 0,0.343043 0.13703,0.623714 0.30451,0.623714 0.16749,0 2.07549,-0.560497 4.24,-1.24555 2.55624,-0.809029 4.37692,-1.209203 5.19504,-1.141838 3.24034,0.266813 4.47099,0.568836 5.17127,1.269116 0.71653,0.71653 0.78905,0.722757 4.82832,0.414586 2.25547,-0.172078 6.06841,-0.254661 8.47319,-0.183518 l 4.37233,0.12935 0.18021,-0.981073 c 0.0991,-0.53959 0.27811,-7.940971 0.39778,-16.447513 0.25379,-18.040339 -0.0134,-16.753075 3.51885,-16.952266 2.99396,-0.168836 13.19612,0.48567 14.46492,0.927978 1.25094,0.436078 1.65358,1.124714 1.65358,2.828089 0,1.218501 -0.7974,8.726445 -2.71878,25.598653 -0.44945,3.946808 -0.7056,7.272032 -0.5692,7.389386 0.13639,0.117355 1.83198,0.615869 3.76798,1.107809 1.936,0.49194 3.7,0.962123 3.92,1.044851 0.22,0.08273 0.4,-0.05867 0.4,-0.314227 0,-0.738693 1.08701,-1.524081 2.1052,-1.521052 1.26735,0.0038 10.28545,1.84688 11.05705,2.259829 0.33961,0.181754 1.77436,1.216426 3.18834,2.299271 3.06,2.343391 3.29653,2.239478 3.02774,-1.330161 -0.0981,-1.302555 -0.17833,-2.827441 -0.17833,-3.388636 0,-0.784696 -0.18954,-1.106714 -0.82067,-1.394276 -1.39681,-0.636432 -5.98224,-3.757477 -7.55198,-5.140216 -1.77515,-1.563686 -4.87689,-6.140433 -5.98328,-8.828592 -1.70251,-4.13654 -0.48428,-9.354842 3.58585,-15.36 3.6896,-5.443716 8.07222,-7.84 14.33874,-7.84 4.0066,0 5.52929,0.457249 11.7978,3.542749 4.74179,2.334014 5.82755,3.005602 7.04,4.354524 3.16977,3.526551 5.11354,6.123543 5.11354,6.831976 0,0.67813 -2.76071,7.603622 -4.07829,10.230751 -0.75928,1.513948 -1.7411,1.565302 -5.70726,0.298523 -3.80569,-1.215522 -4.91905,-1.752469 -8.39427,-4.048348 -1.4629,-0.966456 -2.70442,-1.706114 -2.75892,-1.643684 -0.34272,0.392568 -1.0404,5.62404 -0.80796,6.058364 0.15212,0.284235 1.56645,0.978188 3.14296,1.54212 3.17472,1.135624 4.28209,2.085431 7.17703,6.155807 2.72153,3.826549 2.91587,4.512971 2.93231,10.357219 0.0165,5.869085 -0.23219,7.001081 -2.633,11.984454 -0.80963,1.68055 -1.48118,3.147634 -1.49233,3.260187 -0.0111,0.112552 0.91573,1.027626 2.05973,2.033498 1.144,1.005871 3.54457,3.269754 5.3346,5.030851 l 3.2546,3.201995 1.245,-1.000506 c 1.52846,-1.228309 2.86416,-1.63259 5.36369,-1.623451 3.48899,0.01276 6.05824,1.899738 7.02664,5.16071 0.66444,2.2374 0.27639,3.56591 -1.57124,5.37922 -1.33639,1.31157 -1.40479,1.45624 -0.93431,1.97611 0.34527,0.38152 0.50069,1.14343 0.48589,2.38197 -0.0186,1.55629 0.0901,1.90904 0.74778,2.42635 0.42324,0.33292 0.85656,0.87954 0.96294,1.21472 0.10782,0.33971 0.61525,0.70206 1.14658,0.81876 1.56562,0.34387 2.78304,1.62161 3.39511,3.56333 0.51562,1.63572 0.51925,1.87429 0.0484,3.18355 l -0.50895,1.41533 0.84162,0.17493 c 0.46289,0.0962 1.48961,0.32063 2.28161,0.49871 4.43333,0.99683 9.08722,4.82496 11.42679,9.39928 2.61839,5.11949 3.14036,8.40126 2.15903,13.57444 -0.48369,2.54979 -2.32754,8.28584 -3.21537,10.00272 -0.24608,0.47585 -0.81718,2.32791 -1.26911,4.11568 -0.75624,2.99153 -0.83019,3.90443 -0.92825,11.45883 -0.20321,15.65505 -2.7411,28.17544 -8.40971,41.48833 l -1.77132,4.16 0.3882,2.56 c 0.73951,4.87662 0.77872,6.67271 0.18595,8.5172 -1.95671,6.08857 -6.76012,17.64717 -10.10954,24.32688 l -1.54645,3.08408 0.65948,0.59592 c 0.84109,0.76003 2.1903,3.40627 2.1903,4.29589 0,0.37468 -0.26502,1.06347 -0.58894,1.53064 -0.32392,0.46717 -1.86608,3.2254 -3.42703,6.1294 -1.56094,2.904 -3.21304,5.66019 -3.67132,6.12488 -1.19795,1.21469 -5.20243,2.08965 -7.22867,1.57944 l -1.45122,-0.36542 -1.73373,1.58453 c -1.89523,1.73214 -2.04391,1.7828 -6.67484,2.27457 -3.66598,0.3893 -7.28823,0.0231 -9.9054,-1.00127 -2.83958,-1.11147 -8.83885,-4.13283 -8.83885,-4.45142 0,-0.17782 -1.8374,-0.31507 -4.4,-0.32868 -2.42,-0.0128 -5.16607,-0.13232 -6.10237,-0.2655 -1.36185,-0.1937 -2.22599,-0.089 -4.32,0.52354 -3.87119,1.13235 -11.0975,2.5879 -15.04853,3.03113 l -3.4709,0.38937 -1.1691,2.15442 c -0.643,1.18493 -1.49987,2.30651 -1.90415,2.49241 -0.40605,0.18671 -2.75927,0.338 -5.25738,0.338 l -4.52233,0 -2.91286,1.47528 -2.91286,1.47529 -3.18976,-0.84882 c -4.27461,-1.13749 -9.1265,-2.89061 -11.68333,-4.22148 -2.73314,-1.42264 -8.92896,-6.08948 -9.73748,-7.3345 -0.50184,-0.77277 -1.26301,-1.20183 -3.68081,-2.07481 -4.67659,-1.68856 -14.05064,-6.53851 -19.20814,-9.93791 -15.27341,-10.06698 -27.18396,-23.20554 -35.876718,-39.57571 -1.263645,-2.37969 -1.525087,-2.6761 -2.627379,-2.97882 -0.673253,-0.18489 -1.40425,-0.2917 -1.624436,-0.23735 -0.389673,0.0962 0.50291,4.31557 7.839553,37.05883 1.08448,4.84 2.06995,8.9855 2.18994,9.21222 0.20441,0.38624 1.4454,0.99184 9.93904,4.85023 1.848,0.83949 5.016,2.32009 7.04,3.29022 2.024,0.97013 6.344,3.02572 9.6,4.56797 3.256,1.54225 10.744,5.10848 16.64,7.92496 5.896,2.81647 12.232,5.83594 14.08,6.70993 4.85745,2.29728 7.14229,3.39215 34.56,16.56087 26.87421,12.90767 29.73112,14.27964 36,17.28824 2.288,1.09807 8.09074,3.92401 12.89498,6.27987 8.31157,4.07575 8.84073,4.38912 10.91667,6.46506 2.72583,2.72583 3.54835,4.65334 3.54835,8.3152 0,6.29171 -3.59284,13.15021 -10.03437,19.15492 -15.5211,14.46861 -47.72266,26.33949 -60.68563,22.37134 z m 9.3261,-2.7655 c 11.90968,-1.20202 28.77464,-7.65882 40.59856,-15.54328 9.96943,-6.64783 15.19625,-12.80598 17.112,-20.16103 1.48168,-5.68857 -0.54498,-8.88205 -8.05587,-12.69386 -3.56473,-1.80912 -41.21423,-19.9745 -49.22079,-23.74837 -1.584,-0.74662 -4.752,-2.25611 -7.04,-3.35443 -2.288,-1.09832 -11.216,-5.38461 -19.84,-9.52509 -8.624,-4.14048 -16.616,-7.95014 -17.76,-8.46591 -1.144,-0.51576 -4.384,-2.0676 -7.2,-3.44853 -2.816,-1.38093 -7.496,-3.6236 -10.4,-4.98372 -2.904,-1.36013 -10.104,-4.777 -16,-7.59305 -5.896,-2.81606 -12.21085,-5.74475 -14.033,-6.50821 -3.21853,-1.34852 -3.37151,-1.37982 -5.3642,-1.09762 -3.391446,0.48029 -6.100931,-0.78408 -6.886292,-3.21345 -0.240079,-0.74265 -0.652507,-1.47188 -0.916507,-1.62052 -0.264,-0.14864 -4.944,-2.37425 -10.4,-4.94579 -5.456,-2.57154 -14.296182,-6.81361 -19.64485,-9.42683 -9.035372,-4.41445 -9.821077,-4.73812 -11.08211,-4.56527 -1.55144,0.21264 -4.281488,-0.55956 -5.03365,-1.42379 -0.261733,-0.30073 -0.609796,-0.96417 -0.773472,-1.4743 -0.228574,-0.7124 -0.887661,-1.24954 -2.841757,-2.31596 -2.150345,-1.17353 -2.825755,-1.38908 -4.36333,-1.39249 -1.000542,-0.002 -2.194059,-0.14657 -2.652259,-0.32078 C 36.546474,238.95945 35.2,237.51592 35.2,236.78107 c 0,-0.37593 -0.814813,-1.00498 -2.430972,-1.87672 -3.923501,-2.11631 -5.829435,-3.51435 -7.371004,-5.40679 -4.388025,-5.38676 -5.876937,-13.90428 -3.079417,-17.61621 1.617593,-2.14634 6.749759,-3.56135 12.916794,-3.56135 5.378916,0 57.213356,6.94594 61.213007,8.20269 0.433698,0.13627 0.556027,0.0657 0.425998,-0.24576 -6.388038,-15.30137 -8.866773,-27.08939 -8.990732,-42.75686 -0.02402,-3.03596 -0.130966,-5.51996 -0.237656,-5.52 -0.106691,-3e-5 -0.845705,0.49756 -1.642254,1.10577 -6.731001,5.1395 -20.82377,13.11428 -43.283764,24.4933 -6.688,3.38838 -13.168,6.74047 -14.4,7.44909 -6.194433,3.56291 -11.493176,8.23802 -13.130948,11.5855 -1.670078,3.41352 -1.058557,7.58967 1.746989,11.93039 1.639047,2.53592 5.031024,6.0956 7.657839,8.03643 7.506449,5.54617 29.753575,17.53689 69.006121,37.19278 L 116,281.01023 l 2.88,-0.50409 c 3.68258,-0.64457 4.49987,-0.62832 6.15339,0.12229 2.21202,1.00414 3.04959,2.96899 2.18896,5.13507 -0.14503,0.36502 0.79746,0.97641 3.84612,2.49499 l 4.03824,2.0115 2.06176,-0.68611 c 1.13398,-0.37737 2.9117,-0.70566 3.9505,-0.72954 2.12824,-0.0489 3.13556,0.49105 4.43076,2.37509 0.62039,0.90245 0.71905,1.35737 0.57193,2.63716 l -0.1778,1.54658 5.98807,2.88633 c 12.23744,5.89859 29.85463,14.13106 38.94807,18.20034 9.09754,4.07111 29.62586,14.73308 48.41532,25.14589 3.92443,2.17485 7.20549,3.95428 7.29126,3.95428 0.0858,0 0.007,-0.27854 -0.17532,-0.61897 -0.57284,-1.07037 -0.38693,-1.92939 0.50558,-2.33604 0.75912,-0.34588 0.9192,-0.28912 1.7237,0.61127 1.13321,1.26829 2.2557,4.23718 2.47157,6.53708 0.19293,2.05552 -0.26412,3.76132 -1.44865,5.40666 -1.51136,2.09931 -7.06579,6.55026 -15.90346,12.74397 -11.15351,7.81671 -22.10436,11.27453 -35.61639,11.24615 -6.302,-0.0132 -8.72806,-0.36577 -11.6355,-1.69073 -6.85396,-3.12345 -32.27723,-18.43804 -67.32573,-40.55599 -17.59528,-11.1038 -28.966075,-18.30682 -30.542379,-19.34758 -0.616,-0.40671 -6.664,-4.29585 -13.44,-8.64253 -14.405924,-9.24113 -15.57569,-10.10352 -15.833942,-11.67329 -0.804269,-4.8887 -1.748419,-6.57657 -4.459046,-7.97151 -3.733867,-1.92151 -7.698965,-0.31842 -9.807843,3.96532 -2.654925,5.39292 0.172861,10.72355 5.690553,10.7272 0.841652,5.6e-4 2.560574,-0.30435 3.819824,-0.67758 l 2.289547,-0.67858 2.030454,1.08005 c 1.116749,0.59403 7.355396,4.75094 13.86366,9.23757 16.935221,11.67473 16.996138,11.71613 34.246792,23.27378 49.36067,33.07084 77.88999,49.93102 86.4,51.06045 1.80148,0.23908 2.65298,0.22322 5.9661,-0.11117 z m 9.0739,-11.96288 c 6.59665,-1.178 13.26979,-3.59965 18.4,-6.67727 5.65381,-3.39172 17.35786,-12.09719 19.59859,-14.5774 0.98669,-1.09216 1.89524,-3.35941 1.47983,-3.69288 -0.52915,-0.42477 -7.92417,-4.57713 -16.43842,-9.2303 -20.35815,-11.12606 -33.5519,-17.7939 -50.08,-25.30937 -9.86132,-4.48404 -16.88496,-7.7773 -29.71727,-13.93392 -4.8165,-2.31083 -8.99349,-4.20151 -9.2822,-4.20151 -0.67137,0 -0.20961,-0.18438 -28.04053,11.19623 -4.4,1.79925 -10.664,4.34986 -13.92,5.66802 -3.255999,1.31816 -6.019013,2.49095 -6.140029,2.6062 -0.121017,0.11525 3.532996,2.58555 8.120029,5.48955 4.58703,2.904 10.01405,6.34094 12.06003,7.63765 20.31944,12.87811 46.7119,29.1838 57.63997,35.61091 12.75085,7.49914 16.70277,9.5059 19.49333,9.89861 2.85559,0.40187 13.59468,0.0926 16.82667,-0.48452 z M 108.01494,307.86147 c 9.49578,-3.8602 20.43306,-8.33015 24.30506,-9.93322 3.872,-1.60308 7.796,-3.20709 8.72,-3.56446 1.36763,-0.52895 1.68,-0.78999 1.68,-1.40392 0,-1.10773 -0.8763,-1.85007 -1.886,-1.59768 -0.90437,0.22607 -3.81897,1.40196 -14.434,5.82337 -3.784,1.57612 -14.04239,5.80615 -22.79642,9.40006 -8.754033,3.59391 -15.918034,6.61408 -15.920001,6.71149 -0.0047,0.23483 2.303223,1.56615 2.731363,1.57555 0.184218,0.004 8.104218,-3.15099 17.599998,-7.01119 z m -22.041469,2.50488 c 0.850592,-0.37051 5.00253,-2.08852 9.22653,-3.81779 4.224,-1.72928 11.207999,-4.60291 15.519999,-6.38586 4.312,-1.78295 10.54,-4.34376 13.84,-5.6907 3.3,-1.34693 6,-2.53138 6,-2.63209 0,-0.10072 -1.57778,-0.9616 -3.50617,-1.91308 l -3.50617,-1.72996 -5.53383,1.79719 c -3.04361,0.98845 -10.06983,3.2615 -15.61383,5.05122 -5.543999,1.78972 -12.003047,3.88053 -14.353439,4.64625 -2.350392,0.76572 -6.421046,2.07641 -9.045897,2.91265 -2.624852,0.83625 -4.733096,1.63853 -4.684987,1.78285 0.06242,0.18726 9.588568,6.47092 10.057794,6.63435 0.02941,0.0102 0.749409,-0.28452 1.6,-0.65503 z m -43.9688,-8.47768 C 41.210607,300.48067 41.12,300.00865 41.12,297.28001 c 0,-2.73223 0.09984,-3.25068 0.98618,-5.12092 1.202188,-2.53671 3.395533,-4.79903 5.717846,-5.89766 4.318167,-2.04282 9.910538,-0.29555 12.733941,3.97858 0.95415,1.44441 0.620939,-0.10182 -0.352837,-1.63731 -1.12448,-1.77312 -3.358142,-3.29421 -6.065262,-4.13035 -2.465824,-0.76162 -3.493841,-0.78543 -5.992636,-0.13879 -5.520533,1.42859 -9.126367,5.99796 -9.225163,11.69027 -0.04004,2.30718 0.01762,2.51508 1.198272,4.32 2.191146,3.34973 3.513731,4.43402 1.88433,1.54484 z m 33.019657,-1.58913 c 2.47262,-0.80326 7.519673,-2.44742 11.215673,-3.6537 3.696,-1.20629 10.824,-3.51214 15.839999,-5.12412 5.016,-1.61198 10.128,-3.25914 11.36,-3.66036 1.232,-0.40121 4.112,-1.27753 6.4,-1.94736 2.288,-0.66984 4.28231,-1.32402 4.43179,-1.45373 0.14948,-0.12971 0.17578,-0.53834 0.0584,-0.90805 -0.45775,-1.44224 -4.22085,-0.57038 -17.77023,4.11713 -5.192,1.79621 -15.552144,5.35569 -23.022543,7.90995 -17.09408,5.84476 -15.359283,5.16438 -14.596295,5.72461 0.885468,0.65017 1.098236,0.61504 6.083166,-1.00437 z M 179.04,282.06678 c -3.98447,-1.93334 -15.292,-9.33106 -15.63703,-10.23019 -0.15073,-0.39279 -7.34898,-6.28959 -10.34742,-8.47658 -2.99736,-2.18622 -9.12921,-8.70641 -10.7083,-11.38647 -2.42895,-4.12247 -4.73807,-10.79801 -4.74501,-13.71753 -0.005,-1.93933 -0.68607,-0.24905 -0.86767,2.15215 -0.15587,2.06093 -0.06,2.77956 0.65669,4.92254 1.15987,3.46813 3.02697,7.02293 5.35176,10.18931 2.42532,3.30329 13.33599,12.84246 17.9344,15.68 0.63811,0.39376 1.05659,0.92363 1.08766,1.3772 0.16795,2.45169 11.01902,9.28356 15.6693,9.86543 0.70091,0.0877 1.33691,0.22199 1.41334,0.29841 0.0764,0.0764 0.51095,0.13066 0.96562,0.12052 0.69025,-0.0154 0.56263,-0.14654 -0.77334,-0.79479 z m 4,-0.11488 c 0,-0.15846 -1.67366,-1.25999 -3.71925,-2.44785 -4.2886,-2.49036 -7.67352,-5.08848 -10.80164,-8.29089 -4.0867,-4.18373 -5.88921,-7.25845 -7.84207,-13.37698 -0.90084,-2.82244 -0.99704,-3.51795 -0.99704,-7.2088 0,-4.74708 0.0424,-4.8456 2.86526,-6.66441 1.2349,-0.79566 1.93015,-1.4606 1.93194,-1.84773 0.004,-0.78077 -3.40769,-7.27656 -4.54753,-8.65939 -1.28188,-1.55514 -4.10127,-2.25685 -9.04967,-2.25235 -3.49343,0.003 -4.00636,0.0811 -5.68334,0.86386 -2.34196,1.09311 -5.5643,3.561 -5.86972,4.49544 -0.93726,2.86756 1.43303,10.78368 4.80924,16.06156 1.86452,2.9147 3.89781,4.86745 12.66382,12.1622 13.46526,11.20527 17.75828,14.23339 23.65217,16.68326 1.94352,0.80785 2.58783,0.92787 2.58783,0.48208 z m 16.13649,-5.42498 2.06107,-4.11308 3.14122,-1.9805 c 1.72767,-1.08927 3.54764,-2.3121 4.04437,-2.71739 l 0.90314,-0.73689 -3.42631,-0.19403 -3.42631,-0.19403 -5.15683,-2.93905 c -6.29824,-3.58957 -10.95689,-6.66414 -13.20576,-8.7154 -2.16704,-1.97662 -3.82776,-4.98774 -6.53756,-11.85349 -1.17154,-2.96832 -2.21294,-5.26288 -2.31421,-5.09902 -0.10127,0.16386 -0.49042,1.11658 -0.86479,2.11716 -0.83829,2.24054 -1.35223,2.7783 -2.65738,2.78059 -1.87994,0.003 -3.24192,0.61836 -6.05714,2.73536 l -2.8,2.10556 0.002,3.09865 c 0.002,3.58347 0.1815,4.36175 2.15306,9.33865 2.16857,5.47421 3.65775,7.40878 9.68515,12.58175 4.16239,3.57233 5.89407,4.69146 10.02653,6.47982 l 3.25347,1.40797 4.55771,0.005 4.55771,0.005 z m 52.1611,1.58934 c 0.24086,-0.38971 -0.6704,-1.10027 -1.08357,-0.84492 -0.18371,0.11354 -0.33402,0.0385 -0.33402,-0.16669 0,-0.20521 -0.216,-0.29023 -0.48,-0.18892 -0.264,0.1013 -0.48,0.0362 -0.48,-0.14465 0,-0.18087 -0.13405,-0.246 -0.29789,-0.14474 -0.16383,0.10126 -0.38978,0.0354 -0.50211,-0.14633 -0.11232,-0.18175 -0.33827,-0.2476 -0.50211,-0.14634 -0.16384,0.10126 -0.29789,0.0231 -0.29789,-0.17366 0,-0.19678 -0.13405,-0.27493 -0.29789,-0.17367 -0.16383,0.10126 -0.38978,0.0354 -0.50211,-0.14633 -0.11232,-0.18175 -0.33827,-0.2476 -0.50211,-0.14634 -0.16384,0.10126 -0.29789,0.0231 -0.29789,-0.17366 0,-0.19678 -0.144,-0.26878 -0.32,-0.16 -0.176,0.10877 -0.32,0.0567 -0.32,-0.11569 0,-0.17241 -0.468,-0.41479 -1.04,-0.53864 -1.12082,-0.24267 -3.16784,-1.09214 -5.1709,-2.14582 -0.72907,-0.38352 -2.06399,-0.70853 -3.2,-0.7791 -5.57984,-0.34662 -15.09011,-2.12746 -21.38778,-4.00497 -1.03055,-0.30723 -1.2897,-0.27499 -1.84756,0.22987 -0.35689,0.32297 -0.53212,0.70398 -0.38942,0.84669 0.40473,0.40472 4.92383,1.87566 5.21316,1.69684 0.14205,-0.0878 0.3407,-0.0263 0.44143,0.13672 0.10073,0.16299 1.15468,0.45362 2.34211,0.64585 6.92483,1.12104 8.94517,1.3565 12.55896,1.46368 4.70229,0.13948 4.93098,0.17775 5.85393,0.97966 0.38834,0.33741 0.81407,0.58004 0.94607,0.53919 0.132,-0.0409 0.24,0.0782 0.24,0.2646 0,0.18639 0.144,0.24989 0.32,0.14112 0.176,-0.10878 0.32,-0.0368 0.32,0.16 0,0.19677 0.144,0.26877 0.32,0.16 0.176,-0.10878 0.32,-0.0368 0.32,0.16 0,0.19677 0.144,0.26877 0.32,0.16 0.176,-0.10878 0.32,-0.0368 0.32,0.16 0,0.19677 0.144,0.26877 0.32,0.16 0.176,-0.10878 0.32,-0.0368 0.32,0.16 0,0.19677 0.144,0.26877 0.32,0.16 0.176,-0.10878 0.32,-0.0453 0.32,0.14111 0,0.18639 0.108,0.30829 0.24,0.2709 0.132,-0.0374 0.54507,0.10154 0.91793,0.30874 0.37286,0.2072 0.76886,0.28579 0.88,0.17465 0.11114,-0.11114 0.20207,-0.0256 0.20207,0.19015 0,0.21572 0.13405,0.30937 0.29789,0.20811 0.16384,-0.10126 0.39196,-0.0319 0.50693,0.15413 0.11497,0.18603 0.47281,0.25452 0.79518,0.15221 0.32238,-0.10232 0.68397,-0.0277 0.80354,0.16571 0.11956,0.19347 0.59968,0.27158 1.06693,0.17359 0.46724,-0.098 1.06553,-0.0366 1.32953,0.13636 0.60087,0.39374 1.18893,0.41058 1.41759,0.0406 z m 6.49805,-1.53835 c 0.0735,-0.22338 -0.38129,-0.50099 -1.09494,-0.66834 -5.97911,-1.40209 -9.84525,-2.50823 -11.4607,-3.27902 -3.30928,-1.57899 -11.43782,-7.10121 -15.23642,-10.35105 -4.06882,-3.48103 -4.67355,-4.41758 -4.98145,-7.71474 -0.18199,-1.94889 -0.2619,-2.1158 -1.30854,-2.73334 -0.6131,-0.36174 -1.22167,-0.61579 -1.35238,-0.56456 -0.13071,0.0512 -1.43082,1.53315 -2.88914,3.29315 -1.45832,1.76 -3.1466,3.72388 -3.75175,4.36418 l -1.10025,1.16418 0.46539,2.26191 c 0.46172,2.244 0.45942,2.26753 -0.29003,2.9716 -0.41548,0.39033 -0.75543,0.80678 -0.75543,0.92546 0,0.34653 6.62768,2.15824 10.42847,2.85068 8.04561,1.46576 9.16445,1.62199 11.61654,1.62199 2.10112,0 2.67451,0.10997 3.14253,0.60272 0.31485,0.3315 1.04046,0.70294 1.61246,0.82543 0.572,0.12248 1.04,0.36375 1.04,0.53616 0,0.1724 0.1317,0.23206 0.29267,0.13258 0.16097,-0.0995 0.34767,-0.0159 0.4149,0.1858 0.11773,0.35321 1.86579,1.03638 6.97243,2.72496 2.20552,0.72928 6.00885,1.37597 7.49494,1.27438 0.33821,-0.0231 0.67153,-0.21398 0.7407,-0.42413 z M 208.48,274.71272 c 2.86681,-0.48302 5.52844,-1.01536 6.68949,-1.33792 0.4179,-0.11611 -0.27086,-0.50968 -2.19112,-1.25206 -1.54033,-0.59551 -2.93193,-1.08273 -3.09245,-1.08273 -0.36276,0 -5.65669,3.46909 -5.9036,3.86861 -0.26061,0.42168 1.21328,0.35748 4.49768,-0.1959 z m 58.89429,-0.50969 c 1.23843,-0.31184 1.53223,-0.56475 2.32339,-2 0.49813,-0.90367 1.73643,-3.13053 2.75177,-4.94859 1.01535,-1.81807 1.79372,-3.35794 1.72971,-3.42194 -0.14498,-0.14498 -8.74214,-1.22663 -15.13916,-1.90473 -6.98685,-0.74062 -6.55735,-0.59316 -9.68111,-3.32389 -4.48085,-3.91708 -9.06078,-8.46698 -10.95889,-10.88705 -0.968,-1.23418 -1.93062,-2.25136 -2.13915,-2.2604 -0.20853,-0.009 -1.14453,0.78577 -2.08,1.76623 -0.93547,0.98046 -2.34885,2.11821 -3.14085,2.52833 -0.792,0.41011 -1.78414,1.11464 -2.20475,1.5656 -0.69566,0.74586 -0.74901,1.01616 -0.59053,2.99168 0.17069,2.12763 0.2079,2.2027 1.83231,3.69655 7.12552,6.5528 14.73723,11.85901 19.12285,13.33077 1.09993,0.36912 4.55593,1.09526 7.68,1.61364 3.12407,0.51839 6.11212,1.0805 6.64012,1.24914 1.31874,0.42121 2.19581,0.42227 3.85429,0.005 z m -166.09472,-7.12314 c 0.74722,-0.54638 0.95384,0.58212 -3.48506,-19.03407 -1.886062,-8.3348 -4.118867,-18.34112 -4.961791,-22.23626 l -1.532588,-7.08206 -1.389874,-0.23727 c -0.764432,-0.1305 -1.449939,-0.17721 -1.52335,-0.1038 -0.07341,0.0734 0.176583,1.4745 0.555542,3.11353 3.942645,17.05225 8.020256,35.50593 8.330375,37.70005 0.663597,4.69499 1.321853,7.50426 1.855783,7.92 0.668572,0.52057 1.402903,0.50688 2.150963,-0.0401 z M 148.64,265.21992 c -0.88,-0.72475 -2.968,-2.71647 -4.64,-4.42603 -1.72813,-1.76695 -4.07569,-3.76825 -5.44,-4.63761 -10.97397,-6.99277 -21.21254,-17.12141 -28.6236,-28.31628 -9.0734,-13.70592 -14.213272,-27.95203 -16.221163,-44.96 -0.824348,-6.98268 -0.318405,-22.45164 0.892069,-27.27455 0.164029,-0.65354 0.06762,-0.72545 -0.972614,-0.72545 -0.63508,0 -1.154691,0.0524 -1.154691,0.11633 0,0.064 -0.134441,0.82523 -0.298758,1.69167 -0.164317,0.86644 -0.542018,4.23409 -0.839335,7.48367 -2.206989,24.12168 4.73365,49.4091 19.055992,69.42833 8.02009,11.21018 18.86985,21.26606 30.4021,28.17755 2.57751,1.54476 8.74827,4.768 9.12,4.76376 0.176,-0.002 -0.4,-0.59663 -1.28,-1.32139 z m 62.77715,-1.21554 c 0.61247,-0.007 1.3704,-0.94448 1.17512,-1.45336 -0.148,-0.38569 -0.33965,-0.34077 -1.06353,0.24926 -0.48565,0.39585 -1.15429,0.90578 -1.48587,1.13319 -0.55568,0.3811 -0.54025,0.40023 0.19713,0.24437 0.44,-0.093 0.96972,-0.17106 1.17715,-0.17346 z m -4.05575,-1.1254 c 2.48571,-1.82468 5.29101,-5.01598 16.14465,-18.36613 3.49317,-4.29666 8.92287,-11.55915 9.95514,-13.3155 0.92963,-1.58172 0.9379,-1.63961 0.84547,-5.91735 -0.0513,-2.376 -0.27993,-6.336 -0.50798,-8.8 -0.23982,-2.59115 -0.30091,-4.7943 -0.14489,-5.22547 0.14836,-0.41002 2.18012,-2.71402 4.51502,-5.12 2.3349,-2.40599 12.24741,-12.72653 22.02779,-22.93453 17.52332,-18.28946 17.82407,-18.58287 20.63296,-20.12947 1.56775,-0.86321 3.90544,-2.30132 5.19488,-3.1958 2.08551,-1.44671 2.4636,-1.87418 3.42351,-3.87053 1.40127,-2.91425 2.05774,-5.44038 2.28965,-8.81075 0.17157,-2.49326 0.11771,-2.86452 -0.62944,-4.33894 -0.92418,-1.8238 -3.08325,-4.72561 -4.34462,-5.83924 -0.46395,-0.4096 -1.4734,-1.02415 -2.24324,-1.36565 -1.72851,-0.76677 -6.90388,-1.56962 -10.11819,-1.56962 -1.8347,0 -2.40211,-0.10482 -2.40211,-0.44376 0,-1.23308 10.00515,-1.78747 13.4679,-0.74626 2.14408,0.64471 4.21395,2.36737 6.18183,5.14488 2.99199,4.22296 3.568,6.21102 3.04525,10.51042 -0.67492,5.55084 -2.98149,10.71734 -5.8872,13.18676 -0.88428,0.7515 -3.11978,2.24565 -4.96778,3.32034 -4.54139,2.641 -3.99335,2.17759 -9.98337,8.44183 l -5.33316,5.57731 -0.22855,8.96264 -0.22854,8.96264 -2.20633,1.56008 c -2.53911,1.79537 -4.86268,4.182 -4.639,4.76489 0.0843,0.21967 0.3249,1.47014 0.53467,2.77882 l 0.38141,2.37941 -1.76972,4.83757 c -2.34525,6.41079 -6.96804,18.36348 -8.01859,20.73284 -0.98196,2.21468 -3.27331,5.13281 -7.4345,9.46818 -1.64687,1.71581 -2.99432,3.25352 -2.99432,3.41714 0,0.45884 8.26055,8.537 10.21692,9.99134 2.05444,1.52723 2.63783,1.66083 11.50787,2.63532 l 6.52478,0.71684 0.56977,-0.70363 c 2.42308,-2.99239 11.61025,-23.44447 13.5724,-30.21432 0.5868,-2.02457 0.60041,-1.88051 -0.9446,-10.00128 -1.38493,-7.27936 -1.48192,-6.13046 1.5398,-18.24 2.55887,-10.25462 7.34981,-29.8109 9.56411,-39.04 0.54895,-2.288 1.33283,-4.79211 1.74194,-5.56468 1.12366,-2.12193 2.88605,-7.8676 3.31131,-10.79539 0.4727,-3.25441 0.10503,-5.30198 -1.61674,-9.00385 -2.16037,-4.64485 -6.18898,-8.01188 -10.46218,-8.74408 -1.01496,-0.17391 -3.00232,-0.31992 -4.41636,-0.32448 -3.03677,-0.01 -6.19298,0.96221 -15.18902,4.67763 l -5.6,2.31284 -5.6,0.36212 c -3.08,0.19917 -9.488,0.50242 -14.24,0.67388 -26.67601,0.96253 -36.68086,1.37919 -38.4,1.59917 -4.06159,0.51973 8.94673,0.33306 14.37646,-0.2063 6.53957,-0.6496 9.26152,-0.39955 11.6369,1.06903 1.96125,1.21255 2.21322,1.98498 1.73179,5.30881 -0.50977,3.51947 -3.03647,13.63606 -3.78675,15.16167 -0.47468,0.9652 -1.52466,1.83379 -5.0784,4.20105 -6.05615,4.03421 -14.75483,9.46462 -16.58576,10.35416 -0.82183,0.39927 -1.49424,0.81496 -1.49424,0.92375 0,0.56115 3.90051,1.26528 8.64,1.55971 8.59473,0.53393 14.88521,0.733 16.07987,0.50888 0.99748,-0.18712 1.40501,-0.6314 3.76262,-4.10189 7.1765,-10.56406 13.48748,-18.15499 17.60925,-21.18064 3.0364,-2.22893 3.42261,-1.07211 0.68299,2.04578 -2.27237,2.58613 -8.24904,10.35131 -11.97833,15.56283 -2.50005,3.4937 -10.64866,15.91992 -12.7981,19.51643 -0.48494,0.81141 -1.33747,1.72016 -1.89451,2.01943 -1.98452,1.0662 -6.19564,3.9593 -6.90379,4.74301 -0.62524,0.69195 -0.72,1.14755 -0.72,3.46174 v 2.66491 l -4.4,5.1069 c -21.15193,24.55015 -21.6666,25.10639 -25.84,27.92681 -2.44797,1.65437 -6.97272,5.33345 -7.15297,5.81611 -0.16087,0.43075 1.6969,5.00997 3.48953,8.60137 0.96529,1.93387 1.99221,3.47812 2.79559,4.20393 3.64392,3.29206 17.30782,11.36129 19.38498,11.44782 0.15242,0.006 0.96434,-0.49292 1.80427,-1.10948 z M 93.134233,255.47161 c -0.540098,-2.61338 -2.673337,-12.16144 -4.74053,-21.2179 l -3.758534,-16.4663 -2.717584,-0.42327 c -4.447823,-0.69274 -28.61009,-3.8983 -28.700726,-3.80766 -0.156686,0.15669 2.743022,28.99973 2.948961,29.33294 0.270243,0.43726 6.454113,3.51674 20.154181,10.03649 6.16,2.93149 12.64,6.02922 14.4,6.88385 2.788231,1.35391 3.212625,1.48049 3.298115,0.98366 0.05396,-0.31361 -0.343784,-2.70843 -0.883883,-5.32181 z M 137.92,253.22802 c 0,-0.11659 -0.43392,-0.8882 -0.96428,-1.71468 -0.53035,-0.82649 -1.53835,-2.8263 -2.24,-4.44402 -1.20599,-2.78055 -1.27572,-3.11593 -1.27572,-6.1356 0,-1.98119 0.16654,-3.59286 0.43853,-4.24382 0.48492,-1.16057 3.17521,-3.58962 5.16147,-4.66024 0.704,-0.37947 2,-1.13978 2.88,-1.68958 0.88,-0.5498 2.60123,-1.35238 3.82495,-1.7835 3.8446,-1.35449 10.27492,-0.87197 14.45554,1.08471 1.88638,0.88289 2.48912,1.68477 5.32542,7.08484 1.84949,3.52127 1.93345,3.62366 2.83006,3.4514 0.50822,-0.0976 1.33005,-0.25526 1.82629,-0.35027 0.78345,-0.15 1.04241,-0.51873 1.96645,-2.8 1.79539,-4.4325 2.31364,-5.3868 3.08454,-5.6799 0.4568,-0.17367 2.15442,-0.10506 4.45168,0.17992 l 3.71332,0.46064 2.50664,-1.26032 2.50665,-1.26031 11.95423,-13.81692 c 6.57483,-7.5993 12.34438,-14.26544 12.82123,-14.81364 0.70326,-0.80849 0.86945,-1.3179 0.88,-2.6974 0.0216,-2.83151 1.01188,-4.61437 3.65985,-6.58942 1.25024,-0.93251 2.96861,-2.09712 3.81861,-2.58802 0.85,-0.49089 1.87293,-1.41214 2.27317,-2.04721 0.40025,-0.63507 1.6128,-2.55979 2.69455,-4.27714 1.08175,-1.71736 1.96682,-3.19336 1.96682,-3.28 0,-0.0866 -1.512,-0.15754 -3.36,-0.15754 h -3.36 v 2.28955 c 0,2.23769 -0.0276,2.3156 -1.21965,3.44 -0.6708,0.63275 -2.74635,2.19445 -4.61232,3.47045 -3.85633,2.63706 -4.15888,2.69853 -8.36972,1.70043 -2.66648,-0.63204 -3.91155,-1.3376 -4.64751,-2.63369 -0.80439,-1.4166 -0.25592,-2.30179 2.76997,-4.47054 3.12822,-2.24209 3.26743,-2.386 3.27433,-3.38494 0.006,-0.80337 -0.61228,-1.20523 -2.2351,-1.45375 -1.51516,-0.23203 -11.77185,-4.27655 -12.91129,-5.09131 -0.5012,-0.35839 -1.03024,-0.5289 -1.17564,-0.37891 -0.14539,0.14999 -1.15203,2.21671 -2.23696,4.59271 -3.53382,7.73903 -5.08782,10.54071 -5.96927,10.76194 -1.31008,0.32881 -3.45269,-0.12082 -7.07371,-1.48443 -4.92694,-1.8554 -5.02484,-1.98397 -5.83205,-7.65898 -0.36154,-2.54181 -0.71722,-4.68133 -0.79039,-4.7545 -0.0732,-0.0732 -0.56505,0.81977 -1.09307,1.98431 -1.02703,2.26505 -1.52878,2.68369 -2.55696,2.13342 -0.53107,-0.28422 -0.92342,-0.1737 -2.15404,0.60673 -0.82758,0.52484 -1.9921,1.11511 -2.58782,1.31171 -1.44288,0.4762 -2.32163,-0.10681 -3.5136,-2.33106 L 157.92,176.16 l -2.27206,-0.20308 c -1.24964,-0.1117 -2.57994,-0.36786 -2.95623,-0.56924 -0.88848,-0.4755 -1.14567,-1.57145 -0.72572,-3.0924 0.18517,-0.67061 0.27052,-1.28543 0.18969,-1.36627 -0.16112,-0.16112 -9.36768,3.20128 -15.83568,5.78348 -5.17406,2.06562 -7.92734,2.80751 -10.41908,2.80751 -1.31428,0 -2.63965,-0.12758 -2.94526,-0.28352 -0.30561,-0.15594 -1.31105,-0.61227 -2.2343,-1.01406 -1.19909,-0.52184 -2.57034,-1.62704 -4.8,-3.86868 -1.71675,-1.72598 -3.2735,-3.14165 -3.45945,-3.14594 -0.18594,-0.004 -1.8161,0.5682 -3.62256,1.2722 -3.60804,1.4061 -4.95103,1.5445 -7.57773,0.78089 -2.027344,-0.58936 -2.752,-1.35488 -4.493315,-4.74666 -0.686567,-1.33732 -1.377228,-2.4321 -1.534802,-2.43285 -0.545219,-0.003 0.03425,15.16505 0.76313,19.97502 0.371416,2.45101 0.761893,4.5965 0.867728,4.76774 0.105834,0.17124 0.240054,0.84012 0.298267,1.48638 0.155862,1.73036 1.562989,6.99119 3.041022,11.36948 6.47936,19.19344 18.23052,35.50848 34.15431,47.41908 2.98304,2.23124 3.56204,2.57729 3.56204,2.12894 z m 89.15041,-4.6226 c 0.33527,-0.37103 1.27939,-1.01425 2.09802,-1.4294 0.81864,-0.41514 1.8011,-1.15558 2.18324,-1.64541 0.94478,-1.21102 4.45921,-3.9111 5.3971,-4.1465 0.41869,-0.10508 1.78949,-0.10199 3.04624,0.007 l 2.28499,0.19793 2.96052,-3.05017 c 3.70321,-3.81537 4.37273,-5.15744 9.71034,-19.46456 l 3.92691,-10.52582 -0.36365,-2.88093 c -0.28992,-2.29692 -0.27906,-3.08228 0.0536,-3.87418 0.22947,-0.54629 1.80476,-2.21725 3.50065,-3.71325 l 3.08343,-2.72 0.004,-4.19305 c 0.002,-2.30619 0.0966,-5.07819 0.20971,-6.16 0.12453,-1.19143 0.0839,-1.96695 -0.10296,-1.96695 -0.29229,0 -24.96706,25.53578 -27.26834,28.21986 l -1.08572,1.26632 0.54127,7.27802 c 0.60814,8.17728 0.42435,10.70741 -0.94821,13.05366 -0.98416,1.68232 -4.78107,6.80181 -8.69899,11.72912 -2.80904,3.53274 -2.97196,3.8167 -2.42691,4.22982 0.80859,0.61287 1.18809,0.57054 1.89468,-0.21138 z M 51.760001,243.63831 c 0.642012,-0.17205 0.717785,-0.38821 0.699551,-1.99563 -0.01125,-0.99147 -0.623246,-7.84045 -1.36,-15.21996 l -1.339551,-13.41729 -0.878472,-0.23463 c -0.483159,-0.12905 -0.933815,-0.13927 -1.001459,-0.0227 -0.06764,0.11655 0.287583,4.74791 0.789393,10.29191 0.501809,5.544 1.068339,12.312 1.258955,15.04 0.438087,6.26969 0.335766,5.95918 1.831583,5.55831 z M 46.719387,238.16 c -0.0034,-1.32567 -2.258486,-25.48576 -2.391227,-25.6185 -0.165136,-0.16514 -3.448278,-0.68454 -3.594163,-0.56861 -0.0363,0.0289 0.431175,5.51875 1.038839,12.19979 0.607664,6.68103 1.105366,12.17144 1.106004,12.20091 0.0026,0.1196 3.378808,2.01282 3.601161,2.01936 0.132,0.004 0.239724,-0.10094 0.239386,-0.23295 z M 181.6276,235.47534 c 0.29472,-0.47686 0.10465,-0.5554 -1.92003,-0.79336 l -1.85963,-0.21856 0.23389,1.08829 c 0.12864,0.59856 0.36896,1.34597 0.53405,1.66092 0.27572,0.52601 0.40251,0.49155 1.5577,-0.42338 0.69165,-0.54779 1.34596,-1.13905 1.45402,-1.31391 z m -142.316486,0.84193 c 0.06111,-0.5265 -0.367813,-6.26182 -0.953167,-12.74516 -0.934372,-10.34905 -1.134277,-11.82536 -1.637727,-12.0948 -0.315395,-0.1688 -0.685157,-0.23786 -0.821692,-0.15348 -0.136535,0.0844 0.218101,4.37504 0.78808,9.5348 0.569979,5.15976 1.044666,10.7736 1.054859,12.4752 0.01019,1.70161 0.108653,3.32868 0.218798,3.61571 0.32568,0.84871 1.227966,0.42639 1.350849,-0.63227 z M 34.428839,230.48 c -0.105169,-0.836 -0.554032,-5.048 -0.997473,-9.36 -0.443441,-4.312 -0.910906,-8.21293 -1.038811,-8.66874 L 32.16,211.62251 29.669322,212.0502 c -1.369874,0.23523 -3.051135,0.71362 -3.736136,1.06308 -1.11318,0.5679 -1.283618,0.8192 -1.604764,2.36616 -0.75594,3.64134 1.299655,9.75455 4.24531,12.62528 1.310097,1.27677 5.148499,3.85772 5.776297,3.88399 0.148515,0.006 0.18398,-0.67271 0.07881,-1.50871 z M 288.19431,206.14427 c 2.39608,-7.15447 4.34703,-16.20306 4.73997,-21.98427 0.14727,-2.16663 -0.41297,-0.22436 -3.64596,12.64 -2.10098,8.36 -3.81617,15.488 -3.81154,15.84 0.0125,0.94509 1.08078,-1.60857 2.71753,-6.49573 z M 214.31208,185.7286 c 4.55506,-3.07475 4.65998,-3.19209 4.40611,-4.92741 -0.11596,-0.79265 -0.30699,-1.54048 -0.42451,-1.66184 -0.11752,-0.12136 -1.58168,-0.24951 -3.25368,-0.28477 l -3.04,-0.0641 -0.0227,1.24477 c -0.0372,2.04185 -0.34899,2.49513 -3.0435,4.42428 -1.41702,1.01452 -2.4847,1.93816 -2.37263,2.05253 0.16988,0.17338 3.6306,1.19563 4.39088,1.29701 0.12764,0.017 1.63964,-0.91919 3.36,-2.08046 z m -31.0754,-10.07552 c 0.0202,-5.00119 -0.031,-9.70508 -0.11361,-10.45308 -0.14246,-1.28918 -0.20427,-1.36 -1.18691,-1.36 -0.76514,0 -1.80428,0.54917 -3.96798,2.097 -1.61225,1.15334 -3.43465,2.30728 -4.04977,2.56429 -1.29634,0.54165 -1.24359,0.40096 -0.66739,1.77999 0.24806,0.59369 0.7555,3.23927 1.12765,5.87908 0.85896,6.09299 0.86656,6.12459 1.53857,6.39807 2.14801,0.87413 6.69938,2.36929 6.96276,2.28732 0.20235,-0.063 0.33349,-3.44281 0.35668,-9.19267 z m 4.72884,-0.67678 c 1.33897,-2.93903 2.43448,-5.49056 2.43448,-5.67005 0,-0.1795 -0.9,-1.55401 -2,-3.05446 -1.48062,-2.01965 -2.18697,-2.72859 -2.72,-2.72995 l -0.72,-0.002 v 8.26667 c 0,7.06723 0.11423,9.03959 0.49885,8.61333 0.0397,-0.044 1.16771,-2.48466 2.50667,-5.4237 z m -18.88105,-0.44951 c 1.10928,-2.33583 1.43528,-3.64679 0.90685,-3.64679 -0.26777,0 -2.95132,5.24168 -2.95132,5.76471 0,0.17341 0.20001,0.31529 0.44447,0.31529 0.24446,0 0.96446,-1.09494 1.6,-2.43321 z m -5.74729,1.39321 c 0.44707,-0.396 1.59273,-2.26632 2.5459,-4.15626 l 1.73305,-3.43627 -1.16806,-0.30904 c -4.48098,-1.18557 -3.8575,-1.18728 -7.28996,0.02 -2.57914,0.90714 -3.16437,1.23197 -3.19229,1.77184 -0.0188,0.36359 -0.13515,1.06335 -0.25856,1.55504 -0.27992,1.11529 0.14952,1.42325 1.99378,1.42979 1.88438,0.007 2.48544,0.4027 3.42478,2.25639 0.44273,0.87368 0.93851,1.58851 1.10173,1.58851 0.16322,0 0.66255,-0.324 1.10963,-0.72 z m -35.01808,-2.08 c -8.2e-4,-1.96586 -0.57632,-7.78713 -0.79238,-8.01501 -0.11978,-0.12634 -9.99827,2.34214 -11.1396,2.7836 -1.16356,0.45007 -0.95803,0.82276 2.06318,3.74116 3.26303,3.15199 4.14294,3.55646 7.8697,3.6175 l 2,0.0327 z m 6.53193,-0.37967 c 17.5302,-6.61069 26.07174,-9.62033 27.30309,-9.62033 0.60459,0 2.27524,0.30085 3.71257,0.66854 3.93326,1.00622 5.89085,1.26698 6.83024,0.90982 0.45336,-0.17237 2.05442,-1.20144 3.55791,-2.28682 1.72,-1.24169 3.33262,-2.1288 4.34912,-2.39248 2.92017,-0.75748 10.55701,-0.41318 16.39474,0.73915 4.40219,0.86897 4.41652,1.50158 0.0428,1.88874 l -2.53349,0.22427 1.706,1.24128 c 3.08692,2.24604 4.57883,2.80321 9.35826,3.49494 l 4.43416,0.64175 4.83679,-3.09932 c 2.66024,-1.70463 6.29906,-4.0767 8.08627,-5.27127 3.23572,-2.16276 3.25226,-2.18048 3.90701,-4.18528 0.95779,-2.9327 2.50522,-9.28347 3.09563,-12.70469 0.59541,-3.45025 0.46282,-3.771 -1.9379,-4.68784 -1.5059,-0.57511 -0.007,-0.59538 -23.03422,0.31149 -12.17468,0.47948 -19.24632,1.16806 -20.8,2.02535 -0.352,0.19422 -1.288,1.02376 -2.08,1.84342 -0.792,0.81966 -1.8,1.67974 -2.24,1.91131 -1.09704,0.57735 -20.86944,0.98413 -25.76,0.52997 -3.48643,-0.32377 -3.53115,-0.31921 -4.68972,0.47793 l -1.16971,0.80481 -15.4437,-0.34245 c -8.49403,-0.18835 -15.49567,-0.29048 -15.55919,-0.22696 -0.0635,0.0635 1.05283,1.25148 2.48078,2.63992 3.17213,3.08434 5.26804,5.86917 6.95751,9.24442 1.84696,3.6899 2.50795,5.93829 2.91628,9.92 0.19854,1.936 0.44036,4.276 0.53739,5.2 0.097,0.924 0.26102,1.68 0.36442,1.68 0.1034,0 2.07304,-0.71085 4.37697,-1.57967 z m 71.51002,-2.33838 1.79895,-1.03804 -3.04,-0.42208 c -1.672,-0.23214 -3.76,-0.64205 -4.64,-0.91091 -1.40785,-0.43013 -5.01278,-2.64382 -7.59476,-4.66372 -1.54234,-1.20659 -1.26857,-0.40908 0.71079,2.07059 1.81557,2.27448 2.10104,2.49019 4.94751,3.73855 3.13408,1.3745 5.25324,2.20226 5.73751,2.24112 0.15458,0.0124 1.09058,-0.44458 2.08,-1.01551 z m -99.74523,-1.48761 c 1.2893,-0.50912 3.49618,-1.17726 4.90418,-1.48477 1.408,-0.30751 3.928,-0.9634 5.6,-1.45753 1.672,-0.49414 4.58639,-1.28336 6.47641,-1.75383 3.98129,-0.99103 3.86936,-0.71761 1.98585,-4.85092 -1.59461,-3.49934 -4.0803,-6.85462 -7.41874,-10.0141 l -3.01047,-2.84911 0.3452,-5.26136 c 0.18987,-2.89374 0.25497,-5.49653 0.14467,-5.78396 -0.1103,-0.28743 -0.65721,-0.71341 -1.21537,-0.94662 -0.59152,-0.24716 -3.2115,-2.78732 -6.28119,-6.08984 l -5.26636,-5.66582 -1.6947,0.16016 c -1.983737,0.18747 -9.665299,2.67262 -9.665299,3.12692 0,0.17081 -1.296,1.67097 -2.88,3.3337 -2.824885,2.9653 -2.87939,3.05224 -2.848102,4.54295 0.01754,0.83588 0.130788,1.87451 0.251654,2.30805 l 0.219757,0.78825 0.876201,-1.14876 c 0.736246,-0.96526 1.424419,-1.34177 4.308346,-2.35712 1.887679,-0.66459 3.576144,-1.30947 3.752144,-1.43306 0.176,-0.12359 0.784429,-0.38087 1.352065,-0.57173 0.965329,-0.32457 1.441247,-0.14324 7.360004,2.80428 3.48036,1.73321 6.90393,3.30844 7.60793,3.5005 2.14747,0.58588 2.16891,0.62333 1.91401,3.34345 -0.25942,2.76841 -0.64789,2.92682 -0.96444,0.39329 l -0.21522,-1.72256 -1.48717,-0.39465 c -0.81795,-0.21706 -3.43118,-1.41362 -5.80718,-2.65903 -2.376,-1.24541 -4.98885,-2.60525 -5.806335,-3.02185 l -1.486336,-0.75747 -4.113664,1.34652 c -3.698317,1.21056 -4.248903,1.48988 -5.453096,2.76644 -1.088403,1.15381 -1.433246,1.83239 -1.84,3.62075 -0.275313,1.21046 -0.500568,3.17321 -0.500568,4.36166 0,2.43027 0.188663,2.42159 1.576036,-0.0725 0.686227,-1.23362 1.091427,-1.57554 2.423964,-2.04546 0.88,-0.31032 2.527304,-0.94335 3.660676,-1.40673 1.133372,-0.46338 2.489505,-0.84251 3.013627,-0.84251 0.524123,0 2.836819,0.81759 5.139326,1.81687 2.3025,0.99928 5.12237,1.97866 6.26637,2.1764 1.77436,0.30669 2.14171,0.48718 2.49993,1.22827 0.6162,1.2748 0.66277,3.57846 0.0723,3.57846 -0.41097,0 -0.72214,-0.46175 -1.61734,-2.4 -0.12556,-0.27185 -0.83166,-0.55699 -1.62831,-0.65756 -0.77364,-0.0977 -3.47747,-1.09411 -6.00852,-2.21434 -4.315712,-1.91011 -4.663968,-2.01154 -5.599998,-1.63101 -0.548956,0.22317 -2.073114,0.75973 -3.387019,1.19235 -1.313904,0.43263 -2.586049,0.9502 -2.826988,1.15016 -0.240939,0.19996 -0.910365,1.30785 -1.487612,2.46198 -0.980355,1.9601 -1.033467,2.2315 -0.80569,4.11712 0.145679,1.20598 0.47567,2.27485 0.819668,2.65496 0.566412,0.62588 0.585645,0.6112 1.177486,-0.89869 1.227198,-3.13081 1.986583,-3.27705 7.069793,-1.36152 2.054882,0.77435 4.27268,1.37191 5.52616,1.48897 2.18622,0.20415 2.84629,0.71298 1.99986,1.54166 -0.33642,0.32937 -0.93146,0.37581 -2.45999,0.19201 -1.10893,-0.13335 -2.067413,-0.15963 -2.129972,-0.0584 -0.06256,0.10122 -0.301691,1.89745 -0.531402,3.99162 l -0.417658,3.80758 1.589484,3.07156 c 1.545058,2.98572 1.629678,3.08202 3.027628,3.44581 0.79098,0.20584 1.46327,0.38584 1.49397,0.4 0.0307,0.0142 1.1107,-0.3908 2.4,-0.89991 z m 41.60988,-26.79987 1.2201,-0.84553 4.60454,0.36553 c 4.97263,0.39475 9.57019,0.47834 9.86909,0.17943 0.10236,-0.10235 -0.0176,-0.67373 -0.26666,-1.26972 -0.98603,-2.3599 -0.25267,-6.96361 1.40479,-8.81862 0.75689,-0.8471 1.1845,-1.00859 3.42368,-1.29295 1.40732,-0.17872 3.99983,-0.27482 5.76114,-0.21356 4.14148,0.14403 4.85797,0.55026 6.95092,3.94095 0.86911,1.408 1.68334,2.66798 1.8094,2.79995 0.37437,0.39193 8.71601,-0.92355 10.2773,-1.62074 1.40718,-0.62836 8.79161,-1.97921 10.81939,-1.97921 0.56134,0 1.02061,-0.0925 1.02061,-0.2055 0,-0.11302 -0.29446,-1.19426 -0.65436,-2.40274 -0.36905,-1.23917 -0.54346,-2.38372 -0.4,-2.62492 0.1399,-0.23522 1.35768,-1.38486 2.70618,-2.55475 5.28807,-4.58766 9.22818,-9.86413 9.22818,-12.35808 0,-4.27587 -4.89949,-8.71035 -11.52,-10.42662 -2.40206,-0.62271 -7.24585,-0.46416 -10.24,0.33516 -2.67203,0.71333 -2.56,0.81211 -2.56,-2.25709 0,-2.455039 -0.078,-2.81256 -0.76321,-3.497764 -2.11216,-2.112154 -7.85226,-1.680839 -11.71679,0.880408 -0.792,0.524904 -3.24546,2.807886 -5.45214,5.073286 l -4.01214,4.11891 -4.25956,-1.28131 c -4.56239,-1.37241 -10.60105,-2.24269 -15.50668,-2.23478 -3.26038,0.005 -8.07377,0.97773 -10.34894,2.09087 -3.34868,1.63836 -7.1573,6.06323 -7.13351,8.28775 0.0124,1.15539 1.11114,3.14209 3.62428,6.553 1.34678,1.82789 2.44869,3.46202 2.44869,3.63141 0,0.16939 -0.98851,1.40705 -2.19669,2.75037 -4.38655,4.87718 -7.11937,9.03973 -8.58411,13.07503 -0.55125,1.51868 -0.63615,2.0657 -0.33776,2.17635 0.21921,0.0813 3.78256,0.18731 7.91856,0.2356 4.136,0.0483 8.44826,0.12101 9.5828,0.16161 1.77762,0.0636 2.23148,-0.0431 3.2829,-0.77173 z m -25.03497,-0.82294 c 0.60336,-0.37681 1.38012,-2.40564 1.09664,-2.86433 -0.0908,-0.14696 -0.0294,-0.2672 0.13642,-0.2672 0.29434,0 0.75137,-1.02676 0.82499,-1.8534 0.0203,-0.22737 0.23401,-0.53527 0.47502,-0.68422 0.25519,-0.15772 0.33361,-0.44005 0.18776,-0.67604 -0.16306,-0.26383 -0.12154,-0.32555 0.119,-0.17689 0.20319,0.12558 0.36944,0.0606 0.36944,-0.14451 0,-0.36868 1.56667,-2.49507 2.62911,-3.56842 0.30202,-0.30511 0.9363,-1.17164 1.40952,-1.92563 0.47322,-0.75399 1.62041,-2.23981 2.54932,-3.30182 l 1.68893,-1.93093 -1.14778,-1.10907 c -1.65409,-1.5983 -3.55013,-4.64773 -4.12996,-6.64227 -0.89465,-3.07747 0.28061,-5.97339 3.89054,-9.58662 3.63353,-3.63684 7.30687,-5.00406 14.54798,-5.41475 4.96901,-0.28183 12.56277,0.7526 18.22667,2.48286 l 2.06433,0.63063 3.21567,-3.32337 c 5.13623,-5.308241 7.42421,-6.848345 11.53567,-7.765 3.83643,-0.855335 7.93038,-0.35841 9.91619,1.203628 1.08137,0.850604 2.06731,2.931483 2.07678,4.383146 0.006,0.966896 0.0808,1.055126 0.72703,0.860756 0.396,-0.11911 2.30436,-0.29842 4.2408,-0.398461 3.00615,-0.155307 3.89488,-0.07932 6.08,0.519881 5.32526,1.46026 10.25826,4.96655 12.18624,8.66175 0.79852,1.53046 0.91863,2.11374 0.9253,4.49356 0.0112,3.98802 -1.08526,6.03488 -5.74975,10.73375 -1.93742,1.95171 -4.05284,3.96771 -4.70093,4.48 l -1.17834,0.93144 0.6371,2.02331 0.63711,2.02331 3.58123,-0.18743 c 1.96968,-0.10308 9.48524,-0.39835 16.70124,-0.65616 22.02262,-0.78679 22.15985,-0.79545 22.96601,-1.44905 0.39269,-0.31839 0.64039,-0.65288 0.55043,-0.74333 -0.09,-0.0904 -1.50836,-0.39776 -3.152,-0.68294 -5.62701,-0.9763 -6.57063,-1.82951 -7.58115,-6.8548 -1.00899,-5.01769 -0.0649,-7.86442 3.48112,-10.49667 3.18273,-2.36259 6.21065,-3.5907 10.89047,-4.41712 3.03419,-0.53581 4.2852,-0.89698 4.76342,-1.37519 l 0.64855,-0.64855 -3.67311,-3.63582 c -2.02021,-1.9997 -5.06061,-4.763278 -6.75644,-6.141282 l -3.08333,-2.505462 -1.68698,0.417387 c -2.95791,0.731835 -6.09799,0.520408 -9.65829,-0.65031 -5.29768,-1.742017 -7.67469,-2.980575 -9.99747,-5.209264 C 224.04358,86.049422 223.68,85.341665 223.68,82.747702 v -2.084083 l -3.92,-1.252051 c -4.96447,-1.585657 -7.32009,-2.111199 -8.32852,-1.858101 -0.43829,0.110004 -1.83089,0.998921 -3.09468,1.975369 -1.26378,0.976449 -2.68456,1.851556 -3.15729,1.944682 -1.39609,0.275026 -5.8457,-0.402567 -6.42092,-0.977787 -0.39965,-0.399653 -0.49537,-1.043368 -0.42554,-2.861932 l 0.0901,-2.346302 -1.21157,-0.200226 c -1.57321,-0.25999 -10.64248,-0.260457 -12.8053,-6.58e-4 -1.62526,0.195226 -1.67923,0.234526 -1.86406,1.357218 -0.10468,0.635894 -0.43435,2.01544 -0.73258,3.065657 -0.51958,1.829642 -0.59551,1.921291 -1.81594,2.191764 -0.70054,0.155252 -4.8017,1.142364 -9.1137,2.193583 -4.312,1.051219 -8.29901,1.915326 -8.86002,1.920237 -1.06954,0.0094 -5.51087,-0.887009 -6.73115,-1.358515 -0.39114,-0.151134 -0.80276,-0.639687 -0.91469,-1.085673 -0.11194,-0.445985 -0.3826,-0.810882 -0.60148,-0.810882 -1.18204,0 -13.93266,6.870123 -13.93266,7.507014 0,0.189431 0.36,0.874207 0.8,1.521726 0.44,0.647518 0.8,1.391377 0.8,1.653019 0,0.584835 -4.81365,5.72413 -6.53123,6.973069 l -1.25123,0.90983 -3.87938,-0.20739 -3.87938,-0.20739 -3.24338,3.32506 c -3.08989,3.16769 -4.62995,4.95135 -7.22808,8.37135 l -1.1595,1.52629 0.72267,1.06491 c 0.41254,0.60791 1.37275,3.52339 2.23751,6.79371 0.83316,3.15084 1.94288,7.0968 2.46603,8.7688 1.24357,3.97447 1.24045,5.69063 -0.014,7.72942 -1.01177,1.64434 -1.24866,3.36694 -0.56,4.07227 0.45882,0.46993 3.12476,0.24061 4.07073,-0.35016 z m 44.48927,0.58755 c 0,-0.0665 -0.216,-0.63788 -0.48,-1.26972 -0.54997,-1.31626 -0.6401,-4.75228 -0.14874,-5.67039 0.65067,-1.2158 0.94874,-0.59271 0.94874,1.98326 0,2.09074 0.13301,2.81744 0.67669,3.69713 0.5964,0.965 0.8147,1.08338 1.84,0.99777 1.05061,-0.0877 1.20858,-0.22807 1.63054,-1.44869 0.25697,-0.74336 0.63512,-1.41599 0.84034,-1.49474 0.20521,-0.0787 1.36296,0.10578 2.57277,0.41005 2.10321,0.52897 2.20406,0.59802 2.29994,1.57474 0.0551,0.56183 0.20407,1.02151 0.33093,1.02151 0.12686,0 0.97446,-0.756 1.88356,-1.68 l 1.65291,-1.68 -1.44449,-2.4 c -2.34926,-3.90323 -2.22328,-3.84082 -7.74103,-3.83528 -3.14324,0.003 -4.96738,0.13871 -5.50216,0.40888 -1.43344,0.72417 -2.54861,4.09026 -2.11508,6.38427 0.29144,1.54218 1.3594,3.12213 2.11038,3.12213 0.35459,0 0.6447,-0.0544 0.6447,-0.12092 z m 8.82211,-0.55485 c 0.27663,-0.4476 -0.30911,-0.81679 -1.71405,-1.08036 -1.23752,-0.23216 -1.19159,-0.25424 -1.48987,0.71613 -0.20911,0.68029 -0.13292,0.72 1.38136,0.72 0.88148,0 1.70163,-0.1601 1.82256,-0.35577 z m -59.82656,-9.48365 c -0.44957,-1.36432 -1.53188,-5.33424 -2.40512,-8.82206 -0.87325,-3.48782 -1.74382,-6.52957 -1.93461,-6.75946 -0.73441,-0.8849 -8.86511,-1.74363 -12.3936,-1.30894 -1.84495,0.22728 -1.892636,0.26007 -5.142219,3.53488 -2.651684,2.67227 -3.28,3.48389 -3.28,4.2369 0,0.51229 0.06706,0.99849 0.149017,1.08045 0.08196,0.082 2.205959,-0.54024 4.72,-1.38268 4.630532,-1.55165 5.920252,-1.782 6.935432,-1.23869 0.3093,0.16553 2.91351,2.79353 5.78712,5.84 2.95465,3.13237 5.74961,5.80471 6.43274,6.15051 0.66439,0.33632 1.3004,0.91232 1.41337,1.28 0.12816,0.41713 0.26741,0.51832 0.37033,0.26909 0.0907,-0.21968 -0.20289,-1.51568 -0.65246,-2.88 z m 149.48629,-3.00138 c 5.97103,-2.51322 10.03363,-3.93266 12.6906,-4.434 2.11041,-0.3982 2.17917,-0.4429 3.31634,-2.15559 1.10069,-1.65777 1.13647,-1.79328 0.68618,-2.59928 -0.35626,-0.63767 -0.76771,-0.87487 -1.64525,-0.94847 -1.03714,-0.087 -1.25056,-0.26419 -1.87721,-1.55868 -0.41863,-0.86477 -1.14146,-1.71686 -1.77204,-2.08891 -1.05592,-0.62301 -1.06335,-0.64409 -0.87184,-2.47635 0.18963,-1.81421 0.17194,-1.86729 -0.96773,-2.90437 -0.63849,-0.58101 -1.16089,-1.26459 -1.16089,-1.51907 0,-0.25448 1.02183,-1.5165 2.27072,-2.80449 2.0376,-2.10139 2.24954,-2.43821 2.06445,-3.28092 -0.2775,-1.26345 -1.67986,-2.53207 -3.08421,-2.790077 -2.36665,-0.434792 -3.31392,0.149847 -8.61096,5.314447 -2.728,2.6598 -6.328,5.95274 -8,7.31764 -1.672,1.36489 -4.73413,4.22927 -6.80473,6.36528 -2.07061,2.136 -3.83461,3.88364 -3.92,3.88364 -0.30364,0 -0.12014,-2.09426 0.25917,-2.95792 0.21206,-0.48286 1.94386,-2.53486 3.84843,-4.56 1.90458,-2.02514 3.25175,-3.68208 2.99371,-3.68208 -1.08462,0 -4.67411,1.3393 -6.45658,2.40906 -4.00757,2.40516 -4.90807,3.98977 -4.32861,7.61703 0.18056,1.13023 0.54392,2.57106 0.80748,3.20184 0.54273,1.29894 1.16203,1.54141 5.40429,2.11593 1.61817,0.21915 3.11024,0.65702 4.16,1.22082 1.58259,0.84997 1.63684,0.92513 1.63684,2.26769 v 1.38857 l 2.4,-0.21082 c 1.9233,-0.16895 3.30611,-0.59221 6.96184,-2.13092 z M 113.43731,111.91317 c 1.47227,-2.08106 5.26344,-6.48622 8.30063,-9.64494 1.50813,-1.56848 2.74206,-2.947377 2.74206,-3.064222 0,-0.116845 -0.36254,-0.553034 -0.80565,-0.96931 l -0.80564,-0.756866 -1.45899,1.421085 c -2.26335,2.204563 -6.75468,7.392533 -9.34493,10.794403 -2.03893,2.67781 -2.2712,3.11341 -1.76622,3.31248 1.39475,0.54985 2.16692,0.28105 3.13874,-1.09263 z m 151.13607,-8.32528 c 0.74064,-0.75466 1.34662,-1.52491 1.34662,-1.71167 0,-0.37552 -5.01411,-5.289925 -8.42392,-8.256402 l -2.18392,-1.899978 -2.24583,0.778773 c -1.2352,0.428325 -2.3002,0.866758 -2.36666,0.974295 -0.0665,0.107537 1.35092,1.470069 3.14974,3.027849 1.79883,1.55778 4.49349,4.098383 5.98815,5.645783 1.49466,1.54741 2.86868,2.81346 3.05338,2.81346 0.18469,0 0.94179,-0.61745 1.68244,-1.37211 z M 135.28807,95.952094 c 1.18356,-1.082349 2.34499,-2.144555 2.58096,-2.360458 0.352,-0.32207 -0.34131,-1.563091 -3.86153,-6.912092 -7.68514,-11.677645 -7.9275,-12.077736 -7.9275,-13.086768 0,-0.157059 1.296,-1.833507 2.88,-3.72544 1.584,-1.891933 2.88,-3.606709 2.88,-3.810612 0,-0.475903 -2.226,-4.936723 -2.46348,-4.936723 -0.0986,0 -0.0789,1.01772 0.0436,2.261601 0.25061,2.543267 0.25734,2.529495 -3.19693,6.538399 -2.79186,3.24014 -3.04629,1.962025 2.73733,13.751211 2.81569,5.739448 5.11944,10.715911 5.11944,11.058806 0,0.400714 -0.62878,1.040931 -1.76,1.792021 -0.968,0.642716 -1.76,1.220187 -1.76,1.283269 0,0.06308 0.57963,0.114694 1.28807,0.114694 1.13118,0 1.55019,-0.239701 3.44,-1.967908 z m -5.29276,0.127908 c 1.18302,-0.836 2.15404,-1.693159 2.15782,-1.904797 0.004,-0.211639 -0.57437,-1.488437 -1.28478,-2.83733 -0.71041,-1.348893 -1.64891,-3.301323 -2.08555,-4.338733 -0.43664,-1.03741 -2.01539,-4.352783 -3.50834,-7.367496 -1.49295,-3.014713 -2.71446,-5.811707 -2.71446,-6.215543 0,-0.449428 1.05511,-2.013465 2.72,-4.031994 2.89868,-3.514384 3.0115,-3.821736 2.46156,-6.706186 l -0.22156,-1.162079 -4.26894,1.562079 c -5.09968,1.866059 -5.85579,1.924435 -7.13864,0.551138 -1.48457,-1.58923 -3.55393,-5.272728 -3.33295,-5.932707 0.10613,-0.316994 2.99573,-2.808353 6.42133,-5.536353 4.75767,-3.788808 6.22964,-5.13024 6.23378,-5.680967 0.005,-0.704732 -1.07471,-10.735162 -1.44781,-13.446296 l -0.18816,-1.367263 -4.05931,2.794536 c -17.68565,12.175288 -21.240041,15.044765 -25.510875,20.595034 -1.280407,1.663985 -1.457402,2.062472 -1.177763,2.651616 0.547551,1.153583 7.514148,9.649392 12.376598,15.093341 5.7307,6.416023 18.48069,21.123941 20.13234,23.223921 0.68179,0.866843 1.47477,1.576079 1.76218,1.576079 0.28742,0 1.49051,-0.684 2.67353,-1.52 z m 116.23106,-4.727367 c 6.57688,-1.258512 7.80474,-2.027906 9.92842,-6.221298 2.34617,-4.632711 2.54748,-5.502862 2.5567,-11.051335 0.008,-5.109183 0.006,-5.123549 -0.95149,-6.799675 -0.528,-0.923821 -1.068,-1.679821 -1.2,-1.68 -0.132,-1.79e-4 -0.24,0.548691 -0.24,1.219712 0,1.831237 -0.92094,11.277845 -1.47208,15.099963 -0.26648,1.848 -0.77064,3.958613 -1.12036,4.690251 -0.71947,1.505207 -1.16911,1.761026 -5.88756,3.34973 -2.69206,0.906419 -3.65714,1.077439 -6.08,1.077425 -3.02734,-1.8e-5 -3.04342,-0.0053 -11.97249,-3.908371 -0.3126,-0.136645 -0.37306,-0.06927 -0.19556,0.217941 0.35173,0.569107 4.38423,2.399032 7.77189,3.526838 3.22333,1.073097 5.19905,1.17984 8.86253,0.478819 z m 1.41237,-3.116186 c 3.43951,-1.127442 4.69869,-2.033346 5.14263,-3.699808 0.38448,-1.443294 1.51634,-11.577686 1.90049,-17.01664 0.26137,-3.700535 0.2353,-4.078164 -0.34827,-5.044048 -0.72843,-1.20565 -1.03275,-1.393385 -3.98848,-2.46047 -4.75341,-1.716082 -8.07964,-4.153251 -8.6912,-6.368142 -0.41283,-1.495142 0.0536,-3.630619 1.42337,-6.516106 1.26529,-2.665458 2.47724,-3.749075 4.78191,-4.275545 1.501,-0.342882 1.70564,-0.304011 4.05313,0.769891 1.35977,0.622053 3.64274,1.941808 5.07326,2.93279 1.43051,0.990981 2.64946,1.753261 2.70876,1.693955 0.26176,-0.261752 1.74342,-9.277062 1.57064,-9.556634 -0.62302,-1.008064 -9.94998,-5.022396 -12.63819,-5.439485 -4.06676,-0.630979 -8.36391,0.551565 -11.14963,3.068292 -2.72011,2.457456 -6.18009,8.750639 -6.63472,12.067571 -0.26273,1.916799 0.25394,3.5409 2.12176,6.669503 2.06916,3.465848 4.7419,5.990675 9.0599,8.558502 4.03475,2.399388 4.05141,2.432905 4.05412,8.155818 0.002,4.228278 -0.33972,5.327834 -1.90774,6.138692 -1.61218,0.833691 -2.33716,0.596382 -5.70686,-1.868059 -3.12805,-2.2877 -3.31029,-2.372063 -6.5208,-3.018552 -5.5205,-1.111644 -4.99887,-1.181504 -5.2242,0.699666 -0.10754,0.897799 -0.15122,3.504362 -0.0971,5.792362 l 0.0984,4.16 2.08,1.03368 c 3.04644,1.513959 8.90064,3.984306 10.56,4.456089 1.96566,0.558867 4.64958,0.256289 8.27874,-0.933322 z M 142.75885,85.996884 c 2.18945,-1.277715 5.52439,-3.029253 7.41098,-3.892306 3.29855,-1.508975 3.42931,-1.607086 3.40768,-2.556882 -0.0494,-2.168131 -0.18143,-2.200806 -3.26433,-0.807659 -3.40003,1.536452 -12.03237,6.326299 -13.0046,7.21589 -0.17156,0.15698 1.0171,2.364075 1.2732,2.364075 0.10794,0 1.98762,-1.045403 4.17707,-2.323118 z m 24.49112,-3.726907 c 2.08452,-0.511514 5.35912,-1.301581 7.2769,-1.755706 4.5259,-1.071725 4.91197,-1.536113 4.94999,-5.954269 0.0195,-2.267439 -0.54309,-5.856341 -1.04548,-6.669235 -0.60365,-0.976726 -0.83187,-0.0971 -0.83781,3.229234 -0.006,3.389892 -0.39955,7.47265 -0.7544,7.827504 -0.0879,0.08794 -2.50873,0.647956 -5.37953,1.244483 -6.25955,1.300678 -10.40865,2.549177 -9.21369,2.772476 0.43673,0.08161 0.88854,0.167991 1.00402,0.191959 0.11549,0.02397 1.91549,-0.374932 4,-0.886446 z m -6.66796,-1.128228 c 1.7039,-0.428038 4.03399,-0.938374 5.17799,-1.134079 1.144,-0.195704 3.76788,-0.740872 5.83085,-1.211482 l 3.75085,-0.855656 0.18616,-1.290265 c 0.20146,-1.396376 0.28058,-4.300028 0.20176,-7.404385 l -0.0496,-1.954119 -2.51953,0.891589 c -2.32794,0.823795 -9.89879,2.536649 -11.21204,2.536649 -0.31308,0 -0.8254,-0.283062 -1.1385,-0.629028 -0.48238,-0.533026 -0.54809,-1.071797 -0.43056,-3.530149 0.15951,-3.336234 0.20822,-3.411878 3.46063,-5.373651 2.07995,-1.254573 2.08,-1.254645 2.17537,-2.861963 l 0.0954,-1.607358 -2.17538,-0.210102 c -3.82799,-0.369716 -5.133,-0.776003 -5.35681,-1.667729 C 158.17226,53.221206 157.44,46.851879 157.44,44.936666 V 42.95264 l 1.04,-0.165045 c 0.92798,-0.147268 6.6432,0.449394 12.86786,1.343389 1.22532,0.175983 2.28008,0.267746 2.34391,0.203919 0.21717,-0.217175 -1.0239,-7.273285 -1.36016,-7.733142 -0.28846,-0.394496 -0.84963,-0.369681 -4.063,0.179673 -4.16256,0.711624 -17.02222,3.227945 -17.15198,3.356221 -0.0458,0.04533 0.28259,2.422088 0.72988,5.281683 0.44728,2.859595 0.95653,7.094078 1.13166,9.409963 0.37162,4.914287 3.29212,24.238277 4.00967,26.530701 0.21596,0.689921 -0.0965,0.708897 3.59417,-0.218253 z m 63.03261,-4.581747 -0.0946,-2.16 -3.52,-0.995467 c -5.48911,-1.552338 -5.24381,-1.521117 -5.41209,-0.688829 -0.0805,0.398362 -0.2182,1.261051 -0.30589,1.917085 l -0.15944,1.19279 2.29871,0.666088 c 1.26429,0.366349 3.30671,1.006225 4.53871,1.421948 1.232,0.415722 2.35458,0.767227 2.49462,0.781121 0.14004,0.0139 0.21204,-0.946736 0.16,-2.134736 z m -16.83156,0.319778 c 1.10932,-0.836122 2.61936,-1.789671 3.35565,-2.118998 l 1.3387,-0.598776 0.19506,-2.121002 c 0.10728,-1.166551 0.32366,-2.985003 0.48084,-4.041003 0.51669,-3.471253 3.61964,-32.173791 3.49172,-32.298648 -0.0688,-0.06712 -0.62903,-0.171379 -1.24503,-0.231692 l -1.12,-0.10966 -0.54126,4.32 c -1.48366,11.841734 -2.20944,19.383902 -2.50584,26.040077 -0.17927,4.026043 -0.43604,7.516788 -0.57058,7.757211 -0.13455,0.240424 -1.39162,0.996677 -2.79348,1.680561 -1.40186,0.683885 -2.97178,1.69314 -3.48871,2.242789 l -0.93987,0.999363 h 1.16293 c 0.89099,0 1.63454,-0.355472 3.17987,-1.520222 z m -3.79691,-1.486156 c 0.73362,-0.597508 2.19785,-1.448155 3.25385,-1.890328 l 1.92,-0.803949 0.2297,-4.429673 c 0.42483,-8.192633 0.85634,-13.073203 2.02968,-22.95626 0.64209,-5.408299 1.07229,-9.928411 0.95601,-10.044694 -0.11628,-0.116283 -2.14732,-0.267994 -4.51341,-0.337137 L 202.56,34.80587 v 7.491235 c 0,7.04172 -0.40098,20.376743 -0.90038,29.942897 -0.12174,2.332 -0.17319,4.24 -0.11434,4.24 0.0589,0 0.70725,-0.48887 1.44087,-1.086378 z M 198.72,71.475061 V 69.789002 L 197.53343,69.5664 c -1.5825,-0.29688 -14.8294,0.08157 -15.18155,0.433719 -0.1521,0.1521 -0.1872,0.928366 -0.078,1.725038 l 0.19854,1.448493 8.12379,-0.0063 8.12379,-0.0063 z m -35.72028,-4.558068 -0.20475,-2.203009 2.59825,-1.820635 c 1.42903,-1.00135 2.65418,-1.917996 2.72255,-2.036992 0.0684,-0.118996 0.22466,-1.044356 0.3473,-2.056356 0.20841,-1.719713 0.17964,-1.84 -0.44004,-1.84 -0.57946,0 -0.66303,0.195388 -0.66303,1.550215 v 1.550214 l -2.37922,1.684857 c -1.30857,0.926672 -2.47228,1.921075 -2.58602,2.209786 -0.11374,0.288711 -0.28788,1.568928 -0.38697,2.844928 -0.17216,2.216893 -0.14957,2.32 0.50826,2.32 0.65772,0 0.67929,-0.09823 0.48367,-2.203008 z M 118.72,62.712013 c 0,-0.180394 -0.51324,-1.347152 -1.14054,-2.592795 -0.62729,-1.245644 -1.09529,-2.296621 -1.04,-2.335505 0.0553,-0.03888 0.96454,-0.719351 2.02054,-1.51215 1.056,-0.792799 2.856,-2.064573 4,-2.826166 1.144,-0.761592 3.124,-2.162445 4.4,-3.113007 l 2.32,-1.728295 -8.4e-4,-2.302047 c -4.6e-4,-1.266126 -0.0953,-5.218047 -0.21079,-8.782047 l -0.20995,-6.48 h -1.70921 c -0.94006,0 -1.70676,0.108 -1.70378,0.24 0.003,0.132 0.36055,3.336 0.79457,7.12 1.0029,8.743649 1.0083,9.423918 0.08,10.075488 -4.03029,2.828856 -8.74785,6.44418 -10.25781,7.861136 l -1.85781,1.743376 1.63618,2.48 c 1.10886,1.680729 1.83652,2.48 2.25781,2.48 0.3419,0 0.62163,-0.147595 0.62163,-0.327988 z M 245.36199,54.59442 c 0.0336,-0.77307 0.35673,-2.75307 0.71798,-4.400001 0.67846,-3.093114 1.32536,-4.114418 2.60612,-4.114418 0.80753,0 3.2073,1.229973 6.15797,3.156193 2.57206,1.679063 5.84223,3.11572 7.80738,3.429961 l 1.23169,0.196955 1.50092,-3.631555 c 0.8255,-1.997355 1.4998,-3.831306 1.49843,-4.075446 -0.002,-0.414962 -3.33888,-4.572766 -3.82202,-4.762757 -0.12119,-0.04766 -0.63043,2.226091 -1.13163,5.052774 -0.5012,2.826682 -1.02729,5.21112 -1.16908,5.298751 -0.37916,0.234336 -2.39734,-0.869455 -4.72715,-2.585398 -4.76528,-3.509708 -8.28345,-4.546648 -10.00689,-2.949415 -1.09003,1.010201 -2.82571,5.304085 -2.82571,6.990491 0,0.953656 0.25422,1.731879 0.84352,2.582246 0.46394,0.66946 0.93662,1.2172 1.05041,1.2172 0.11378,0 0.23441,-0.632512 0.26806,-1.405581 z m -84.95025,-4.514419 -0.189,-4 h 1.31224 c 2.44067,0 13.60627,1.685603 16.14502,2.437315 0.48788,0.144458 0.5605,-0.07394 0.56386,-1.695751 0.002,-1.02386 -0.31552,-3.841564 -0.70587,-6.261564 l -0.70972,-4.4 h -1.37413 c -0.75578,0 -1.37275,0.108 -1.37106,0.24 0.002,0.132 0.35755,2.320142 0.79079,4.862539 0.43325,2.542396 0.72593,4.684331 0.65041,4.759854 -0.0755,0.07552 -1.25939,-0.08796 -2.6308,-0.363289 -1.37141,-0.275332 -4.72548,-0.797889 -7.45348,-1.161238 -2.728,-0.363349 -5.4378,-0.724548 -6.02178,-0.802666 -1.009,-0.134972 -1.05264,-0.09911 -0.87776,0.721384 0.17188,0.80641 0.80326,7.863416 0.81448,9.103416 0.003,0.339018 0.24987,0.56 0.62543,0.56 0.59082,0 0.61136,-0.190536 0.43137,-4 z M 206.4,26.595549 c -2.76473,-0.600371 -6.39451,-3.359709 -7.05595,-5.363885 -0.64284,-1.947832 0.66475,-5.654388 2.55622,-7.245951 1.07522,-0.904741 4.85762,-2.449526 7.96348,-3.252398 1.85746,-0.480159 2.24523,-0.481642 4.71923,-0.01806 4.03724,0.756511 6.76202,1.680919 7.32536,2.485199 0.62972,0.899055 0.63438,3.833377 0.0108,6.777173 -0.58443,2.758813 -1.36316,3.634595 -4.7991,5.397222 -2.49258,1.278687 -2.6527,1.315256 -6.08,1.388591 -1.936,0.04142 -4.024,-0.03413 -4.64,-0.167895 z m 9.49359,-4.024356 c 2.49987,-1.171207 2.80828,-1.535943 3.12109,-3.691193 l 0.209,-1.44 -1.53048,1.76 c -2.69806,3.102672 -3.58054,3.827214 -4.9229,4.041867 -0.69546,0.111209 -1.35411,0.347215 -1.46365,0.524458 -0.36378,0.588614 2.21224,-0.08257 4.58694,-1.195132 z m -2.92538,-0.960116 c 0.90636,-0.372976 3.03428,-2.617409 5.08744,-5.366022 l 0.8926,-1.194946 -0.85314,-0.324364 c -0.46923,-0.178401 -2.06228,-0.56194 -3.54012,-0.852311 l -2.68699,-0.527946 -3.134,1.000889 c -3.98508,1.272692 -5.09663,1.966322 -5.86558,3.660234 -0.84187,1.854562 -0.78435,2.376319 0.32523,2.950105 2.71035,1.401574 7.2244,1.703769 9.77456,0.654361 z"
       id="path1" />
    <path
       style="fill:#ffd42a;stroke:none;stroke-width:0.329833;stroke-linejoin:bevel"
       d="m 282.39349,127.98751 c -6.12428,0.31596 -11.50829,3.7373 -17.22532,5.62214 -6.77708,2.34002 -14.10479,1.56018 -21.14425,2.14337 -5.29496,0.37547 -10.79815,0.11375 -15.96601,0.96004 1.52144,1.2537 4.41521,1.88829 3.89903,4.50363 -0.37386,5.81588 -1.93671,11.53776 -3.76074,17.04587 -2.7692,3.80405 -7.29331,5.82464 -11.04567,8.51726 -3.71526,2.55172 -7.93147,4.53937 -11.40688,7.33807 2.55475,1.32677 5.79252,0.98036 8.6328,1.3847 5.01734,0.18079 10.0888,0.91753 15.09134,0.3725 2.97945,-2.00927 4.47573,-5.60459 6.73731,-8.33205 4.86606,-6.41538 9.43986,-13.48745 16.33463,-17.91147 1.52397,-0.57995 0.62899,1.5939 0.0821,2.08884 -6.61363,8.48765 -13.21355,17.01362 -19.03337,26.08193 -2.71316,3.84289 -4.86757,8.15052 -7.91419,11.71743 -2.53793,2.08152 -5.70612,3.49711 -7.89518,5.93216 -0.78879,2.3758 0.71577,5.39741 -1.58676,7.08593 -8.54041,9.62312 -16.65468,19.6455 -25.62863,28.87173 -3.36074,2.96817 -7.24025,5.29258 -10.56186,8.31969 1.56474,4.21937 3.09229,8.69169 6.01835,12.17176 5.72299,4.9865 12.45804,8.75646 19.34272,11.87976 3.69981,-1.86633 6.19506,-5.5164 8.9681,-8.51095 6.89998,-8.26573 13.84441,-16.54681 19.81153,-25.5242 -0.0103,-6.11722 -0.40977,-12.22324 -0.90819,-18.31747 6.5178,-7.56729 13.71031,-14.54722 20.54401,-21.83483 8.04847,-8.23671 15.84584,-16.74519 24.14418,-24.7226 3.85603,-3.26125 9.67034,-4.71321 11.63614,-9.80163 1.75254,-4.3094 3.4189,-9.81985 0.25214,-13.91032 -1.8561,-3.19965 -4.87876,-5.85236 -8.69146,-6.19909 -3.03228,-0.65653 -6.31195,-0.30139 -9.24781,-1.15002 0.64694,-1.42116 3.00837,-1.20687 4.3776,-1.43554 4.29653,-0.006 9.35767,-0.84056 12.73902,2.47172 3.87608,3.3934 6.65159,8.46029 5.78101,13.73665 -0.60764,6.0489 -3.31555,12.33518 -8.88039,15.36194 -4.30788,2.33836 -7.99928,5.55888 -11.28274,9.17636 -1.934,2.20486 -4.5033,4.15187 -6.05016,6.51502 0.0573,5.86992 -0.15082,11.73742 -0.43094,17.59966 -2.42646,1.72744 -5.29734,3.63291 -6.68008,6.16469 0.31889,2.56964 1.51695,5.22075 -0.0263,7.6189 -3.21873,8.35593 -6.02499,16.91827 -9.95871,24.96874 -2.57109,4.06843 -6.43639,7.22767 -9.22466,11.04103 3.51671,3.67566 7.05907,7.45498 11.18318,10.45252 4.63416,1.82223 9.79532,1.59439 14.66381,2.41007 1.96942,0.89402 2.96527,-0.84034 3.70769,-2.3882 4.57753,-9.07872 8.94515,-18.3314 12.20393,-27.97178 1.16062,-6.38141 -2.41826,-12.62306 -1.37965,-19.04685 3.20661,-15.10219 7.19419,-30.03741 11.00051,-45.00029 1.21593,-5.17939 2.86669,-10.22008 4.67257,-15.21362 1.43167,-4.80867 1.75525,-10.35603 -1.2257,-14.66973 -2.61579,-4.66479 -7.68494,-8.15802 -13.19251,-7.61861 -0.49187,-0.003 -0.98365,-0.002 -1.47549,0.005 z"
       id="path16" />
    <path
       style="fill:#ffd42a;stroke:none;stroke-width:0.329833;stroke-linejoin:bevel"
       d="m 193.19304,164.88809 c 1.26273,3.15368 4.91252,4.64672 7.90988,5.8651 1.58186,0.63825 3.347,1.78576 4.88321,0.33784 0.70846,-0.15403 1.63691,-1.03811 0.34282,-1.09085 -4.51969,-0.4154 -8.84849,-2.06008 -12.43419,-4.85932 -0.21545,-0.0868 -0.44974,-0.30166 -0.70172,-0.25277 z"
       id="path17" />
    <path
       style="fill:#ffd42a;stroke:none;stroke-width:0.329833;stroke-linejoin:bevel"
       d="m 212.2431,179.79278 c 0.27165,3.27378 -3.62102,4.442 -4.98924,6.66282 1.75955,0.8834 3.99916,1.55814 5.60414,-0.0347 1.81348,-1.55781 4.82582,-2.34961 5.61506,-4.79564 0.25721,-1.25131 -0.14424,-2.65029 -1.69867,-2.39911 -1.19741,0.21188 -4.90227,-1.26531 -4.53129,0.56666 z"
       id="path18" />
    <path
       style="fill:#ffd42a;stroke:none;stroke-width:0.329833;stroke-linejoin:bevel"
       d="m 175.33674,239.16841 c -1.2538,1.50614 -1.71683,4.41719 -4.34862,3.92155 -2.9964,0.72033 -5.33056,2.91185 -7.81285,4.60718 -0.18178,3.9567 -0.004,7.98316 1.75848,11.61541 2.56652,7.86547 9.30174,13.32838 15.99176,17.67768 2.48848,1.33293 5.03793,2.94798 7.77161,3.54391 2.74836,0.0139 5.49673,0.0278 8.24509,0.0417 1.50157,-2.76774 2.6621,-5.83832 4.37761,-8.41609 2.48839,-1.63282 4.9769,-3.26546 7.46548,-4.89798 -3.22218,-0.54609 -6.8019,0.005 -9.4802,-2.2118 -5.73097,-3.51014 -11.98479,-6.56031 -16.63854,-11.50942 -3.39176,-4.25493 -4.54267,-9.82202 -7.28351,-14.38563 z"
       id="path19" />
    <path
       style="fill:#ffd42a;stroke:none;stroke-width:0.329833;stroke-linejoin:bevel"
       d="m 234.43259,247.29322 c -1.68182,1.9635 -4.51745,2.7449 -5.89807,4.92427 -0.41394,2.13784 -0.0734,4.63848 1.96611,5.86275 5.77161,5.0479 11.77038,10.26034 19.0161,13.03617 4.97333,1.34167 10.10624,2.13848 15.14203,3.13299 1.86235,-0.0826 4.19864,-0.19894 4.85546,-2.35666 1.4325,-2.5733 3.39318,-5.25253 4.19425,-7.96207 -7.1869,-1.15511 -14.52948,-1.49644 -21.6402,-3.02108 -5.83808,-4.43514 -11.01273,-9.75148 -15.76013,-15.33048 -0.62519,0.57137 -1.25037,1.14274 -1.87555,1.71411 z"
       id="path20" />
    <path
       style="fill:#ffd42a;stroke:none;stroke-width:0.0583068;stroke-linejoin:bevel"
       d="m 178.02747,235.1457 c 0.20391,0.78315 0.32539,1.64381 0.80944,2.30962 0.29342,0.1869 0.57648,-0.21853 0.82526,-0.33176 0.7086,-0.55306 1.46926,-1.08912 2.00818,-1.81561 0.11361,-0.34498 -0.41988,-0.339 -0.63583,-0.40201 -1.04453,-0.1678 -2.09858,-0.26733 -3.14599,-0.41493 0.0463,0.21823 0.0926,0.43646 0.13894,0.65469 z"
       id="path21" />
    <path
       style="fill:#ffd42a;stroke:none;stroke-width:0.0291534;stroke-linejoin:bevel"
       d="m 212.33266,262.32403 c -0.36112,0.0902 -0.62693,0.38811 -0.92414,0.59656 -0.53953,0.44267 -1.11969,0.83411 -1.66268,1.27092 -0.0346,0.0792 0.13371,0.0346 0.1739,0.0326 0.55165,-0.11702 1.11146,-0.19108 1.66857,-0.27033 0.45462,-0.14928 0.8167,-0.54603 0.97829,-0.9909 0.0771,-0.21584 0.036,-0.54355 -0.19864,-0.63702 -0.0117,-0.002 -0.0235,-0.002 -0.0353,-0.002 z"
       id="path22" />
    <path
       style="fill:#ffd42a;stroke:none;stroke-width:0.0412291;stroke-linejoin:bevel"
       d="m 244.41324,135.61054 c -2.36413,0.11346 -4.73157,0.17443 -7.09692,0.26905 -9.54582,0.35285 -19.09261,0.6868 -28.6351,1.12243 -1.68156,0.0975 -3.37091,0.13204 -5.04266,0.34836 -0.0581,0.0225 -0.30799,0.0282 -0.24835,0.12349 2.32991,0.17627 4.66896,0.0446 7.00187,0.007 3.16569,-0.0722 6.32698,-0.27204 9.47945,-0.56676 2.33053,-0.16425 4.69526,-0.37072 7.01404,0.0243 1.16025,0.19708 2.26545,0.64396 3.27534,1.24031 0.13708,0.002 -0.0879,-0.15877 -0.12647,-0.16989 -0.65239,-0.43087 -1.3796,-0.7733 -1.96358,-1.29418 0.794,-0.18541 1.63197,-0.2397 2.44676,-0.34161 4.50737,-0.45754 9.0482,-0.32004 13.56337,-0.65059 0.1133,-0.0388 0.35288,0.0159 0.40228,-0.1009 -0.018,-0.0178 -0.0477,-0.0109 -0.07,-0.0107 z"
       id="path23" />
    <path
       style="fill:#d35f5f;stroke:none;stroke-width:0.466454;stroke-linejoin:bevel"
       d="m 185.99453,97.15737 c -7.15095,0.22364 -11.33731,6.98164 -16.19017,11.26098 -9.74664,-2.77096 -20.88826,-5.78578 -30.49562,-0.9851 -2.80701,1.87927 -6.85058,4.72367 -6.12804,8.55762 1.28581,3.37272 4.23161,6.05753 5.31394,9.41538 -3.95531,5.58646 -8.99368,10.62468 -11.07633,17.33719 6.61146,0.26562 13.36557,1.22573 19.92139,0.18647 3.96573,-2.24353 8.69598,-0.0729 12.99643,-0.46175 1.16794,-0.0168 4.20479,0.56487 2.93723,-1.57396 -0.52033,-3.64258 -0.035,-9.61028 4.74635,-9.8429 4.16079,0.0885 9.78115,-1.46405 12.66724,2.4514 1.14213,1.77842 2.23036,4.67538 4.91645,3.79035 6.31704,-1.21774 12.78429,-2.44 18.97539,-3.89223 -0.50581,-2.657 -1.66998,-5.22859 1.38565,-6.74882 3.72246,-3.99763 9.27062,-7.81804 9.54605,-13.75472 -0.96822,-4.75284 -6.04046,-7.34691 -10.26314,-8.81231 -4.42473,-1.17499 -9.04782,-0.36722 -13.48043,0.32382 -0.0916,-2.77313 -0.14095,-7.448742 -4.07415,-7.233227 -0.56507,-0.04004 -1.13238,-0.0331 -1.69824,-0.01819 z"
       id="path24" />
    <path
       style="fill:#d3bc5f;stroke:none;stroke-width:0.659666;stroke-linejoin:bevel"
       d="m 95.782882,168.63082 c -1.063249,6.68322 0.440712,13.8052 1.289467,20.54675 3.975551,24.41325 17.973221,46.9182 37.835911,61.55929 1.79561,0.20936 -1.01765,-3.67408 -0.91719,-4.82522 -1.03375,-4.6126 -1.65,-10.78271 3.47153,-13.21699 6.73666,-5.46756 16.89591,-7.02416 24.39669,-2.31739 2.99578,2.57376 3.49512,8.09751 7.43145,9.29284 3.29094,-1.62719 3.18896,-6.98226 5.85749,-8.56643 5.6458,0.85082 11.95112,0.10862 15.53122,-4.90844 7.56521,-9.00475 15.89525,-17.46961 22.64165,-27.11184 0.36399,-4.0695 2.98833,-7.465 6.54383,-9.48322 3.16435,-2.38539 6.28351,-5.82595 7.25521,-9.58742 -2.30769,-0.69153 -5.74072,-0.52992 -4.97059,2.76186 -2.06879,3.99221 -6.5146,6.89434 -10.74645,8.12738 -3.0603,-0.18505 -9.54749,-0.62219 -8.56861,-5.02848 0.8,-2.83764 5.26056,-3.7752 5.38609,-6.64031 -4.922,-2.0172 -10.21291,-4.10736 -15.13302,-5.75657 -3.48633,4.5408 -4.42294,11.00652 -8.86062,14.71495 -3.88704,0.35811 -8.1563,-1.37701 -11.31118,-3.60574 -1.93632,-1.93429 -0.77801,-5.80266 -2.79145,-7.36326 -2.19875,1.55114 -5.02689,1.70625 -7.3311,3.18123 -3.94792,1.11195 -4.27467,-4.82966 -8.18269,-4.31711 -2.416,-0.0618 -3.50343,-2.34085 -3.03201,-4.30938 -9.445,2.02124 -18.2888,8.26426 -28.25929,7.7749 -4.58398,-0.92898 -7.55354,-4.97316 -11.01016,-7.76075 -4.86971,2.10053 -12.19742,3.91593 -15.325981,-1.87812 -0.350247,-0.36222 -0.569247,-1.31455 -1.200197,-1.28253 z"
       id="path31" />
    <path
       style="fill:#d3bc5f;stroke:none;stroke-width:0.659666;stroke-linejoin:bevel"
       d="m 86.815498,169.38464 c -19.762992,12.96596 -41.555284,22.43766 -61.790179,34.60374 -5.821218,3.22477 -12.443586,9.39521 -9.397037,16.76158 2.652014,6.23645 8.030949,11.67069 14.161804,14.34447 -0.56201,-2.46072 -4.115355,-4.1266 -5.355218,-6.62616 -3.126769,-4.92086 -6.066273,-12.78121 -1.36614,-17.58745 8.342072,-4.92103 18.571833,-1.75635 27.619151,-1.1933 15.303891,1.94043 30.659993,3.66185 45.826954,6.5125 -7.092094,-14.57548 -8.244701,-31.01098 -9.618291,-46.8321 z"
       id="path32" />
    <path
       style="fill:#d3bc5f;stroke:none;stroke-width:0.329833;stroke-linejoin:bevel"
       d="m 191.86099,75.111331 c -2.90822,0.137456 -6.01227,-0.147011 -8.80466,0.438014 -0.83079,1.844929 -0.6896,4.272584 -2.05628,5.793231 -6.17376,1.82581 -12.44322,3.559282 -18.81723,4.483693 -2.94969,-0.107115 -6.91043,-0.194184 -8.45347,-3.171581 -4.61452,2.313315 -9.40131,4.4675 -13.60609,7.461029 0.71766,1.461354 2.15731,3.496014 0.26178,4.782776 -1.98752,2.28428 -4.24158,4.313954 -6.38626,6.446067 -2.68167,-0.19628 -5.36649,-0.34498 -8.05147,-0.48753 -3.8962,4.14528 -7.98272,8.22065 -11.18126,12.93266 2.47961,6.93276 4.58889,14.05285 5.92766,21.29738 0.29368,2.48163 -2.5769,4.78666 -1.28445,7.16515 2.075,0.72078 4.99727,-0.72075 4.6715,-3.17286 1.05305,-1.44485 1.21913,-3.34161 2.58635,-4.6544 2.5137,-3.23634 5.02439,-6.5845 7.60632,-9.70422 -2.41032,-3.10648 -5.81562,-6.45851 -5.11402,-10.81785 0.68961,-4.35167 4.50872,-7.39183 7.94664,-9.72828 5.48095,-2.86905 11.97745,-2.42156 17.96692,-2.15212 4.37758,0.39221 8.63301,1.5371 12.87735,2.62036 4.97729,-4.59172 9.79883,-11.006652 17.20282,-11.177389 3.68313,-0.356741 8.74077,0.353179 9.65624,4.698519 -0.25096,2.60801 2.18533,1.744551 3.99024,1.743507 3.65337,-0.419697 7.357,6.4e-5 10.6546,1.706573 3.83925,1.85925 7.96796,4.62625 9.30571,8.87734 0.50707,3.57517 0.62517,7.72248 -2.22128,10.41749 -2.76347,3.23936 -5.88827,6.14237 -8.86092,9.18443 0.62,1.90704 0.87863,4.33812 3.48353,3.36667 13.17017,-0.53826 26.37481,-0.79708 39.51643,-1.70337 0.80769,0.0263 1.72178,-0.96609 0.4065,-1.07285 -3.27793,-0.81305 -7.99865,-0.99025 -8.88506,-5.07864 -1.15605,-3.94586 -1.87174,-9.2012 1.8241,-12.05921 4.17292,-4.05469 10.07273,-4.89156 15.46812,-6.23446 0.8278,-0.11624 2.22785,-0.87845 0.91577,-1.61969 -3.98703,-3.90803 -7.82646,-8.13051 -12.47907,-11.240295 -4.08539,0.510301 -8.45284,0.755614 -12.37649,-0.903191 -4.68699,-1.679119 -10.23795,-4.034652 -11.91109,-9.162766 -0.64614,-1.384431 0.7422,-3.905086 -1.45278,-3.976954 -3.40407,-0.963887 -6.81546,-2.537627 -10.36845,-2.60483 -2.44516,0.859606 -4.34985,2.980546 -6.65555,3.896647 -2.18023,-0.437064 -5.2046,0.327541 -6.76144,-1.614602 -0.52384,-1.489056 -0.24045,-3.119825 -0.15179,-4.656711 -2.10548,-0.40926 -4.25723,-0.297652 -6.38947,-0.317737 z"
       id="path34" />
    <path
       style="fill:#d3bc5f;stroke:none;stroke-width:0.0824582;stroke-linejoin:bevel"
       d="m 121.76157,98.629651 c -3.90638,3.958379 -7.51513,8.212779 -10.82701,12.679409 -0.26226,0.47455 -0.80136,0.9258 -0.77907,1.4951 0.62184,0.50448 1.6476,0.51654 2.31147,0.0736 1.02473,-0.94333 1.73995,-2.17172 2.66027,-3.21373 2.80502,-3.51115 5.96631,-6.71077 8.97058,-10.046066 0.23069,-0.198664 0.42639,-0.516276 0.0909,-0.739277 -0.41745,-0.470163 -0.87097,-0.906708 -1.30584,-1.360512 -0.37375,0.370479 -0.7475,0.740957 -1.12125,1.111436 z"
       id="path35" />
    <path
       style="fill:#d3bc5f;stroke:none;stroke-width:0.0824582;stroke-linejoin:bevel"
       d="m 152.86409,77.846988 c -1.46365,0.31445 -2.77565,1.112014 -4.12968,1.7265 -3.71343,1.880025 -7.3952,3.84335 -10.90758,6.079855 -0.2731,0.162406 -0.63706,0.416574 -0.3606,0.761929 0.29392,0.647546 0.637,1.315341 1.10629,1.839369 2.68586,-1.363068 5.23819,-2.983068 7.92098,-4.35728 2.07866,-1.144439 4.28012,-2.048671 6.3611,-3.18463 0.59155,-0.260836 0.71761,-0.920917 0.64593,-1.500889 -0.0357,-0.459832 0.0591,-1.406552 -0.63644,-1.364854 z"
       id="path36" />
    <path
       style="fill:#d3bc5f;stroke:none;stroke-width:0.0824582;stroke-linejoin:bevel"
       d="m 193.76564,69.498837 c -3.63197,0.06169 -7.27141,0.113427 -10.89101,0.437049 -0.2737,0.01194 -0.63975,0.06622 -0.59366,0.429974 -0.0745,0.919721 0.11571,1.832374 0.22174,2.741928 5.39911,0 10.79823,0 16.19734,0 0,-1.090211 0,-2.180421 0,-3.270632 -1.614,-0.385794 -3.28771,-0.322207 -4.93441,-0.338319 z"
       id="path37" />
    <path
       style="fill:#d3bc5f;stroke:none;stroke-width:0.0824582;stroke-linejoin:bevel"
       d="m 215.0151,72.212465 c -0.47296,0.03234 -0.32174,0.69081 -0.45779,1.006088 -0.15416,0.855012 -0.27851,1.715088 -0.3909,2.576492 3.10334,0.846688 6.15051,1.910592 9.229,2.819432 0.31325,-0.555449 0.0897,-1.27119 0.1526,-1.887428 -0.0384,-0.753754 0.0257,-1.560306 -0.11561,-2.282226 -2.62747,-0.76097 -5.25132,-1.550099 -7.91062,-2.191033 -0.16716,-0.02747 -0.33679,-0.05319 -0.50668,-0.04133 z"
       id="path38" />
    <path
       style="fill:#d3bc5f;stroke:none;stroke-width:0.0824582;stroke-linejoin:bevel"
       d="m 255.30739,91.847029 c -1.49878,0.403015 -2.98285,0.918488 -4.38705,1.580484 -0.26058,0.203995 0.2923,0.470668 0.37401,0.650589 2.52651,2.396593 5.20424,4.632533 7.64021,7.125648 1.30646,1.22969 2.50515,2.5935 3.93596,3.67982 0.85568,-0.41834 1.49519,-1.21415 2.16803,-1.88188 0.26032,-0.36974 0.74763,-0.70167 0.79452,-1.16669 -0.82395,-1.06801 -1.87137,-1.959795 -2.80195,-2.939076 -2.44782,-2.471169 -5.02445,-4.823701 -7.6898,-7.050985 z"
       id="path39" />
    <path
       style="fill:#d3bc5f;stroke:none;stroke-width:0.466454;stroke-linejoin:bevel"
       d="m 264.28293,184.44364 c -9.18904,9.04046 -18.33096,18.20032 -26.74166,27.97509 -1.26999,2.10039 0.32134,4.84857 -0.0629,7.20279 -0.11637,5.0762 1.51289,10.89109 -2.20018,15.12907 -3.02328,4.8266 -7.1759,9.05129 -10.06666,13.84519 2.4212,-0.0163 4.42491,-2.56986 6.45642,-3.8322 2.30532,-2.1762 5.00356,-4.21263 8.38479,-3.52019 3.30029,0.6995 4.51853,-3.26565 6.61886,-5.12731 4.98358,-7.02054 6.87146,-15.6688 10.23485,-23.4972 2.02491,-3.27663 1.09791,-6.96193 0.82549,-10.55698 2.23323,-2.60805 5.33906,-4.86204 7.03038,-7.69076 -0.19008,-3.22656 0.41151,-6.91504 -0.47936,-9.9275 z"
       id="path40" />
    <path
       style="fill:#d3bc5f;stroke:none;stroke-width:0.0824582;stroke-linejoin:bevel"
       d="m 292.79874,183.93011 c -0.49217,0.91888 -0.62359,2.00902 -0.93676,3.00464 -2.1327,8.25454 -4.2241,16.5211 -6.16498,24.823 0.007,0.22766 -0.25432,0.6594 -0.0531,0.80743 0.55392,-0.76213 0.77756,-1.73181 1.15355,-2.59345 2.81355,-7.64868 4.8618,-15.59706 5.8951,-23.68562 0.0406,-0.77646 0.26882,-1.60186 0.11908,-2.35713 l -0.006,-3.2e-4 z"
       id="path41" />
    <path
       style="fill:#d3bc5f;stroke:none;stroke-width:0.0824582;stroke-linejoin:bevel"
       d="m 209.89047,271.11014 c -1.78825,0.91092 -3.44712,2.07031 -5.09617,3.21242 -0.21005,0.21795 -0.68264,0.38713 -0.6924,0.70735 0.71828,0.25815 1.53074,-0.006 2.27666,-0.0474 2.98796,-0.43664 5.96475,-0.97141 8.90234,-1.67382 -0.9847,-0.72291 -2.20832,-1.03351 -3.31935,-1.51696 -0.6835,-0.23801 -1.35839,-0.55069 -2.07108,-0.68163 z"
       id="path42" />
    <path
       style="fill:#d3bc5f;stroke:none;stroke-width:0.116614;stroke-linejoin:bevel"
       d="m 91.754736,160.7028 c -0.580491,4.65882 -0.785506,9.35479 -0.685165,14.04755 0.03186,7.98131 1.248971,15.92829 3.153849,23.66696 4.036661,16.0386 11.90683,31.12261 22.93388,43.46576 8.13848,9.16579 17.8311,17.02402 28.75871,22.6257 1.2061,0.57067 2.36267,1.4015 3.64473,1.73073 -0.70413,-0.9053 -1.75319,-1.56403 -2.54623,-2.4182 -3.15851,-2.99973 -6.15889,-6.23419 -9.89992,-8.53293 -7.85552,-5.21183 -14.78617,-11.73086 -20.88756,-18.89477 -9.68377,-11.60352 -16.676744,-25.43708 -20.188802,-40.14182 -1.827952,-7.50859 -2.892663,-15.22401 -2.77464,-22.96224 0.025,-4.32675 0.202362,-8.65246 0.554373,-12.96514 -0.637556,0.0806 -1.546644,-0.15751 -2.020794,0.11495 -0.01414,0.0878 -0.02829,0.17563 -0.04243,0.26345 z"
       id="path43" />
    <path
       style="fill:#d3bc5f;stroke:none;stroke-width:0.466454;stroke-linejoin:bevel"
       d="m 51.277501,288.7833 c -6.538101,0.59809 -9.689808,11.76392 -2.938043,14.43189 3.01189,1.21805 6.251263,-0.73955 9.086432,-0.63078 19.586231,12.49924 38.451271,26.10192 57.90737,38.80713 22.38323,14.62189 44.58004,29.70983 68.4027,41.92945 4.45481,2.34317 9.28935,4.3348 14.42769,3.4846 15.52583,-1.33371 30.26658,-7.87349 43.1043,-16.48021 7.48141,-5.28982 15.6625,-12.59027 15.87089,-22.44738 -0.31815,-5.88797 -7.03433,-7.72299 -11.26839,-10.24728 -33.54468,-16.40831 -67.25522,-32.53074 -101.03946,-48.4099 0.76084,1.7418 1.81506,3.5271 1.61638,5.52043 4.89089,3.5847 10.89376,5.51434 16.26154,8.35278 28.15908,12.94234 56.07165,26.49463 83.05525,41.75133 0.61912,-0.35985 -0.0901,-2.28093 1.31803,-2.4223 2.56392,-0.28591 2.99346,3.40496 3.72667,5.1675 1.65743,4.50974 -1.13825,8.98191 -4.81242,11.48257 -10.20277,8.13243 -21.0557,16.3933 -34.18715,18.88843 -8.04764,1.59868 -16.71051,2.4829 -24.65046,-0.0264 -17.29479,-8.66115 -33.46063,-19.38695 -49.97622,-29.4173 -25.10537,-15.79002 -50.348552,-31.38582 -75.00433,-47.87144 -4.459712,-2.22559 -2.679081,-8.67509 -7.190476,-10.86985 -1.106767,-0.67438 -2.407092,-1.07254 -3.710303,-0.9933 z"
       id="path44" />
    <path
       style="fill:#d3bc5f;stroke:none;stroke-width:0.466454;stroke-linejoin:bevel"
       d="m 127.2191,280.83421 c -0.20749,1.40888 0.5177,3.32819 0.64674,4.8928 2.03372,1.93215 4.86848,3.47476 7.63072,4.02867 2.73306,-0.76816 5.56096,-1.19791 8.41118,-1.07971 -5.55895,-2.60983 -11.00656,-5.53475 -16.68864,-7.84176 z"
       id="path45" />
    <path
       style="fill:#d3bc5f;stroke:none;stroke-width:0.466454;stroke-linejoin:bevel"
       d="m 51.204732,246.37997 c -1.794914,0.44577 1.380473,1.91046 1.882895,2.23764 19.749185,10.46989 39.696962,20.58333 59.780543,30.39647 2.35942,1.4257 4.98632,1.85224 7.63255,1.03605 4.27402,-0.0577 4.78013,-0.72987 0.53611,-2.26625 -6.89102,-2.87287 -13.39685,-7.77509 -21.156994,-7.65033 -2.818002,0.0982 -4.311531,-2.29452 -5.826968,-4.19513 -10.021178,-5.88884 -20.831982,-10.36273 -31.273524,-15.46506 -3.755879,-1.45371 -7.444681,-4.02179 -11.574612,-4.09339 z"
       id="path46" />
    <path
       style="fill:#d3bc5f;stroke:none;stroke-width:0.466454;stroke-linejoin:bevel"
       d="m 39.279732,239.83895 c -2.093256,0.33868 1.158478,1.88051 1.724292,2.29348 2.349991,1.13335 4.683945,3.27698 7.216274,3.56897 -0.976357,-3.69958 -5.408371,-5.66836 -8.940566,-5.86245 z"
       id="path47" />
    <path
       style="fill:#d3bc5f;stroke:none;stroke-width:0.116614;stroke-linejoin:bevel"
       d="m 28.164968,232.31078 c 0.533183,0.90395 1.423106,1.71029 1.685281,2.78933 -0.391606,0.039 -0.894296,-0.39385 -1.30204,-0.54085 -1.188175,-0.53435 -2.234112,-1.37244 -3.42066,-1.87963 -0.0429,0.38785 0.638193,0.5906 0.879367,0.84753 4.321043,2.83946 8.787427,5.45894 13.317387,7.94864 0.338733,-0.1064 -0.737297,-0.85608 -0.37658,-0.65128 -0.297818,-0.2141 -0.632169,-0.86095 -0.04798,-0.93349 0.511674,-0.10788 -0.09062,-0.3781 -0.315408,-0.27857 -1.480692,-0.047 -2.659989,-1.26542 -3.349642,-2.47278 -0.442098,-1.27898 -1.912804,-1.71787 -2.942026,-2.41587 -1.411658,-0.73932 -2.717384,-1.69345 -4.127699,-2.41303 z"
       id="path48" />
    <path
       style="fill:#d3bc5f;stroke:none;stroke-width:0.116614;stroke-linejoin:bevel"
       d="m 48.125244,244.99531 c -0.138966,0.21284 0.430849,0.90242 -0.145765,0.71768 -0.203747,0.0273 -0.836434,-0.30685 -0.872544,-0.002 1.507179,0.92567 3.113514,1.76489 4.713604,2.51484 0.178542,-0.25365 -0.471022,-0.51364 -0.618081,-0.68175 -0.409665,-0.20458 -0.918841,-0.96037 -0.237636,-1.16885 0.68087,-0.17251 -1.029733,-0.38839 -0.622966,-0.38389 -0.810089,-0.18071 -1.503123,-0.62536 -2.216612,-0.99599 z"
       id="path49" />
    <path
       style="fill:#d3bc5f;stroke:none;stroke-width:0.116614;stroke-linejoin:bevel"
       d="m 48.02405,212.72481 c -0.235992,0.39011 0.02117,1.05665 -0.01839,1.53506 0.741385,9.26398 1.588883,18.5198 2.29969,27.78603 0.138233,0.5449 0.0072,1.54167 0.710179,1.70347 0.668943,-0.0786 1.526436,-0.45254 1.379425,-1.28505 -0.127812,-4.07733 -0.643456,-8.13474 -0.983818,-12.19884 -0.574457,-5.72217 -1.068886,-11.45741 -1.800046,-17.16068 -0.478295,-0.24213 -1.052417,-0.35134 -1.587044,-0.37999 z"
       id="path50" />
    <path
       style="fill:#d3bc5f;stroke:none;stroke-width:0.0824582;stroke-linejoin:bevel"
       d="m 36.059279,211.33781 c -0.286034,0.12433 -0.04425,0.62596 -0.109119,0.86936 0.365112,5.91762 1.211954,11.79426 1.628476,17.70845 0.21779,2.23212 0.142339,4.48408 0.389637,6.71186 -0.03018,0.52546 0.607426,1.00009 0.977974,0.47404 0.520887,-0.71301 0.223772,-1.68104 0.24578,-2.50017 -0.455154,-6.66026 -1.037892,-13.31301 -1.752297,-19.95046 -0.178558,-0.99225 -0.140861,-2.08321 -0.628077,-2.98569 -0.180679,-0.22081 -0.469542,-0.33777 -0.752374,-0.32739 z"
       id="path51" />
    <path
       style="fill:#d3bc5f;stroke:none;stroke-width:0.233227;stroke-linejoin:bevel"
       d="m 88.914021,218.50857 c -0.818401,0.37242 0.160111,1.71171 0.07486,2.39445 3.156479,14.54699 6.747985,29.00656 9.385091,43.66052 0.226272,1.09617 0.700036,3.23642 2.280398,2.64061 1.71102,-0.58306 0.44024,-2.62164 0.38975,-3.84374 -3.203924,-14.50863 -6.37932,-29.02586 -9.726781,-43.50141 0.02246,-1.44948 -1.357807,-1.20954 -2.403321,-1.35043 z"
       id="path52" />
    <path
       style="fill:#d3bc5f;stroke:none;stroke-width:0.233227;stroke-linejoin:bevel"
       d="m 122.74109,283.04638 c -5.39247,0.87168 -10.4892,3.01885 -15.69047,4.63034 -12.36644,4.25177 -24.792206,8.3429 -37.079703,12.81737 -0.795299,0.158 -1.447698,0.72946 -0.378398,1.04696 3.420116,-0.4809 6.671369,-1.93819 10.000403,-2.87345 14.721003,-4.78067 29.459458,-9.5299 44.213778,-14.19222 1.12328,-0.72596 -0.19747,-1.63644 -1.06561,-1.429 z"
       id="path53" />
    <path
       style="fill:#d3bc5f;stroke:none;stroke-width:0.233227;stroke-linejoin:bevel"
       d="m 141.23576,291.58536 c -8.02211,2.74937 -15.78989,6.21682 -23.66303,9.36885 -9.79685,4.1005 -19.673741,8.0361 -29.392765,12.30718 0.08474,0.70373 1.350561,1.0012 1.941564,1.33258 1.678684,0.0248 3.19999,-1.14742 4.806134,-1.59038 15.860577,-6.39594 31.725087,-12.79635 47.419637,-19.58991 0.80572,-0.61251 -0.34322,-1.87683 -1.11154,-1.82832 z"
       id="path54" />
    <path
       style="fill:#6c5353;stroke:none;stroke-width:0.233227;stroke-linejoin:bevel"
       d="m 50.777215,284.09471 c -6.307771,0.089 -11.776764,5.78226 -11.781282,12.06554 -0.05907,1.99623 0.847702,4.23649 2.458679,5.38217 -0.282397,-2.5974 -0.347008,-5.40782 -0.135123,-8.02322 1.763093,-4.26619 5.588612,-8.43556 10.569725,-8.19833 2.6542,-0.0772 4.941307,1.354 7.150907,2.5983 0.5224,-0.14217 -0.507869,-0.90983 -0.729508,-1.1311 -2.181895,-1.53846 -4.810364,-2.75888 -7.533398,-2.69336 z"
       id="path55" />
    <path
       style="fill:#6c5353;stroke:none;stroke-width:0.329833;stroke-linejoin:bevel"
       d="m 222.06851,138.87611 c -11.80499,0.46334 -23.66874,0.53614 -35.40001,2.03249 -3.79457,0.2942 -5.46232,5.28988 -9.50702,4.64513 -9.0381,0.44873 -18.12391,-0.11611 -27.13949,0.61425 -3.30279,1.52996 -7.13322,0.51241 -10.65538,0.73114 -7.05477,-0.0733 -14.20262,-0.4506 -21.20386,-0.20951 3.07755,3.96347 7.00002,7.40785 8.97391,12.15683 2.67134,4.833 2.43998,10.49783 3.42555,15.74098 4.52198,-1.05447 8.83367,-3.20818 13.26981,-4.68695 5.95632,-2.08741 11.82861,-4.55668 17.94366,-6.10903 3.83542,-0.17311 7.64522,2.32354 11.40573,1.04969 3.27825,-1.88528 6.28828,-4.8326 10.36761,-4.58145 5.4664,-0.0434 11.10536,0.20511 16.33,1.91221 1.34369,0.78382 -1.03857,1.24334 -1.63885,1.24522 -0.6073,0.24562 -2.36729,-0.0447 -2.38882,0.75768 3.63505,3.38378 8.89178,3.97087 13.61509,4.40908 5.59311,-2.93514 11.01494,-6.33484 15.99941,-10.21775 2.15399,-3.03873 2.34254,-7.01598 3.41921,-10.50655 0.39385,-2.51263 1.47363,-5.18358 0.83422,-7.70865 -1.97167,-1.82901 -5.20048,-1.08395 -7.65077,-1.27481 z"
       id="path56" />
    <path
       style="fill:#c8beb7;stroke:none;stroke-width:0.329833;stroke-linejoin:bevel"
       d="m 182.00278,164.04164 c -3.15908,1.07579 -5.68863,3.50471 -8.64257,5.01497 -0.24749,1.58271 0.71116,3.3772 0.77593,5.04297 0.57431,2.61415 0.68738,5.43557 1.5743,7.92636 2.15997,1.3164 4.70926,1.80306 7.05903,2.68919 -0.0517,-6.82477 0.3796,-13.68883 -0.13571,-20.49018 -0.16163,-0.16767 -0.40852,-0.20721 -0.63098,-0.18331 z"
       id="path61" />
    <path
       style="fill:#c8beb7;stroke:none;stroke-width:0.329833;stroke-linejoin:bevel"
       d="m 185.56285,163.67631 c -0.54187,4.94266 -0.39724,10.03538 -0.072,15.01018 0.69316,0.20345 1.12492,-1.66743 1.5533,-2.20551 1.12964,-2.35522 2.14565,-4.76249 3.20181,-7.15101 -1.4632,-1.88712 -2.58604,-4.43364 -4.68308,-5.65366 z"
       id="path62" />
    <path
       style="fill:#c8beb7;stroke:none;stroke-width:0.0824582;stroke-linejoin:bevel"
       d="m 162.2198,167.21081 c -1.37752,0.13716 -2.64536,0.78016 -3.94871,1.20953 -0.72266,0.32536 -1.60298,0.5064 -2.14859,1.10645 -0.21514,0.78385 -0.32851,1.60568 -0.43624,2.41181 0.003,0.74165 0.96608,0.70532 1.4913,0.771 1.08957,0.10931 2.42163,-0.0101 3.14386,0.99761 0.77494,0.86552 1.08442,2.08678 1.91414,2.88585 1.50787,-0.71035 2.17402,-2.34376 2.97862,-3.69514 0.77241,-1.49343 1.61893,-2.97077 2.22963,-4.53354 -1.65554,-0.47314 -3.32154,-1.02925 -5.0489,-1.15437 -0.0584,-0.001 -0.11674,-6.3e-4 -0.17511,8e-4 z"
       id="path63" />
    <path
       style="fill:#c8beb7;stroke:none;stroke-width:0.164916;stroke-linejoin:bevel"
       d="m 101.71697,123.67491 c -3.220351,0.49656 -6.361635,1.52156 -9.367769,2.75736 -1.575656,1.0635 -2.578071,2.78317 -3.955309,4.08074 -0.99149,1.27546 -2.717364,2.37076 -2.517454,4.19875 0.07304,0.84867 0.01585,1.90127 0.498795,2.59979 0.857073,-1.13996 2.028484,-2.05218 3.400235,-2.53032 2.37549,-0.89354 4.721364,-1.92086 7.127212,-2.70173 2.198151,0.16021 4.08278,1.55448 6.08097,2.37407 3.30561,1.63456 6.65999,3.1756 10.05801,4.59813 0.98605,0.65566 0.36583,2.0856 0.43576,3.05131 -0.18832,0.59326 0.10589,1.74511 -0.63033,1.9643 -0.52884,-0.67474 -0.32782,-1.76437 -0.56151,-2.58311 0.23635,-1.22723 -1.13689,-0.97743 -1.89093,-1.38244 -4.38823,-1.78509 -8.4982,-4.17499 -12.729466,-6.2924 -2.877366,1.08032 -6.012269,1.65465 -8.628422,3.32756 -2.911404,2.10962 -3.089317,6.02204 -3.154214,9.2922 -0.03163,0.32626 -0.0087,1.39 0.438014,0.66088 0.970621,-1.30405 1.628463,-3.05961 3.388014,-3.47549 2.195171,-0.8056 4.370782,-1.87184 6.707208,-2.1547 2.548906,0.34797 4.834746,1.7122 7.259456,2.51563 1.94056,0.82456 4.01782,1.25231 6.01442,1.87159 1.19406,0.89935 1.36957,2.74181 1.05162,4.10517 -0.35929,0.82409 -1.08022,-0.11604 -1.26034,-0.56922 -0.47439,-1.03355 -1.20348,-2.14238 -2.48143,-2.14473 -3.61441,-0.95597 -6.89849,-2.89743 -10.471811,-3.93151 -2.309087,0.47045 -4.541565,1.35347 -6.705278,2.27754 -1.380863,0.93935 -1.85443,2.71695 -2.556367,4.15567 -0.478755,1.6568 -0.08699,3.54735 0.671814,5.06546 0.516551,0.78759 0.815334,-0.47458 1.028143,-0.83101 0.518066,-1.19048 1.245197,-2.94282 2.875712,-2.55251 2.749807,0.18341 5.201302,1.68439 7.880533,2.23485 1.384954,0.51107 3.104254,0.22877 4.291234,1.1686 0.2963,1.01389 -1.08187,1.36022 -1.84017,1.21403 -0.97708,0.0444 -2.11198,-0.36449 -3.016252,-0.0875 -0.442682,2.53067 -0.679473,5.09347 -0.96318,7.64594 1.102146,1.92172 1.925072,4.05358 3.283172,5.80288 0.8409,0.48393 1.8594,1.01427 2.83198,0.95032 5.3877,-2.02798 11.03988,-3.18296 16.55857,-4.78338 1.8676,-0.62345 3.94684,-0.76828 5.67079,-1.7373 0.49894,-0.95046 -0.46685,-1.99833 -0.70783,-2.91688 -1.75961,-4.29493 -4.80521,-7.86651 -8.11665,-11.04897 -0.83479,-0.96164 -2.01116,-1.79674 -2.6333,-2.83714 0.21498,-3.57104 0.57165,-7.15893 0.49135,-10.73175 -1.19008,-1.15845 -2.64989,-2.04133 -3.76948,-3.29821 -3.10706,-3.03508 -6.02982,-6.2504 -8.97408,-9.44149 -0.37048,0.0397 -0.74096,0.0793 -1.11144,0.11899 z"
       id="path64" />
    <path
       style="fill:#c8beb7;stroke:none;stroke-width:0.164916;stroke-linejoin:bevel"
       d="m 101.91604,115.64433 c -1.74696,0.0202 -3.736307,0.15203 -4.90659,1.63821 -1.777209,1.76521 -3.710883,3.4419 -5.173194,5.47968 -0.241862,0.51069 -0.421365,1.91378 0.571476,1.50282 3.331804,-0.82537 6.510916,-2.40452 9.957258,-2.68983 1.54687,0.11274 2.35275,1.74098 3.44883,2.63544 3.21094,3.23264 6.25915,6.66063 9.77649,9.56655 0.57847,0.20021 0.952,1.03824 1.5369,1.0304 -0.71739,-3.1967 -1.78256,-6.37087 -2.567,-9.57674 -0.78254,-2.69291 -1.27573,-5.49816 -2.32029,-8.09979 -1.33155,-0.95348 -3.15105,-0.85522 -4.71774,-1.14894 -1.86108,-0.20579 -3.73285,-0.34335 -5.60614,-0.3378 z"
       id="path65" />
    <path
       style="fill:#c8beb7;stroke:none;stroke-width:0.164916;stroke-linejoin:bevel"
       d="m 274.60412,99.978103 c -2.50023,0.384527 -4.14267,2.593737 -5.98208,4.121927 -3.87246,3.72833 -7.85448,7.33748 -11.88857,10.88863 -2.86483,2.55152 -5.39791,5.4876 -8.34393,7.9305 -0.37235,-1.11541 0.004,-2.48993 0.59688,-3.49607 1.90769,-2.69752 4.47878,-4.87544 6.40233,-7.54593 -0.69083,-0.17859 -1.55997,0.39484 -2.28108,0.54317 -2.96204,1.14403 -6.19694,2.54806 -7.92027,5.3639 -0.82494,2.24794 -0.27368,4.79661 0.50583,6.9857 0.58492,1.7944 2.7883,1.66753 4.29506,2.01908 2.27597,0.43392 4.92142,0.65012 6.61127,2.41317 0.47394,0.76502 0.31041,1.71519 0.34797,2.56859 2.90163,-0.002 5.69472,-0.83659 8.33728,-1.976 4.73541,-1.93066 9.49085,-3.86897 14.48929,-5.01711 1.65613,-0.20229 2.30494,-1.98017 3.07703,-3.2195 0.52671,-1.2766 -1.03327,-2.11057 -2.11096,-2.12414 -1.41208,-0.30967 -1.49703,-2.16972 -2.60461,-2.92556 -0.64466,-0.72252 -1.91665,-1.20414 -1.56657,-2.39473 -0.11106,-1.03215 0.62361,-2.35118 -0.39862,-3.05899 -0.50449,-0.76031 -1.777,-1.44342 -1.52798,-2.47909 1.16457,-1.95436 3.27119,-3.26705 4.1965,-5.35843 -0.1445,-1.9845 -2.38767,-3.284619 -4.23477,-3.239117 z"
       id="path66" />
    <path
       style="fill:#c8beb7;stroke:none;stroke-width:0.233227;stroke-linejoin:bevel"
       d="m 172.6378,132.98467 c -1.81989,0.13472 -3.84912,-0.16011 -5.53353,0.27123 -2.34614,2.33269 -3.16277,7.01039 -0.23386,9.1951 1.09714,0.36442 0.16055,-0.99689 0.10142,-1.44765 -0.34619,-1.89246 -0.67291,-4.13271 0.31882,-5.85426 0.92857,-0.0495 0.57871,1.57422 0.78722,2.18755 0.30142,1.60823 -0.0364,4.07526 1.74969,4.85966 1.63767,0.45764 2.17373,-1.27582 2.75475,-2.38772 0.71167,-1.14468 2.33675,-0.0602 3.35719,-0.005 1.13519,0.13575 2.22544,0.81587 2.15824,2.07069 0.50544,0.5205 1.18166,-0.82759 1.65367,-1.01149 1.04541,-0.96131 2.539,-1.87333 0.99249,-3.1727 -1.27145,-1.95571 -2.49622,-4.95683 -5.32496,-4.67042 -0.92648,-0.0393 -1.85401,-0.0402 -2.78114,-0.0346 z"
       id="path67" />
    <path
       style="fill:#c8beb7;stroke:none;stroke-width:0.0412291;stroke-linejoin:bevel"
       d="m 173.8857,140.86542 c -0.40406,0.0198 -0.44746,0.51676 -0.55725,0.81171 -0.063,0.19903 -0.1915,0.53733 0.10099,0.61618 0.5928,0.13735 1.21489,0.0646 1.81846,0.0478 0.41679,-0.0571 0.9066,-0.0343 1.24442,-0.31782 0.18413,-0.36623 -0.26829,-0.62301 -0.5554,-0.72102 -0.65876,-0.22708 -1.35492,-0.39696 -2.05122,-0.43681 z"
       id="path68" />
    <path
       style="fill:#483737;stroke:none;stroke-width:0.233227;stroke-linejoin:bevel"
       d="m 127.22911,166.05722 c -3.70561,0.82525 -7.4915,1.5544 -11.04677,2.87983 -0.92128,0.53794 0.6804,1.31062 0.9056,1.82366 2.33759,2.37473 4.93856,5.26469 8.59847,5.03299 1.43292,0.0495 3.22913,0.41976 2.49739,-1.61223 -0.20764,-2.69484 -0.1069,-5.56689 -0.86191,-8.13153 z"
       id="path69" />
    <path
       style="fill:#483737;stroke:none;stroke-width:0.233227;stroke-linejoin:bevel"
       d="m 150.22544,231.27178 c -4.07204,-0.12402 -7.78705,2.17899 -10.54557,4.98785 -1.01839,2.6465 0.1386,5.56347 0.83638,8.16695 1.6654,5.18707 4.4328,10.10961 8.6837,13.61101 7.75644,6.74411 15.58923,13.45453 24.03228,19.33373 2.90574,1.85018 5.92204,3.85859 9.31897,4.58353 -0.0801,-0.62349 -1.33709,-0.93442 -1.81428,-1.40764 -6.79445,-4.00167 -13.40793,-8.9657 -17.39852,-15.9148 -1.55775,-3.0125 -2.78643,-6.26144 -3.57614,-9.53373 0.1346,-3.03399 -0.57287,-6.21319 0.34565,-9.1526 0.99475,-1.68246 3.39289,-2.22263 4.16465,-4.01002 -1.27367,-2.96753 -2.76041,-5.91995 -4.69586,-8.51214 -2.43372,-2.21048 -6.28237,-1.98368 -9.35126,-2.15214 z"
       id="path70" />
    <path
       style="fill:#483737;stroke:none;stroke-width:0.233227;stroke-linejoin:bevel"
       d="m 222.57363,251.4938 c -2.68748,2.7611 -5.2833,5.67555 -7.60981,8.73818 -0.204,1.7965 1.512,4.18925 -0.35839,5.56136 -0.79751,0.70171 0.94263,0.75902 1.31439,1.02377 7.29478,2.13718 14.82876,3.46758 22.40781,3.99455 1.32295,0.43856 2.43403,1.32991 3.79035,1.72462 3.27097,2.04842 7.17831,2.85459 10.86943,3.87783 1.41749,0.29154 3.27062,0.69102 4.52801,0.0776 -5.13553,-1.93706 -10.89237,-2.33933 -15.50635,-5.55871 -5.51061,-3.46189 -10.96828,-7.19093 -15.47591,-11.92038 -1.70306,-1.71713 -1.12676,-4.40792 -2.16624,-6.39547 -0.4863,-0.4791 -1.09462,-1.02708 -1.79329,-1.12337 z"
       id="path71" />
    <path
       style="fill:#241c1c;stroke:none;stroke-width:0.116614;stroke-linejoin:bevel"
       d="m 213.28695,267.69397 c -0.53429,0.0694 -0.98862,0.5863 -1.19727,1.02604 1.45101,0.87445 3.15671,1.30541 4.79658,1.70502 0.52535,-0.0297 0.92518,0.21954 1.38513,0.41051 3.499,0.81769 7.07754,1.28167 10.64745,1.66959 2.76464,0.30512 5.56723,0.16106 8.31976,0.55782 0.93572,0.19062 1.60193,0.94998 2.43162,1.3535 0.13288,0.36696 0.74255,0.0982 0.74656,0.55236 0.27585,-0.0279 0.60448,-0.0902 0.65629,0.28494 0.1914,0.1291 0.51126,-0.0891 0.59829,0.24082 0.26953,0.10618 0.56015,0.13679 0.73361,0.39363 0.32304,0.008 0.55131,0.15658 0.66924,0.45071 0.66587,0.13936 1.31268,0.58399 2.01456,0.47118 0.045,0.23633 0.12679,0.50496 0.46049,0.4141 0.41103,0.10663 0.72093,0.49249 1.20069,0.30336 0.71528,-0.002 1.328,0.53212 2.07687,0.35702 0.81865,-0.20233 1.49688,0.4957 2.28722,0.33656 0.49345,-0.30139 -0.23045,-0.86898 -0.60012,-0.87323 -0.40809,0.11057 -0.59469,-0.22212 -0.90142,-0.34201 -0.36367,0.0639 -0.62818,-0.10878 -0.8605,-0.31496 -0.48046,0.16898 -0.75847,-0.3806 -1.24071,-0.31518 -0.23782,-0.18377 -0.45398,-0.36778 -0.78749,-0.37317 -0.2324,-0.24231 -0.52365,-0.28044 -0.83889,-0.24605 -0.1718,-0.20811 -0.33817,-0.38958 -0.63036,-0.34292 -1.064,-0.84319 -2.51453,-0.90451 -3.70099,-1.53526 -1.81529,-0.74688 -3.52349,-1.88892 -5.54629,-1.97486 -7.47042,-0.69559 -14.86284,-2.12386 -22.08564,-4.1438 -0.20844,-0.0419 -0.42119,-0.0795 -0.63468,-0.0657 z"
       id="path72" />
    <path
       style="fill:#241c1c;stroke:none;stroke-width:0.116614;stroke-linejoin:bevel"
       d="m 137.38537,237.6975 c -0.63721,1.38299 -0.60501,3.01188 -0.60239,4.51758 0.19812,2.57107 1.34965,4.95615 2.41352,7.26769 1.74791,3.60792 4.05157,6.96672 7.02483,9.67655 4.71508,4.50271 9.73096,8.70655 15.07362,12.44348 0.61427,0.66254 0.59989,1.69796 1.31349,2.31434 2.36882,2.53367 5.40915,4.32549 8.41938,5.99254 2.41366,1.29129 4.99477,2.29957 7.70847,2.72329 0.39128,0.10569 1.01919,0.29725 1.33599,0.0969 -1.88635,-1.11547 -3.87941,-2.07654 -5.73173,-3.2647 -3.55454,-2.21865 -7.16053,-4.3995 -10.42478,-7.03664 -3.83346,-3.69228 -8.16773,-6.8053 -12.28725,-10.15854 -3.36142,-3.13345 -6.72412,-6.36128 -9.27826,-10.20834 -2.06937,-3.51897 -3.54641,-7.39082 -4.46723,-11.36409 -0.29341,-0.9736 -0.16526,-2.05467 -0.47287,-3.00003 -0.008,-0.002 -0.0169,-0.003 -0.0248,0 z"
       id="path73" />
    <path
       style="fill:#d3bc5f;fill-opacity:1;stroke:none;stroke-width:0.0583068;stroke-linejoin:bevel"
       d="m 50.824856,284.13803 c -4.443597,0.0219 -8.577099,2.91913 -10.525858,6.84478 -0.99568,1.95998 -1.454108,4.20716 -1.190387,6.3962 0.258213,1.55808 1.00638,3.11549 2.293812,4.06721 -0.04971,-0.843 -0.157252,-1.73156 -0.1634,-2.59604 -0.02991,-1.81155 -0.125199,-3.64361 0.08945,-5.44179 1.308481,-2.97935 3.408723,-5.76596 6.384394,-7.22526 1.355113,-0.69111 2.888549,-0.94321 4.39918,-0.86727 1.944674,-0.0369 3.74339,0.84931 5.425569,1.72683 0.524244,0.25234 1.004346,0.64778 1.5564,0.81292 0.176441,-0.19364 -0.176667,-0.43558 -0.287323,-0.58454 -1.235486,-1.12388 -2.763637,-1.88271 -4.307606,-2.48919 -1.170522,-0.44403 -2.422938,-0.6587 -3.674231,-0.64385 z"
       id="path74" />
    <path
       style="fill:#ffffff;fill-opacity:1;stroke:none;stroke-width:0.0412291;stroke-linejoin:bevel"
       d="m 170.01264,170.92131 c -0.29119,0.21131 -0.42114,0.59435 -0.62136,0.88912 -0.81804,1.48087 -1.61005,2.98276 -2.25443,4.54834 -0.13009,0.21336 -0.0535,0.52589 0.22125,0.55693 0.31634,0.0261 0.47768,-0.34223 0.65614,-0.54398 0.84099,-1.27928 1.48439,-2.68572 1.98536,-4.13013 0.0975,-0.40177 0.33012,-0.86485 0.13042,-1.26698 -0.028,-0.0347 -0.072,-0.0584 -0.11738,-0.0533 z"
       id="path75" />
  </g>
</svg>
