<?xml version="1.0" encoding="UTF-8" standalone="no"?>
<!-- Created with Inkscape (http://www.inkscape.org/) -->

<svg
   version="1.1"
   id="svg1"
   width="325.92001"
   height="320"
   viewBox="0 0 325.92001 320"
   sodipodi:docname="logo-officiel.svg"
   inkscape:version="1.3.2 (091e20ef0f, 2023-11-25, custom)"
   xmlns:inkscape="http://www.inkscape.org/namespaces/inkscape"
   xmlns:sodipodi="http://sodipodi.sourceforge.net/DTD/sodipodi-0.dtd"
   xmlns="http://www.w3.org/2000/svg"
   xmlns:svg="http://www.w3.org/2000/svg">
  <defs
     id="defs1" />
  <sodipodi:namedview
     id="namedview1"
     pagecolor="#505050"
     bordercolor="#eeeeee"
     borderopacity="1"
     inkscape:showpageshadow="0"
     inkscape:pageopacity="0"
     inkscape:pagecheckerboard="0"
     inkscape:deskcolor="#505050"
     inkscape:zoom="1.7074528"
     inkscape:cx="133.53224"
     inkscape:cy="182.4355"
     inkscape:window-width="1900"
     inkscape:window-height="1009"
     inkscape:window-x="0"
     inkscape:window-y="0"
     inkscape:window-maximized="0"
     inkscape:current-layer="g1" />
  <g
     inkscape:groupmode="layer"
     inkscape:label="Image"
     id="g1">
    <g
       id="g6">
      <path
         style="fill:#fdd700"
         d="m 196.04304,253.10974 c -2.3519,-0.30593 -4.81341,-1.2026 -7.02685,-2.55972 l -1.41618,-0.8683 -19.88113,-19.83925 -19.88113,-19.83925 3.28124,-3.28124 3.28125,-3.28125 19.15988,19.13464 c 10.53794,10.52406 19.45889,19.3624 19.82434,19.64077 0.36545,0.27837 1.14236,0.72976 1.72647,1.0031 l 1.06202,0.49698 1.3345,0.0833 1.33449,0.0833 1.10568,-0.33584 c 1.42486,-0.43279 2.77657,-1.31652 3.93805,-2.57466 l 0.92566,-1.0027 0.56761,-1.12712 c 0.31218,-0.61991 0.67564,-1.63906 0.80769,-2.26476 l 0.24008,-1.13765 -0.10088,-0.91631 c -0.15221,-1.38261 -0.49227,-2.3589 -1.21756,-3.49554 L 204.45222,230 l -15.34628,-15.36129 -15.34627,-15.3613 3.28164,-3.2787 3.28164,-3.27871 15.82404,15.84 15.82403,15.84 0.91511,1.41617 c 1.01558,1.57163 1.83017,3.43414 2.33158,5.331 l 0.33116,1.25283 0.0867,1.86102 0.0868,1.86103 -0.19204,1.33897 c -0.72311,5.04181 -3.86811,9.94775 -8.24335,12.85894 -2.28745,1.52201 -4.79031,2.4473 -7.52697,2.78267 -1.6011,0.19621 -2.25362,0.19746 -3.71697,0.007 z M 96.038584,213.0786 l -4.839041,-4.841 3.321981,-3.31915 3.321982,-3.31916 0.758051,0.75805 0.758051,0.75805 1.882112,-1.87721 1.88211,-1.87721 3.31782,3.32064 3.31781,3.32064 -1.87628,1.87627 -1.87627,1.87628 0.75453,0.76604 0.75453,0.76605 -3.31917,3.31635 -3.31918,3.31635 z M 88.139923,131.55987 C 67.494271,110.90194 50.386526,93.676 50.122712,93.28 49.351131,92.121814 48.828799,90.986306 48.452683,89.649491 L 48.101136,88.4 l 0.01213,-1.76 0.01213,-1.76 0.33985,-1.28 c 1.232904,-4.643571 4.761577,-8.450577 9.136907,-9.857606 l 1.451801,-0.466873 1.398424,-0.09926 1.398424,-0.09926 1.354603,0.26938 1.354604,0.26938 1.68,0.806727 1.68,0.806728 37.839747,37.82418 37.83975,37.82419 -3.27895,3.28188 -3.27895,3.28188 -37.120799,-37.09681 C 79.504362,99.941291 62.592293,83.092991 62.338425,82.903865 L 61.876848,82.56 H 61.12975 60.382652 l -0.744746,0.472304 c -1.638685,1.039224 -2.64618,3.301135 -2.0214,4.538215 0.09708,0.192214 16.945371,17.125831 37.440652,37.630261 l 37.264152,37.28078 -3.32192,3.31909 -3.32192,3.31909 z m 166.540087,32.81417 c 0.11,-0.0444 0.29,-0.0444 0.4,0 0.11,0.0444 0.02,0.0807 -0.2,0.0807 -0.22,0 -0.31,-0.0363 -0.2,-0.0807 z m -38.07,-5.60334 c 0.1155,-0.0462 0.2535,-0.0405 0.30667,0.0126 0.0532,0.0532 -0.0413,0.091 -0.21,0.084 l -0.30667,-0.0126 z m 15.2,-3.36 c 0.1155,-0.0462 0.2535,-0.0405 0.30667,0.0126 0.0532,0.0532 -0.0413,0.091 -0.21,0.084 l -0.30667,-0.0126 z M 186.10527,130.72 c 0,-0.22 0.0363,-0.31 0.0807,-0.2 0.0444,0.11 0.0444,0.29 0,0.4 -0.0444,0.11 -0.0807,0.02 -0.0807,-0.2 z m 18.85504,-5.0397 -3.27677,-3.27969 2.31824,-2.33149 c 7.67862,-7.72253 15.23938,-13.44303 21.42639,-16.21129 0.75451,-0.33759 1.64084,-0.70096 1.96961,-0.80749 0.32878,-0.10653 0.63064,-0.24687 0.67082,-0.31188 0.0402,-0.065 -3.08755,-3.278168 -6.9505,-7.140368 l -7.02354,-7.022181 -0.0815,0.232044 c -0.0448,0.127625 -0.19094,0.717631 -0.32476,1.311125 -1.4975,6.641858 -6.22829,15.89305 -11.78407,23.04407 -1.47563,1.89932 -3.99185,4.72636 -4.22282,4.74444 -0.0872,0.007 -1.61251,-1.44023 -3.38954,-3.21568 l -3.23097,-3.22808 1.16718,-1.29192 c 3.51793,-3.89386 6.82861,-8.92942 9.43546,-14.351375 2.02274,-4.207065 3.10818,-7.63278 3.4811,-10.986506 l 0.19319,-1.737429 -0.18669,-1.320186 c -0.20108,-1.421869 -0.6399,-2.592198 -1.1925,-3.180416 l -0.34571,-0.367989 3.31363,-3.313622 3.31362,-3.313622 16.9598,16.959235 16.9598,16.95924 -3.27969,3.27969 -3.2797,3.27969 -0.2802,-0.20273 c -0.15412,-0.1115 -0.56821,-0.34361 -0.92021,-0.5158 l -0.64,-0.31306 -1.3021,-0.004 -1.3021,-0.004 -1.4179,0.40762 c -3.99635,1.14887 -9.89913,4.97176 -16.02252,10.37687 -1.31262,1.15864 -7.43921,7.00143 -7.47685,7.13049 -8e-4,0.003 -1.47601,-1.47084 -3.27823,-3.27468 z"
         id="path7" />
      <path
         style="fill:#030303"
         d="m 213.55851,211.71854 c -1.73718,-1.73881 -3.1585,-3.24037 -3.1585,-3.33679 0,-0.0964 0.38632,-0.5407 0.85849,-0.98726 l 0.85849,-0.81192 0.56207,-0.10544 0.56207,-0.10545 0.53944,0.27546 c 0.61436,0.31371 3.78563,3.35573 4.47942,4.29687 l 0.46002,0.624 v 0.54651 c 0,0.30059 -0.0803,0.70378 -0.1785,0.896 -0.18616,0.36449 -1.58449,1.86948 -1.73699,1.86948 -0.0481,0 -1.50884,-1.42266 -3.24601,-3.16146 z m 4.3615,0.47663 v -0.54206 l -1.87438,-1.91475 c -1.03091,-1.05312 -2.11313,-2.06231 -2.40494,-2.24266 l -0.53057,-0.32791 -0.35949,0.0902 c -0.19772,0.0496 -0.57079,0.31078 -0.82905,0.58034 l -0.46957,0.49012 2.70936,2.71288 2.70935,2.71288 0.52465,-0.50851 0.52464,-0.5085 z m -148.562561,-4.19772 -5.914233,-5.91586 1.995992,-2.00079 c 1.097796,-1.10044 2.074523,-2.0008 2.170504,-2.0008 0.09598,0 0.345601,0.18212 0.554711,0.40471 l 0.380201,0.4047 -1.551952,1.5578 -1.551951,1.55779 2.238944,2.23466 2.238944,2.23466 1.327481,-1.32058 1.327482,-1.32059 0.467482,0.48795 0.467482,0.48794 -1.314039,1.31404 -1.314039,1.31404 2.723298,2.72664 2.723297,2.72663 -0.527685,0.51146 -0.527686,0.51145 z m 148.081251,-0.23876 -3.27585,-3.27877 1.15641,-1.15642 1.15641,-1.15641 0.27658,0.27658 0.27658,0.27658 -0.87102,0.88198 -0.87102,0.88197 1.23423,1.23423 1.23423,1.23423 0.77608,-0.76441 0.77608,-0.76441 0.21419,0.25808 0.21419,0.25808 -0.74717,0.74718 -0.74718,0.74718 1.2349,1.24218 1.2349,1.24219 0.83168,-0.82136 0.83169,-0.82135 0.2527,0.097 c 0.44469,0.17064 0.27742,0.49106 -0.83003,1.59003 l -1.08274,1.07444 z m -73.43869,-1.56399 c -2.068,-2.04317 -4.372,-4.20357 -5.12,-4.8009 -3.79754,-3.03261 -7.29392,-4.74249 -10.72264,-5.24384 l -1.32738,-0.19409 -1.37499,0.0936 c -3.7685,0.25651 -7.52098,2.06433 -11.03184,5.31477 l -0.92523,0.8566 -3.22896,-3.23185 c -1.77593,-1.77752 -3.22897,-3.30329 -3.22897,-3.39061 0,-0.0873 11.19594,-11.35453 24.87986,-25.03824 l 24.87986,-24.87947 3.31976,3.31977 3.31977,3.31976 -17.24591,17.24647 -17.24592,17.24647 1.56629,0.29084 c 0.86146,0.15996 2.45602,0.58081 3.54345,0.93523 l 1.97716,0.64439 4.50409,-4.50202 4.50409,-4.50201 3.27739,3.28031 3.27738,3.28031 -3.71701,3.7199 -3.717,3.71991 0.99837,0.7944 c 0.54911,0.43692 2.85418,2.63047 5.12239,4.87455 l 4.12401,4.08016 -3.24255,3.24545 c -1.7834,1.78499 -3.27921,3.24309 -3.32401,3.24021 -0.0448,-0.003 -1.77346,-1.67691 -3.84146,-3.72007 z m -69.040007,-3.51642 c -2.464,-3.88605 -4.500994,-7.17906 -4.526654,-7.31778 -0.02566,-0.13872 0.133662,-0.42162 0.35405,-0.62866 l 0.400704,-0.37644 0.36595,0.23356 c 0.201272,0.12845 3.447022,2.20422 7.212777,4.6128 l 6.846826,4.37925 -0.546362,0.54637 -0.546362,0.54636 -1.916696,-1.28411 -1.916695,-1.2841 -1.303769,1.31058 c -0.717073,0.72081 -1.303769,1.36359 -1.303769,1.42838 0,0.0648 0.553385,0.94871 1.229744,1.96425 l 1.229744,1.84644 -0.549744,0.54433 -0.549744,0.54433 z m 4.437996,-1.41226 c -0.118413,-0.10635 -6.17295,-4.13659 -6.569331,-4.37292 -0.116234,-0.0693 0.819766,1.42523 2.08,3.32118 l 2.291335,3.44717 1.157996,-1.14473 c 0.636897,-0.6296 1.104897,-1.19242 1.04,-1.2507 z m 145.027031,3.75997 -0.60927,-0.414 0.27227,-0.30085 0.27226,-0.30084 0.29095,0.15571 c 0.16002,0.0856 0.33521,0.22732 0.3893,0.31485 0.0541,0.0875 0.31338,0.15914 0.57618,0.15914 h 0.47783 l 0.39273,-0.39273 c 0.216,-0.216 0.39246,-0.522 0.39213,-0.68 -0.001,-0.71109 -1.34381,-2.12811 -2.0145,-2.12657 -0.1677,3.8e-4 -0.79795,0.17333 -1.40057,0.38433 l -1.09567,0.38364 -0.49396,-0.14166 c -0.56089,-0.16086 -1.47157,-0.97622 -1.80835,-1.61906 -0.92127,-1.75851 1.06593,-3.57092 2.77365,-2.5297 0.57303,0.34938 0.63252,0.50918 0.29411,0.79004 l -0.22588,0.18746 -0.59058,-0.31653 -0.59059,-0.31654 -0.26353,0.0935 c -0.40967,0.14534 -0.68829,0.40288 -0.81945,0.75744 l -0.12012,0.32472 0.15225,0.43675 c 0.0837,0.24021 0.40035,0.65458 0.70359,0.92083 l 0.55133,0.48408 h 0.38851 c 0.21368,0 0.75384,-0.144 1.20036,-0.32 1.43509,-0.56566 2.19535,-0.37951 3.25916,0.79801 0.72548,0.80302 0.95215,1.35831 0.82693,2.02579 l -0.0951,0.50714 -0.63594,0.57453 -0.63593,0.57453 h -0.6024 -0.6024 z m -21.94508,-4.38605 -3.19706,-3.20006 1.15639,-1.15639 1.15639,-1.1564 0.27658,0.27658 0.27658,0.27658 -0.83377,0.84426 -0.83378,0.84426 1.2445,1.2372 1.24449,1.2372 0.70867,-0.72208 0.70866,-0.72207 0.24,0.24 0.24,0.24 -0.70978,0.72321 -0.70978,0.72322 1.23388,1.23388 1.23389,1.23389 0.8525,-0.84192 0.8525,-0.84191 0.26564,0.29353 0.26564,0.29352 -1.08006,1.07178 c -0.59403,0.58948 -1.15092,1.07178 -1.23754,1.07178 -0.0866,0 -1.59616,-1.44003 -3.35454,-3.20006 z m -121.602163,-4.16216 -5.913896,-5.91551 0.501223,-0.50123 0.501224,-0.50122 6.136833,2.90164 6.136833,2.90165 -4.440001,-4.44261 c -2.442,-2.44343 -4.44,-4.51958 -4.44,-4.61366 0,-0.20613 0.679234,-0.86684 0.891134,-0.86684 0.08278,0 2.777263,2.62749 5.987739,5.83887 l 5.837229,5.83887 -0.49609,0.4961 -0.49609,0.49609 -5.821961,-2.75045 c -3.202078,-1.51274 -5.929961,-2.78893 -6.061961,-2.83599 -0.132,-0.0471 1.759728,1.92412 4.203839,4.38038 l 4.443838,4.46592 -0.527998,0.51175 -0.527999,0.51176 z m 146.045773,2.20686 -2.91536,-2.91535 -0.53575,0.51927 -0.53576,0.51927 -0.26402,-0.29174 -0.26403,-0.29175 1.35459,-1.34755 1.35459,-1.34755 0.2767,0.2767 0.2767,0.2767 -0.51637,0.51637 -0.51638,0.51637 2.98891,2.99202 2.9889,2.99201 -0.20773,0.25029 c -0.11425,0.13767 -0.28915,0.2503 -0.38868,0.2503 -0.0995,0 -1.49287,-1.31191 -3.09631,-2.91536 z m -20.08571,-1.68574 -2.98964,-2.98963 -0.53576,0.51928 -0.53576,0.51928 -0.26402,-0.29174 -0.26403,-0.29175 1.35459,-1.34755 1.35459,-1.34755 0.27391,0.27391 0.27391,0.27391 -0.54767,0.56504 -0.54766,0.56505 3.00202,3.00514 3.00202,3.00514 -0.29344,0.26555 -0.29343,0.26556 z m 22.31867,-1.04236 -3.24057,-3.24346 0.84203,-0.8276 c 0.46312,-0.45517 1.0552,-0.9076 1.31575,-1.0054 l 0.47372,-0.1778 0.67366,0.25727 0.67365,0.25727 0.65705,0.71282 c 0.75403,0.81802 1.02626,1.41573 0.91022,1.99849 l -0.0813,0.40813 2.00722,0.99983 2.00723,0.99982 -0.27419,0.30297 -0.27418,0.30297 -1.9747,-0.98361 -1.97469,-0.98362 -0.32872,0.29749 c -0.1808,0.16362 -0.32872,0.3749 -0.32872,0.46952 0,0.0946 0.62431,0.79925 1.38735,1.56585 l 1.38736,1.39381 -0.20695,0.24936 c -0.11382,0.13714 -0.25279,0.24935 -0.30882,0.24935 -0.056,0 -1.56012,-1.45956 -3.34243,-3.24346 z m 1.06691,-1.32211 c 0.27312,-0.31106 0.49631,-0.68906 0.49598,-0.84 -0.001,-0.67086 -1.16351,-1.92077 -2.03023,-2.18373 l -0.35082,-0.10644 -0.65852,0.59493 -0.65852,0.59493 1.24559,1.25294 c 0.68508,0.68912 1.29382,1.25294 1.35277,1.25294 0.059,0 0.33064,-0.25451 0.60375,-0.56557 z m 3.13658,-2.57671 c -1.32,-2.0786 -2.45223,-3.86837 -2.51607,-3.97726 l -0.11606,-0.19799 0.27606,-0.24385 0.27607,-0.24385 3.8258,2.45641 c 2.10418,1.35103 3.88788,2.5185 3.96378,2.5944 l 0.13798,0.13798 -0.29174,0.26402 -0.29174,0.26403 -1.04958,-0.70411 -1.04958,-0.7041 -0.73818,0.74945 -0.73818,0.74945 0.66585,1.01321 0.66584,1.0132 -0.16155,0.25612 c -0.0889,0.14087 -0.22842,0.27774 -0.31013,0.30415 -0.0817,0.0264 -1.22857,-1.65265 -2.54857,-3.73126 z m 2.35976,-0.86896 c -0.42678,-0.38048 -3.57494,-2.38112 -3.47083,-2.2057 0.0708,0.11932 0.62667,0.96282 1.23524,1.87445 l 1.10648,1.6575 0.62444,-0.60974 c 0.34344,-0.33536 0.57054,-0.65779 0.50467,-0.71651 z m -24.96845,1.24258 -3.24576,-3.24866 0.29397,-0.26605 0.29398,-0.26605 3.26144,3.26435 3.26143,3.26435 -0.20777,0.25036 c -0.11428,0.1377 -0.25363,0.25036 -0.30966,0.25036 -0.056,0 -1.56246,-1.4619 -3.34763,-3.24866 z m -122.35387,-3.47389 -5.914233,-5.91586 1.995992,-2.00079 c 1.097796,-1.10044 2.074522,-2.0008 2.170503,-2.0008 0.09598,0 0.345601,0.18212 0.554712,0.40471 l 0.380201,0.4047 -1.551952,1.5578 -1.551951,1.55779 2.238944,2.23466 2.238944,2.23466 1.356262,-1.34922 1.356263,-1.34921 0.404434,0.37994 c 0.222439,0.20897 0.404435,0.45909 0.404435,0.55581 0,0.0967 -0.576471,0.74896 -1.281046,1.4494 l -1.281045,1.27353 2.72457,2.72791 2.724571,2.72791 -0.527686,0.51146 -0.527685,0.51145 z m 124.20143,1.80146 c -1.73738,-1.73901 -3.15887,-3.24236 -3.15887,-3.34078 0,-0.0984 0.10287,-0.26432 0.2286,-0.36867 l 0.22861,-0.18973 3.23458,1.53014 c 1.77902,0.84157 3.27728,1.53013 3.32946,1.53013 0.0522,0 -1.00363,-1.10022 -2.34625,-2.44494 l -2.44112,-2.44494 0.19506,-0.19506 c 0.10728,-0.10728 0.27133,-0.19506 0.36456,-0.19506 0.0932,0 1.6072,1.43905 3.36439,3.19789 l 3.1949,3.19789 -0.26751,0.26751 -0.2675,0.2675 -1.08889,-0.49135 c -0.59889,-0.27024 -2.09689,-0.96947 -3.32889,-1.55382 l -2.24,-1.06248 2.39872,2.40916 2.39873,2.40915 -0.17016,0.26975 c -0.0936,0.14837 -0.23752,0.29221 -0.31985,0.31965 -0.0823,0.0275 -1.57119,-1.37293 -3.30857,-3.11194 z m -20.96037,-0.96037 c -1.73718,-1.73881 -3.1585,-3.24358 -3.1585,-3.34395 0,-0.10036 0.39082,-0.53967 0.86849,-0.97623 l 0.86849,-0.79376 0.50146,-0.10029 0.50146,-0.10029 0.57718,0.24116 0.57717,0.24116 1.75286,1.71683 c 0.96407,0.94426 1.95987,1.99763 2.21287,2.34084 l 0.46002,0.624 v 0.70787 0.70788 l -0.90436,0.94812 c -0.49739,0.52147 -0.94807,0.94812 -1.0015,0.94812 -0.0534,0 -1.51847,-1.42266 -3.25564,-3.16146 z m 3.83361,1.68146 c 0.18035,-0.198 0.40891,-0.51729 0.50792,-0.70952 l 0.18001,-0.34953 -0.16877,-0.44391 c -0.19702,-0.51819 -3.50664,-3.92649 -4.27622,-4.40372 l -0.52494,-0.32553 -0.35949,0.0902 c -0.19772,0.0496 -0.57079,0.31078 -0.82905,0.58034 l -0.46957,0.49012 2.71223,2.71576 c 1.49173,1.49367 2.75448,2.71576 2.80611,2.71576 0.0516,0 0.24143,-0.162 0.42177,-0.36 z m -31.95194,-2.59982 -3.27818,-3.28112 9.1185,-9.11955 9.1185,-9.11955 3.28018,3.28017 3.28017,3.28018 -9.12049,9.12049 -9.12049,9.12049 z m 75.43983,2.2377 c -0.264,-0.14086 -0.58543,-0.36 -0.71429,-0.48699 l -0.23428,-0.23089 0.26116,-0.26116 0.26116,-0.26116 0.55201,0.34116 c 0.70152,0.43356 0.95447,0.42883 1.48532,-0.0278 l 0.42892,-0.36895 v -0.42973 -0.42973 l -0.41657,-0.54616 c -0.22912,-0.30039 -0.67557,-0.70622 -0.99211,-0.90185 l -0.57553,-0.3557 -1.07185,0.42053 C 237.35442,187.81076 236.70829,188 236.5081,188 c -0.54497,0 -1.18413,-0.384 -1.83107,-1.1001 l -0.57894,-0.64081 -0.10628,-0.56654 -0.10629,-0.56655 0.30532,-0.58834 0.30533,-0.58834 0.55192,-0.30329 0.55192,-0.30329 0.52152,0.0788 c 0.28684,0.0434 0.74092,0.23504 1.00908,0.42599 l 0.48757,0.34718 -0.26371,0.29139 -0.2637,0.29139 -0.50538,-0.30816 c -0.6693,-0.4081 -0.99989,-0.38939 -1.47265,0.0834 l -0.39273,0.39272 v 0.40682 0.40681 l 0.57245,0.63363 c 0.31484,0.34849 0.71536,0.67899 0.89004,0.73443 l 0.31761,0.1008 1.23711,-0.43956 1.23711,-0.43955 0.40617,0.10194 c 0.51807,0.13003 1.83851,1.28716 2.14487,1.8796 0.12905,0.24956 0.23464,0.7121 0.23464,1.02788 v 0.57414 l -0.6,0.63927 -0.6,0.63926 -0.56,0.0815 -0.56,0.0815 z M 93.994202,183.58655 c -2.437155,-3.8354 -4.462974,-7.09499 -4.50182,-7.24354 l -0.07063,-0.27008 0.401224,-0.37693 0.401223,-0.37693 0.527903,0.31685 c 0.882972,0.52998 13.639288,8.71072 13.768218,8.82969 0.0662,0.0611 -0.11569,0.33976 -0.40414,0.61933 l -0.52445,0.50831 -1.91423,-1.27492 -1.914235,-1.27492 -1.321631,1.31476 c -0.726896,0.72312 -1.32163,1.37087 -1.32163,1.43945 0,0.0686 0.552078,0.95362 1.22684,1.96676 l 1.226841,1.84208 -0.456775,0.47677 c -0.251226,0.26222 -0.509592,0.47677 -0.574146,0.47677 -0.06455,0 -2.111407,-3.13805 -4.548562,-6.97345 z m 3.49633,-0.19685 1.081945,-1.0903 -3.301983,-2.20062 c -1.81609,-1.21034 -3.330492,-2.17211 -3.365337,-2.13727 -0.07905,0.079 4.274443,6.51849 4.406928,6.51849 0.05308,0 0.583377,-0.49063 1.178447,-1.0903 z m 98.028288,2.44911 -3.27597,-3.27889 1.15641,-1.15642 1.15641,-1.15641 0.27658,0.27658 0.27658,0.27658 -0.87102,0.88198 -0.87102,0.88197 1.23423,1.23423 1.23423,1.23423 0.77608,-0.76441 0.77608,-0.76441 0.21247,0.25601 0.21247,0.25601 -0.7453,0.75669 -0.74531,0.75668 1.27827,1.27077 1.27827,1.27078 0.88074,-0.8698 0.88074,-0.8698 0.23927,0.23927 0.23926,0.23926 -1.16175,1.154 -1.16175,1.154 z m 22.08454,0.32455 -2.95421,-2.95746 -0.52604,0.50987 -0.52605,0.50986 -0.2739,-0.27391 -0.27391,-0.27391 1.34755,-1.35459 1.34755,-1.35458 0.29175,0.26402 0.29174,0.26402 -0.51874,0.53521 -0.51875,0.53521 2.9537,2.95695 2.9537,2.95694 -0.1703,0.26998 c -0.0937,0.14849 -0.23771,0.29245 -0.32009,0.31991 -0.0824,0.0275 -1.47918,-1.28092 -3.104,-2.90752 z m 22.71667,-1.28334 -3.27251,-3.27543 0.79548,-0.80763 0.79549,-0.80763 0.57774,-0.17309 0.57774,-0.1731 0.5883,0.27917 c 0.68943,0.32715 1.68691,1.4311 1.72262,1.90649 0.0137,0.18216 0.0129,0.48085 -0.002,0.66375 l -0.0266,0.33254 0.47771,-0.0701 0.47772,-0.0701 0.70843,0.41517 c 0.38963,0.22834 0.93145,0.71843 1.20403,1.08909 l 0.49561,0.67392 v 0.53643 c 0,0.70607 -0.30309,1.25338 -1.1509,2.07825 l -0.69657,0.67773 z m 4.31998,0.68905 v -0.44815 l -0.58798,-0.65082 c -0.32338,-0.35795 -0.78734,-0.75391 -1.031,-0.87992 l -0.44304,-0.2291 -0.36899,0.14249 c -0.20294,0.0784 -0.54537,0.33206 -0.76094,0.56378 l -0.39195,0.42129 1.2663,1.27377 1.2663,1.27378 0.52565,-0.50948 0.52565,-0.50948 z m -3.60993,-2.1987 0.44993,-0.46963 v -0.39758 c 0,-0.52235 -0.54878,-1.27596 -1.24044,-1.70343 l -0.55471,-0.34283 -0.29426,0.0934 c -0.16183,0.0514 -0.50167,0.3099 -0.75519,0.57451 l -0.46094,0.48112 1.10848,1.11704 c 0.60966,0.61437 1.15094,1.11704 1.20283,1.11704 0.0519,0 0.29683,-0.21133 0.5443,-0.46963 z m -21.19126,0.0684 -3.27597,-3.27889 1.15641,-1.15642 1.15641,-1.15641 0.27658,0.27658 0.27658,0.27658 -0.87102,0.88198 -0.87102,0.88197 1.23423,1.23423 1.23423,1.23423 0.77608,-0.76441 0.77608,-0.76441 0.21218,0.25565 0.21218,0.25566 -0.66588,0.67848 c -0.36624,0.37317 -0.66588,0.74956 -0.66588,0.83643 0,0.0869 0.5242,0.67866 1.1649,1.31508 l 1.1649,1.15712 0.78909,-0.80113 c 0.82656,-0.83918 1.04871,-0.93755 1.33588,-0.59153 l 0.17396,0.20961 -1.15698,1.14925 -1.15697,1.14925 z m -18.23672,1.87017 c -0.49288,-0.0758 -1.28209,-0.62232 -1.28209,-0.88788 0,-0.1084 0.0813,-0.27838 0.18062,-0.37772 l 0.18062,-0.18063 0.59517,0.39387 0.59518,0.39387 0.41583,-0.15811 c 0.22872,-0.087 0.53555,-0.34079 0.68185,-0.56407 l 0.266,-0.40598 -0.1017,-0.40523 c -0.13063,-0.52046 -1.24633,-1.63907 -1.76452,-1.76912 l -0.39908,-0.10017 -1.11266,0.43654 -1.11265,0.43653 -0.41637,-0.1045 c -0.51275,-0.12869 -1.6284,-1.11645 -1.93865,-1.71641 -0.1263,-0.24424 -0.22964,-0.70812 -0.22964,-1.03085 v -0.58677 l 0.62117,-0.62117 0.62118,-0.62118 h 0.59994 0.59994 l 0.54633,0.33765 c 0.56917,0.35177 0.6126,0.56582 0.17128,0.84419 l -0.26111,0.16471 -0.30196,-0.27328 c -0.77402,-0.70047 -1.89176,-0.0596 -1.81573,1.04116 0.0257,0.37138 0.94973,1.40238 1.41574,1.57955 l 0.37657,0.14318 0.98091,-0.39858 c 0.5395,-0.21922 1.20969,-0.39858 1.48932,-0.39858 h 0.50841 l 0.64752,0.46906 c 0.86113,0.6238 1.47511,1.4538 1.58743,2.14596 l 0.0917,0.56477 -0.34211,0.55355 c -0.5249,0.8493 -1.24532,1.22617 -2.09439,1.09564 z m 45.13327,-1.65833 -0.54464,-0.15257 -1.91734,-1.86904 c -1.05453,-1.02797 -2.12344,-2.14984 -2.37536,-2.49305 l -0.45802,-0.624 v -0.54394 c 0,-1.13523 0.79387,-1.96852 1.87437,-1.96745 l 0.60563,6e-4 0.51805,0.31586 c 0.67993,0.41457 2.92636,2.55949 3.89857,3.72242 l 0.76868,0.91947 0.10996,0.58611 0.10995,0.58611 -0.28622,0.53149 c -0.48376,0.89828 -1.32932,1.26093 -2.30363,0.98799 z m 1.32306,-0.94226 0.42158,-0.33162 v -0.46737 -0.46737 l -1.11607,-1.26655 c -1.27295,-1.44459 -3.33179,-3.29293 -3.85176,-3.45796 l -0.35063,-0.11129 -0.42077,0.31278 -0.42077,0.31278 -0.0491,0.57565 -0.0492,0.57566 1.80916,1.87265 c 1.90547,1.97234 2.87698,2.78425 3.33158,2.78425 0.15093,0 0.46413,-0.14923 0.69599,-0.33161 z m -148.142586,-5.27853 -5.91584,-5.92345 1.455022,-1.41721 c 0.800261,-0.77946 1.751393,-1.56841 2.113626,-1.75321 L 98.227256,168 h 0.614959 0.614959 l 0.810246,0.40376 c 0.90769,0.45232 2.56097,1.98739 3.15654,2.93083 0.21535,0.34114 0.47214,0.91953 0.57063,1.28531 l 0.17908,0.66506 -0.15533,0.56258 -0.15533,0.56258 3.54849,1.77281 c 1.95168,0.97505 3.58081,1.80308 3.6203,1.84007 0.0395,0.037 -0.16251,0.29895 -0.44888,0.58213 l -0.52067,0.51487 -3.48777,-1.78546 -3.48776,-1.78546 -0.74355,0.74355 -0.74356,0.74355 2.6437,2.64713 2.6437,2.64713 -0.52767,0.51143 -0.52766,0.51143 z m 2.593626,-3.25463 0.24437,-0.46476 -0.0861,-0.53072 c -0.17126,-1.05537 -1.91073,-3.01445 -3.140092,-3.53652 l -0.552387,-0.23459 -0.557751,0.0905 -0.55775,0.0905 -0.931406,0.92169 -0.931405,0.92169 2.357809,2.36174 2.357812,2.36175 0.77628,-0.75827 c 0.42696,-0.41704 0.88625,-0.9674 1.02065,-1.22303 z m 120.68789,5.90212 -3.26915,-3.27208 0.7159,-0.73547 c 1.29967,-1.3352 1.91766,-1.47023 3.11103,-0.67978 l 0.77,0.51003 0.45743,0.7213 0.45744,0.7213 v 0.574 0.574 l 1.92,0.94935 c 1.056,0.52214 1.92,0.99693 1.92,1.05509 0,0.0581 -0.11313,0.19961 -0.25139,0.31436 l -0.25139,0.20864 -1.90388,-0.94138 -1.90387,-0.94138 -0.40942,0.38462 -0.40942,0.38463 1.45107,1.45713 1.45108,1.45713 -0.29314,0.26529 -0.29314,0.26529 z m 1.44265,-2.20063 v -0.46051 l -0.76,-0.78231 c -0.418,-0.43027 -0.95214,-0.82725 -1.18699,-0.88218 l -0.42698,-0.0999 -0.61302,0.56586 -0.61301,0.56585 1.27435,1.28632 1.27435,1.28632 0.52565,-0.50948 0.52565,-0.50948 z m -71.67983,0.44346 -3.27818,-3.28112 9.1185,-9.11955 9.1185,-9.11955 3.28017,3.28017 3.28018,3.28018 -9.12049,9.12049 -9.12049,9.12049 z m 51.23693,-1.24305 -3.23997,-3.24286 1.12072,-1.11214 1.12072,-1.11213 0.27512,0.27513 0.27513,0.27512 -0.83377,0.84426 -0.83378,0.84426 1.2445,1.2372 1.24449,1.2372 0.70867,-0.72208 0.70866,-0.72207 0.24,0.24 0.24,0.24 -0.70857,0.72197 -0.70856,0.72198 1.27038,1.27788 1.27039,1.27788 0.83616,-0.82578 0.83616,-0.82578 0.25715,0.21341 0.25714,0.21341 -1.08463,1.093 c -0.59655,0.60116 -1.12322,1.09301 -1.17038,1.09301 -0.0472,0 -1.54375,-1.45929 -3.32573,-3.24287 z m 46.20604,2.67075 -0.55687,-0.24343 -2.60313,-2.5859 c -1.43173,-1.42225 -2.60314,-2.66993 -2.60314,-2.77264 0,-0.1027 0.1116,-0.27935 0.24799,-0.39255 l 0.248,-0.20581 2.84209,2.82622 2.8421,2.82623 h 0.35718 c 0.19645,0 0.53391,-0.17673 0.74991,-0.39273 0.216,-0.216 0.39273,-0.55346 0.39273,-0.74991 v -0.35718 l -2.82623,-2.8421 -2.82622,-2.84209 0.20582,-0.248 c 0.11319,-0.13639 0.28781,-0.24799 0.38804,-0.24799 0.27962,0 5.31239,5.13096 5.60274,5.71205 0.32026,0.64097 0.32061,0.90312 0.002,1.5744 -0.28835,0.60764 -0.73504,0.94791 -1.42857,1.08822 l -0.47765,0.0966 z m -23.33183,-3.63654 -3.24576,-3.24866 0.2917,-0.26399 0.2917,-0.26398 3.18548,1.51264 c 1.75201,0.83196 3.2251,1.51265 3.27352,1.51265 0.0484,0 -0.98932,-1.07916 -2.3061,-2.39814 l -2.39414,-2.39814 0.27876,-0.27876 0.27876,-0.27876 3.28511,3.28511 3.28511,3.28511 -0.28772,0.25029 -0.28773,0.25029 -3.12,-1.48943 c -1.716,-0.81918 -3.1911,-1.4935 -3.278,-1.49849 -0.0869,-0.005 0.91568,1.06639 2.22795,2.38085 l 2.38594,2.38993 -0.20753,0.25007 c -0.11415,0.13754 -0.25339,0.25007 -0.30942,0.25007 -0.056,0 -1.56246,-1.4619 -3.34763,-3.24866 z m -17.84264,-0.91007 -1.06433,-2.24774 -2.0329,-0.96083 c -1.1181,-0.52845 -2.06879,-0.99671 -2.11265,-1.04057 -0.0439,-0.0439 0.0426,-0.20212 0.1922,-0.35169 l 0.27193,-0.27194 1.67854,0.83479 c 0.9232,0.45914 1.67854,0.7928 1.67854,0.74147 0,-0.0513 -0.378,-0.80325 -0.84,-1.67093 l -0.84,-1.5776 0.27886,-0.28126 0.27885,-0.28126 0.1388,0.15315 c 0.0763,0.0842 0.51653,0.98114 0.97821,1.99314 0.46168,1.012 0.92174,1.92313 1.02235,2.02472 0.10061,0.1016 1.17407,0.63846 2.38546,1.19303 l 2.20253,1.0083 -0.32335,0.32335 -0.32335,0.32335 -1.84037,-0.91609 -1.84038,-0.91609 0.89929,1.79314 0.8993,1.79314 -0.14953,0.23705 c -0.0822,0.13038 -0.22247,0.26136 -0.31161,0.29108 -0.0891,0.0297 -0.64102,-0.95746 -1.22639,-2.19371 z m 42.44868,-1.68392 -3.26915,-3.27208 0.7159,-0.73547 c 0.83867,-0.86159 1.40249,-1.1898 2.04395,-1.1898 h 0.46394 l 0.66342,0.48058 c 0.36489,0.26432 0.87969,0.77912 1.14401,1.14401 l 0.48058,0.66342 v 0.66132 0.66132 l 1.92152,0.9501 c 1.05684,0.52256 1.89856,1.01902 1.87048,1.10325 -0.0281,0.0842 -0.16177,0.22298 -0.29709,0.30834 l -0.24605,0.15521 -1.88114,-1.00343 -1.88114,-1.00343 -0.41989,0.41989 -0.41989,0.4199 1.48299,1.48918 1.48299,1.48918 -0.29314,0.26529 -0.29314,0.26529 z m 1.44265,-2.19437 c 0,-0.24983 -0.1232,-0.64226 -0.27377,-0.87207 -0.36869,-0.56269 -1.45319,-1.33091 -1.87885,-1.33091 h -0.34461 l -0.54517,0.56248 -0.54517,0.56247 1.26814,1.27562 1.26813,1.27562 0.52565,-0.50948 0.52565,-0.50948 z m -146.00072,-1.0837 -5.91769,-5.91931 2.03446,-2.03446 2.03446,-2.03446 0.48842,0.46793 0.48841,0.46792 -1.5611,1.56698 -1.5611,1.56698 2.23477,2.23906 2.23478,2.23906 1.36935,-1.36301 1.36935,-1.363 0.46644,0.48686 0.46644,0.48686 -1.35102,1.35807 -1.35101,1.35808 2.27672,2.27673 2.27673,2.27672 1.5677,-1.56182 1.5677,-1.56181 0.4303,0.44913 0.43029,0.44913 -2.03836,2.03383 -2.03836,2.03384 z m 124.11782,1.71785 -3.23997,-3.24286 1.12072,-1.11214 1.12072,-1.11213 0.27513,0.27513 0.27512,0.27512 -0.83377,0.84426 -0.83378,0.84426 1.2445,1.2372 1.24449,1.2372 0.70867,-0.72208 0.70866,-0.72207 0.24,0.24 0.24,0.24 -0.70978,0.72321 -0.70978,0.72322 1.23388,1.23388 1.23389,1.23389 0.8525,-0.84192 0.8525,-0.84191 0.26564,0.29353 0.26564,0.29352 -1.08006,1.07178 c -0.59403,0.58948 -1.1149,1.07178 -1.1575,1.07178 -0.0426,0 -1.53544,-1.45929 -3.31742,-3.24287 z m -19.39457,-1.9546 -2.95423,-2.95746 -0.57153,0.55808 -0.57153,0.55809 -0.19262,-0.19262 c -0.10594,-0.10594 -0.19262,-0.26991 -0.19262,-0.36437 0,-0.0945 0.56975,-0.73817 1.26612,-1.43045 l 1.26611,-1.25869 0.25389,0.0974 c 0.38358,0.1472 0.307,0.47671 -0.23047,0.99164 l -0.48436,0.46404 2.99249,2.9956 2.99249,2.9956 -0.20773,0.25029 c -0.11425,0.13767 -0.25364,0.2503 -0.30975,0.2503 -0.0561,0 -1.43144,-1.33086 -3.05626,-2.95747 z m 45.43747,1.45506 c -1.13067,-0.90223 -3.37085,-3.19645 -3.90572,-3.99992 l -0.41428,-0.62232 v -0.46562 c 0,-0.61184 0.36547,-1.29789 0.86619,-1.62597 l 0.40255,-0.26376 h 0.66093 0.66093 l 0.47379,0.33736 0.47378,0.33737 -0.25762,0.28466 -0.25762,0.28467 -0.62172,-0.34055 -0.62172,-0.34054 -0.44974,0.33433 -0.44975,0.33434 -0.049,0.48956 -0.049,0.48956 0.94244,1.09501 c 1.23089,1.43014 3.17884,3.22992 3.83696,3.54509 l 0.52132,0.24966 0.43868,-0.32608 0.43869,-0.32608 0.0504,-0.50723 0.0504,-0.50724 -0.99854,-1.03988 -0.99855,-1.03988 -0.42403,0.40624 -0.42403,0.40625 -0.26495,-0.29278 -0.26496,-0.29278 0.68205,-0.66938 0.68206,-0.66939 1.21731,1.23885 c 0.66952,0.68137 1.29732,1.39613 1.39511,1.58834 0.3894,0.7654 0.0716,1.8488 -0.68839,2.34676 l -0.40255,0.26376 -0.68563,-1e-4 -0.68563,-1e-4 z m -20.58254,-0.24522 c -0.2764,-0.16854 -0.55492,-0.39118 -0.61893,-0.49476 l -0.11639,-0.18832 0.24527,-0.24527 0.24527,-0.24527 0.47836,0.34063 c 0.60101,0.42795 0.99185,0.43026 1.52738,0.009 l 0.42158,-0.33162 v -0.5144 -0.5144 l -0.79049,-0.7786 -0.79049,-0.77861 -0.44951,0.0136 c -0.24723,0.007 -0.77351,0.16096 -1.16951,0.3411 -0.396,0.18014 -0.99308,0.32911 -1.32685,0.33105 l -0.60686,0.004 -0.78565,-0.73488 -0.78565,-0.73488 -0.18271,-0.55362 -0.18271,-0.55361 0.10663,-0.43151 c 0.14333,-0.58005 0.81998,-1.26562 1.45647,-1.47568 l 0.51989,-0.17158 0.53372,0.2308 c 0.29355,0.12694 0.66449,0.33101 0.82432,0.45349 l 0.29061,0.22268 -0.32281,0.29214 -0.32281,0.29214 -0.42937,-0.33775 c -0.56132,-0.44153 -0.95196,-0.42655 -1.43349,0.055 l -0.39273,0.39272 v 0.42833 0.42833 l 0.69895,0.69894 0.69894,0.69895 h 0.34588 c 0.19023,0 0.77353,-0.18 1.29623,-0.4 0.5227,-0.22 1.0722,-0.4 1.22112,-0.4 0.4983,0 1.64518,0.80126 2.21494,1.54744 l 0.56394,0.73858 -0.001,0.57699 -0.001,0.57699 -0.30155,0.45739 c -0.67502,1.02386 -1.74391,1.3251 -2.67888,0.75498 z m -22.65896,-3.81383 c -1.73718,-1.73881 -3.1585,-3.231 -3.1585,-3.31599 0,-0.085 0.4823,-0.64054 1.07178,-1.23457 l 1.07178,-1.08006 0.29352,0.26564 0.29353,0.26564 -0.84192,0.8525 -0.84191,0.8525 1.23389,1.23389 1.23388,1.23388 0.71515,-0.70186 0.71515,-0.70187 0.25566,0.21218 0.25565,0.21218 -0.72721,0.73831 -0.72722,0.73832 1.27827,1.27077 1.27827,1.27078 0.85435,-0.84374 0.85434,-0.84373 0.21345,0.25719 0.21345,0.25719 -1.10264,1.11115 c -0.60645,0.61114 -1.14124,1.11116 -1.18843,1.11116 -0.0472,0 -1.50712,-1.42266 -3.24429,-3.16146 z m -38.47948,-12.23951 -14.12015,-14.12083 3.28124,-3.27831 3.28124,-3.27831 14.11903,14.11902 14.11902,14.11903 -3.28011,3.28011 -3.28011,3.28012 z m 41.74844,8.78846 -3.24961,-3.25252 0.98019,-0.90748 0.9802,-0.90749 h 0.68687 0.68688 l 0.64752,0.46906 c 0.35613,0.25798 0.85134,0.73628 1.10045,1.06288 l 0.45293,0.59383 0.004,0.67938 0.004,0.67939 1.9776,0.98569 1.9776,0.98568 -0.27543,0.30434 -0.27542,0.30434 -1.92558,-0.96526 -1.92557,-0.96526 -0.41312,0.41312 -0.41311,0.41311 1.42387,1.4305 1.42387,1.43049 -0.20695,0.24936 c -0.11382,0.13714 -0.25279,0.24935 -0.30882,0.24935 -0.056,0 -1.56419,-1.46363 -3.35148,-3.25251 z m 1.04492,-1.25888 0.52762,-0.51138 v -0.34461 c 0,-0.43535 -0.77274,-1.51312 -1.36143,-1.89884 -0.2466,-0.16158 -0.62244,-0.29378 -0.83521,-0.29378 h -0.38686 l -0.55082,0.53388 -0.55082,0.53387 1.23882,1.24613 c 0.68134,0.68536 1.27307,1.24612 1.31495,1.24612 0.0419,0 0.31356,-0.23012 0.60375,-0.51139 z m 2.93268,-2.60354 -3.26144,-3.26435 0.20778,-0.25036 c 0.11428,-0.1377 0.28897,-0.2493 0.38819,-0.24801 0.0992,0.001 1.61589,0.68529 3.37036,1.52 1.75448,0.83471 3.22961,1.51765 3.27807,1.51765 0.0485,0 -1.0253,-1.11515 -2.38613,-2.47811 l -2.47424,-2.47811 0.2783,-0.2783 0.2783,-0.2783 3.27638,3.27345 3.27639,3.27346 -0.29066,0.29067 -0.29067,0.29066 -3.23935,-1.52771 c -1.78164,-0.84024 -3.2873,-1.52771 -3.34591,-1.52771 -0.0586,0 0.99372,1.10199 2.33849,2.44888 l 2.44506,2.44887 -0.29374,0.26583 -0.29374,0.26584 z m 4.15375,-4.16626 -3.27597,-3.27889 1.15641,-1.15642 1.15641,-1.15641 0.27658,0.27658 0.27658,0.27658 -0.87102,0.88198 -0.87102,0.88197 1.23423,1.23423 1.23423,1.23423 0.77608,-0.76441 0.77608,-0.76441 0.21247,0.25601 0.21248,0.25601 -0.74531,0.75669 -0.74531,0.75668 1.27827,1.27077 1.27827,1.27078 0.88074,-0.8698 0.88074,-0.8698 0.23927,0.23927 0.23926,0.23926 -1.16175,1.154 -1.16175,1.154 z m -27.67896,-1.43895 -3.27721,-3.28015 4.03565,-4.03985 4.03566,-4.03986 0.10135,-0.51163 0.10135,-0.51163 -0.3492,-0.72134 c -0.61189,-1.26401 -2.15918,-2.32454 -3.40215,-2.33189 l -0.59471,-0.004 -1.16529,1.05359 c -2.03586,1.84069 -3.96301,2.77128 -6.45751,3.11823 l -1.21312,0.16873 -1.42375,-0.17311 c -4.90217,-0.59604 -9.08924,-4.01393 -10.7185,-8.74945 -0.17091,-0.49676 -0.39263,-1.54172 -0.49271,-2.32213 l -0.18197,-1.41894 0.17522,-1.35737 c 0.22583,-1.74948 0.7788,-3.3211 1.73903,-4.94263 l 0.76801,-1.29692 5.79594,-5.84 5.79594,-5.84 3.32126,3.31768 3.32126,3.31769 -5.60971,5.64231 -5.60972,5.64232 -0.19377,0.67955 -0.19378,0.67955 0.18063,0.68045 0.18064,0.68045 0.83382,0.81246 0.83382,0.81245 0.69242,0.17576 0.69242,0.17576 0.41345,-0.1572 c 0.2274,-0.0864 0.77613,-0.49857 1.21941,-0.91582 1.64153,-1.54512 3.54791,-2.57814 5.54102,-3.00254 l 1.18495,-0.25231 1.68,0.084 c 1.96339,0.0982 3.14885,0.38474 4.7858,1.15685 1.64795,0.7773 2.95421,1.74955 4.36392,3.24808 l 1.20459,1.28048 0.82028,1.65101 0.82029,1.65101 0.24256,1.23325 c 0.59344,3.01726 0.0713,5.756 -1.59896,8.38706 l -0.59654,0.93969 -4.17424,4.2 c -2.29583,2.31 -4.21393,4.2 -4.26243,4.2 -0.0485,0 -1.56295,-1.47606 -3.36542,-3.28014 z m 33.00015,0.54173 c -0.57085,-0.36558 -0.64932,-0.63508 -0.27531,-0.94548 l 0.24469,-0.20308 0.38691,0.36349 0.38691,0.36348 h 0.4168 0.4168 l 0.3916,-0.36789 0.3916,-0.36789 v -0.45973 -0.45973 l -0.79238,-0.79238 -0.79238,-0.79238 h -0.38004 c -0.20901,0 -0.83265,0.18392 -1.38586,0.40871 l -1.00583,0.4087 -0.47974,-0.10537 c -0.55912,-0.1228 -1.64308,-1.05189 -1.97413,-1.69207 -0.1263,-0.24424 -0.22964,-0.70812 -0.22964,-1.03085 v -0.58677 l 0.62118,-0.62117 0.62117,-0.62118 0.61883,6e-4 0.61882,6e-4 0.52,0.31705 c 0.57833,0.35261 0.63305,0.50874 0.2808,0.80109 l -0.2392,0.19851 -0.39517,-0.25892 c -0.53437,-0.35014 -1.13943,-0.32593 -1.52643,0.0611 l -0.32,0.32 v 0.46772 0.46773 l 0.41906,0.49802 c 0.23048,0.27391 0.61071,0.59713 0.84496,0.71827 l 0.42591,0.22024 0.87503,-0.32461 c 1.10793,-0.41101 1.64965,-0.50851 2.14066,-0.38528 0.50735,0.12734 1.3056,0.80573 1.8782,1.59618 l 0.45618,0.62974 v 0.46394 c 0,0.62685 -0.37677,1.31275 -0.94229,1.71544 l -0.46711,0.33261 -0.6153,-0.003 -0.6153,-0.003 z"
         id="path6" />
    </g>
  </g>
</svg>
