<?xml version="1.0" encoding="UTF-8" standalone="no"?>
<!-- Created with Inkscape (http://www.inkscape.org/) -->

<svg
   version="1.1"
   id="svg1"
   width="325.92001"
   height="320"
   viewBox="0 0 325.92001 320"
   sodipodi:docname="logo-simple-officiel.svg"
   inkscape:version="1.3.2 (091e20ef0f, 2023-11-25, custom)"
   xmlns:inkscape="http://www.inkscape.org/namespaces/inkscape"
   xmlns:sodipodi="http://sodipodi.sourceforge.net/DTD/sodipodi-0.dtd"
   xmlns="http://www.w3.org/2000/svg"
   xmlns:svg="http://www.w3.org/2000/svg">
  <defs
     id="defs1" />
  <sodipodi:namedview
     id="namedview1"
     pagecolor="#505050"
     bordercolor="#eeeeee"
     borderopacity="1"
     inkscape:showpageshadow="0"
     inkscape:pageopacity="0"
     inkscape:pagecheckerboard="0"
     inkscape:deskcolor="#505050"
     inkscape:zoom="3.4149056"
     inkscape:cx="127.9684"
     inkscape:cy="173.21123"
     inkscape:window-width="1900"
     inkscape:window-height="1009"
     inkscape:window-x="0"
     inkscape:window-y="0"
     inkscape:window-maximized="0"
     inkscape:current-layer="g1" />
  <g
     inkscape:groupmode="layer"
     inkscape:label="Image"
     id="g1">
    <g
       id="g6">
      <path
         style="fill:#fdd700"
         d="m 196.04304,253.10974 c -2.3519,-0.30593 -4.81341,-1.2026 -7.02685,-2.55972 l -1.41618,-0.8683 -19.88113,-19.83925 -19.88113,-19.83925 3.28124,-3.28124 3.28125,-3.28125 19.15988,19.13464 c 10.53794,10.52406 19.45889,19.3624 19.82434,19.64077 0.36545,0.27837 1.14236,0.72976 1.72647,1.0031 l 1.06202,0.49698 1.3345,0.0833 1.33449,0.0833 1.10568,-0.33584 c 1.42486,-0.43279 2.77657,-1.31652 3.93805,-2.57466 l 0.92566,-1.0027 0.56761,-1.12712 c 0.31218,-0.61991 0.67564,-1.63906 0.80769,-2.26476 l 0.24008,-1.13765 -0.10088,-0.91631 c -0.15221,-1.38261 -0.49227,-2.3589 -1.21756,-3.49554 L 204.45222,230 l -15.34628,-15.36129 -15.34627,-15.3613 3.28164,-3.2787 3.28164,-3.27871 15.82404,15.84 15.82403,15.84 0.91511,1.41617 c 1.01558,1.57163 1.83017,3.43414 2.33158,5.331 l 0.33116,1.25283 0.0867,1.86102 0.0868,1.86103 -0.19204,1.33897 c -0.72311,5.04181 -3.86811,9.94775 -8.24335,12.85894 -2.28745,1.52201 -4.79031,2.4473 -7.52697,2.78267 -1.6011,0.19621 -2.25362,0.19746 -3.71697,0.007 z M 96.038584,213.0786 l -4.839041,-4.841 3.321981,-3.31915 3.321982,-3.31916 0.758051,0.75805 0.758051,0.75805 1.882112,-1.87721 1.88211,-1.87721 3.31782,3.32064 3.31781,3.32064 -1.87628,1.87627 -1.87627,1.87628 0.75453,0.76604 0.75453,0.76605 -3.31917,3.31635 -3.31918,3.31635 z M 88.139923,131.55987 C 67.494271,110.90194 50.386526,93.676 50.122712,93.28 49.351131,92.121814 48.828799,90.986306 48.452683,89.649491 L 48.101136,88.4 l 0.01213,-1.76 0.01213,-1.76 0.33985,-1.28 c 1.232904,-4.643571 4.761577,-8.450577 9.136907,-9.857606 l 1.451801,-0.466873 1.398424,-0.09926 1.398424,-0.09926 1.354603,0.26938 1.354604,0.26938 1.68,0.806727 1.68,0.806728 37.839751,37.824184 37.83975,37.82419 -3.27895,3.28188 -3.27895,3.28188 -37.120803,-37.09681 C 79.504362,99.941291 62.592293,83.092991 62.338425,82.903865 L 61.876848,82.56 H 61.12975 60.382652 l -0.744746,0.472304 c -1.638685,1.039224 -2.64618,3.301135 -2.0214,4.538215 0.09708,0.192214 16.945371,17.125831 37.440652,37.630261 l 37.264152,37.28078 -3.32192,3.31909 -3.32192,3.31909 z m 116.820387,-5.87957 -3.27677,-3.27969 2.31824,-2.33149 c 7.67862,-7.72253 15.23938,-13.44303 21.42639,-16.21129 0.75451,-0.33759 1.64084,-0.70096 1.96961,-0.80749 0.32878,-0.10653 0.63064,-0.24687 0.67082,-0.31188 0.0402,-0.065 -3.08755,-3.278168 -6.9505,-7.140368 l -7.02354,-7.022181 -0.0815,0.232044 c -0.0448,0.127625 -0.19094,0.717631 -0.32476,1.311125 -1.4975,6.641858 -6.22829,15.89305 -11.78407,23.04407 -1.47563,1.89932 -3.99185,4.72636 -4.22282,4.74444 -0.0872,0.007 -1.61251,-1.44023 -3.38954,-3.21568 l -3.23097,-3.22808 1.16718,-1.29192 c 3.51793,-3.89386 6.82861,-8.92942 9.43546,-14.351375 2.02274,-4.207065 3.10818,-7.63278 3.4811,-10.986506 l 0.19319,-1.737429 -0.18669,-1.320186 c -0.20108,-1.421869 -0.6399,-2.592198 -1.1925,-3.180416 l -0.34571,-0.367989 3.31363,-3.313622 3.31362,-3.313622 16.9598,16.959235 16.9598,16.95924 -3.27969,3.27969 -3.2797,3.27969 -0.2802,-0.20273 c -0.15412,-0.1115 -0.56821,-0.34361 -0.92021,-0.5158 l -0.64,-0.31306 -1.3021,-0.004 -1.3021,-0.004 -1.4179,0.40762 c -3.99635,1.14887 -9.89913,4.97176 -16.02252,10.37687 -1.31262,1.15864 -7.43921,7.00143 -7.47685,7.13049 -8e-4,0.003 -1.47601,-1.47084 -3.27823,-3.27468 z"
         id="path7"
         sodipodi:nodetypes="cscccccssscccsscsscsscccccccsscccssscccccccccccccccccccssscccsscccccccccccsscccssscccsccssssscscscscssscsscccccccsscccssccc" />
      <path
         style="fill:#030303"
         d="m 144.00001,206.1947 c -2.068,-2.04317 -4.372,-4.20357 -5.12,-4.8009 -3.79754,-3.03261 -7.29392,-4.74249 -10.72264,-5.24384 l -1.32738,-0.19409 -1.37499,0.0936 c -3.7685,0.25651 -7.52098,2.06433 -11.03184,5.31477 l -0.92523,0.8566 -3.22896,-3.23185 c -1.77593,-1.77752 -3.22897,-3.30329 -3.22897,-3.39061 0,-0.0873 11.19594,-11.35453 24.87986,-25.03824 l 24.87986,-24.87947 3.31976,3.31977 3.31977,3.31976 -17.24591,17.24647 -17.24592,17.24647 1.56629,0.29084 c 0.86146,0.15996 2.45602,0.58081 3.54345,0.93523 l 1.97716,0.64439 4.50409,-4.50202 4.50409,-4.50201 3.27739,3.28031 3.27738,3.28031 -3.71701,3.7199 -3.717,3.71991 0.99837,0.7944 c 0.54911,0.43692 2.85418,2.63047 5.12239,4.87455 l 4.12401,4.08016 -3.24255,3.24545 c -1.7834,1.78499 -3.27921,3.24309 -3.32401,3.24021 -0.0448,-0.003 -1.77346,-1.67691 -3.84146,-3.72007 z m 19.52017,-17.31452 -3.27818,-3.28112 9.1185,-9.11955 9.1185,-9.11955 3.28018,3.28017 3.28017,3.28018 -9.12049,9.12049 -9.12049,9.12049 z m -10.56,-10.56004 -3.27818,-3.28112 9.1185,-9.11955 9.1185,-9.11955 3.28017,3.28017 3.28018,3.28018 -9.12049,9.12049 -9.12049,9.12049 z m 22.59885,-23.16115 -14.12015,-14.12083 3.28124,-3.27831 3.28124,-3.27831 14.11903,14.11902 14.11902,14.11903 -3.28011,3.28011 -3.28011,3.28012 z m 22.20083,-0.67917 -3.27721,-3.28015 4.03565,-4.03985 4.03566,-4.03986 0.10135,-0.51163 0.10135,-0.51163 -0.3492,-0.72134 c -0.61189,-1.26401 -2.15918,-2.32454 -3.40215,-2.33189 l -0.59471,-0.004 -1.16529,1.05359 c -2.03586,1.84069 -3.96301,2.77128 -6.45751,3.11823 l -1.21312,0.16873 -1.42375,-0.17311 c -4.90217,-0.59604 -9.08924,-4.01393 -10.7185,-8.74945 -0.17091,-0.49676 -0.39263,-1.54172 -0.49271,-2.32213 l -0.18197,-1.41894 0.17522,-1.35737 c 0.22583,-1.74948 0.7788,-3.3211 1.73903,-4.94263 l 0.76801,-1.29692 5.79594,-5.84 5.79594,-5.84 3.32126,3.31768 3.32126,3.31769 -5.60971,5.64231 -5.60972,5.64232 -0.19377,0.67955 -0.19378,0.67955 0.18063,0.68045 0.18064,0.68045 0.83382,0.81246 0.83382,0.81245 0.69242,0.17576 0.69242,0.17576 0.41345,-0.1572 c 0.2274,-0.0864 0.77613,-0.49857 1.21941,-0.91582 1.64153,-1.54512 3.54791,-2.57814 5.54102,-3.00254 l 1.18495,-0.25231 1.68,0.084 c 1.96339,0.0982 3.14885,0.38474 4.7858,1.15685 1.64795,0.7773 2.95421,1.74955 4.36392,3.24808 l 1.20459,1.28048 0.82028,1.65101 0.82029,1.65101 0.24256,1.23325 c 0.59344,3.01726 0.0713,5.756 -1.59896,8.38706 l -0.59654,0.93969 -4.17424,4.2 c -2.29583,2.31 -4.21393,4.2 -4.26243,4.2 -0.0485,0 -1.56295,-1.47606 -3.36542,-3.28014 z"
         id="path6"
         sodipodi:nodetypes="ssscsscssscccccsscccccccsscscscccccccccccccccccccccccccccccccccsccsscssscssccccccccccccccccsscssscccsscsscc" />
    </g>
  </g>
</svg>
